<?xml version="1.0" standalone="no"?>
<!DOCTYPE svg PUBLIC "-//W3C//DTD SVG 1.1//EN" "http://www.w3.org/Graphics/SVG/1.1/DTD/svg11.dtd" >
<svg xmlns="http://www.w3.org/2000/svg" xmlns:xlink="http://www.w3.org/1999/xlink" version="1.1">
<metadata>
Created by FontForge 20200427 at Fri May 11 08:20:46 2012
 By www
Copyright (c) 2012 by Kimberly Geswein. All rights reserved.
</metadata>
<defs>
<font id="AYearWithoutRain" horiz-adv-x="483" >
  <font-face 
    font-family="A Year Without Rain"
    font-weight="400"
    font-stretch="normal"
    units-per-em="1024"
    panose-1="2 0 0 0 0 0 0 0 0 0"
    ascent="819"
    descent="-205"
    x-height="575"
    cap-height="775"
    bbox="-129 -280.536 1172 1019.73"
    underline-thickness="0"
    underline-position="0"
    unicode-range="U+0020-FB02"
  />
<missing-glyph horiz-adv-x="512" 
 />
    <glyph glyph-name=".notdef" horiz-adv-x="512" 
 />
    <glyph glyph-name=".null" horiz-adv-x="0" 
 />
    <glyph glyph-name="nonmarkingreturn" horiz-adv-x="512" 
 />
    <glyph glyph-name="space" unicode=" " horiz-adv-x="393" 
 />
    <glyph glyph-name="space" unicode="&#xa0;" horiz-adv-x="393" 
 />
    <glyph glyph-name="exclam" unicode="!" horiz-adv-x="167" 
d="M90 75q7 -6 14 -17t10.5 -22t2.5 -21t-8 -14t-22.5 -0.5t-40.5 18.5q-8 16 -5.5 27.5t10 18.5t18.5 9.5t21 0.5zM65 737q7 22 17.5 31t20 8.5t17 -7t10.5 -15.5q-11 -104 -14.5 -180t-4.5 -138.5t-2 -120t-5 -123.5q-2 -18 -9.5 -27t-16.5 -9.5t-16.5 7.5t-9.5 24
q1 59 2 101t2.5 77t2.5 68.5t2 75t2 96t2 132.5z" />
    <glyph glyph-name="quotedbl" unicode="&#x22;" horiz-adv-x="237" 
d="M27 702q0 10 5.5 17t13.5 9.5t17 -0.5t17 -13l53 -178q-7 -17 -17 -22.5t-27 10.5zM152 723q2 24 13 27.5t21.5 -2t16.5 -13t-2 -4.5l2 -15t5.5 -37t7 -47.5t7 -47.5t5.5 -37l2 -15q0 -11 -6 -13.5t-38 5.5z" />
    <glyph glyph-name="numbersign" unicode="#" horiz-adv-x="1000" 
d="M240 188q0 6 1 11t1 9.5t2 7.5q1 4 3.5 10.5t5.5 12.5t5.5 10.5t3.5 4.5h114q1 0 3.5 6.5t5.5 15.5t5.5 18.5t3.5 15.5q1 7 4 26t6 40t5.5 40t3.5 26q-17 16 -30 18t-33 2q-66 0 -129 -10t-128 -10h-57q-2 19 9 30t27 16.5t32.5 7t25.5 3.5q11 2 33 5t50 7t59 8t58.5 7.5
t49.5 6.5t33 4l38 170h38v-165q35 0 60.5 -2.5t48 -3t45.5 3t53 16.5q2 6 7.5 22t11.5 34l11.5 34.5l7.5 22.5q7 17 10 28.5t17 11.5q11 0 17.5 -5t12.5 -16q-2 -5 -4.5 -18.5t-5.5 -28.5t-5.5 -28.5t-3.5 -19.5q-1 -4 1 -18.5t2 -18.5h204l19 -19q-3 -10 -19 -17t-40 -12.5
t-52 -9.5t-54.5 -7t-48 -6t-31.5 -5q-2 -6 -4.5 -22.5t-5.5 -34.5t-5.5 -34t-3.5 -22q0 -4 0.5 -14.5t1 -22t1.5 -22t1 -14.5q45 0 88.5 9.5t88.5 9.5q0 -21 -12.5 -35.5t-31.5 -24.5t-42.5 -16.5t-45.5 -10t-40.5 -6t-27.5 -4.5q-1 -6 -4 -19t-8.5 -25.5t-14 -22
t-20.5 -9.5q-22 0 -30.5 3.5t-9.5 10t1.5 16.5t2.5 23q-19 0 -43 2t-49 2t-48.5 -3.5t-40.5 -15.5q-8 -5 -11 -18l-6 -26t-9 -23t-22 -10q-15 0 -21 10t-6.5 24.5t1 29t1.5 23.5h-138zM681 487q-76 0 -119.5 -9t-65 -34.5t-26.5 -71t-5 -119.5q2 0 12 0.5t12 0.5
q8 1 29.5 3.5t45.5 5.5t45.5 6t30.5 4q21 51 31 105t10 109z" />
    <glyph glyph-name="dollar" unicode="$" horiz-adv-x="664" 
d="M18 154q0 6 -0.5 21t2.5 31t10.5 28.5t23.5 12.5q0 -16 3.5 -47.5t13 -63.5t27 -56t45.5 -24q12 0 18 7.5t8 18.5t2 22.5v19.5q0 7 1.5 28.5t3.5 50.5t4.5 62t4.5 62t3 51t2 29v19q0 20 -12 38.5t-27 37.5t-27 40t-12 47q0 32 12 55.5t29.5 43t37 37t34 38.5t21.5 47
t0 62q2 0 9.5 1t9.5 1q24 0 32 -10.5t7.5 -26.5t-5 -33.5t-4.5 -30.5h71q0 2 -3 18t-3.5 34.5t5 33.5t22.5 15q9 0 17.5 -4.5t11.5 -14.5q2 -6 5 -20t6 -29.5t5.5 -29.5t2.5 -20q6 -2 16 -5.5t19.5 -9t16 -12.5t6.5 -15q0 -13 -6 -18t-15 -5.5t-19 1.5t-18 2v-321
q10 -8 34.5 -28.5t51.5 -44.5t51 -46t33 -31q20 -20 29 -39.5t9 -42.5q0 -41 -25.5 -66t-61 -41.5t-74.5 -29t-66 -30.5q-7 -5 -12 -20t-10.5 -30.5t-13.5 -28t-20 -12.5q-15 0 -15 12t2 26.5t-0.5 26.5t-23.5 12q-4 0 -19.5 -0.5t-32.5 -1t-30.5 -1l-13.5 -0.5
q-5 -3 -9.5 -12t-7.5 -19.5t-3.5 -20.5t2.5 -14h-38q5 30 -4 53.5t-26 43t-38.5 36.5t-40 36.5t-31.5 41.5t-13 52zM241 423q-13 -109 -14.5 -213t-1.5 -186h116l12 339zM435 290q-14 -67 -19 -134t-5 -135q20 0 50 11t57.5 28.5t47.5 38.5t20 41q0 21 -16.5 44t-40.5 43.5
t-50 37t-44 25.5zM264 495q0 -18 8.5 -26.5t20.5 -14.5t25 -12t23 -19q11 5 15 11t4 14q3 29 7 60.5t6 64t0.5 66.5t-9.5 67h-80q-2 -15 -5.5 -41t-6.5 -55.5t-5.5 -59.5t-2.5 -55zM170 599q0 -11 0.5 -20t2.5 -17.5t6 -17.5t11 -21q16 25 17.5 48.5t1.5 51.5v50
q-22 -13 -30.5 -33t-8.5 -41z" />
    <glyph glyph-name="percent" unicode="%" horiz-adv-x="882" 
d="M414 85q0 34 7.5 78.5t18.5 94t24.5 101.5t24.5 101.5t18.5 94.5t7.5 80v11t-0.5 17t-1 17t-0.5 11l-170 -56q6 -39 -3.5 -74t-31.5 -61t-54 -41t-71 -15q-56 8 -86 36.5t-38 65.5t3.5 78t39.5 74t70 53t95 16q5 -15 14.5 -31.5t23.5 -25.5q4 0 13 -0.5t19.5 -1t20 -1
t13.5 -0.5q30 0 56.5 7.5t52.5 16t52.5 16t55.5 7.5v-44l-116 -710q-17 0 -28 8.5t-18 21t-9.5 27.5t-2.5 28zM612 270q0 17 6 35.5t16 35.5t24 30.5t31 19.5q20 8 48 -13.5t54 -54.5t45.5 -67.5t22.5 -53.5q4 -26 -8.5 -47t-33 -36t-45 -23t-45.5 -8q-41 0 -64.5 14.5
t-34.5 39.5t-13.5 58t-2.5 70zM689 322q-16 -43 -21 -72.5t-1.5 -49t13 -30.5t20 -16.5t21.5 -7.5t17 -2q9 0 19.5 1t19.5 4.5t15.5 11.5t9.5 22q3 18 -8 42t-29 45.5t-39 36.5t-37 15zM134 578q0 -11 2 -28.5t8 -33t17.5 -25.5t30.5 -7q47 8 71.5 29.5t24.5 63.5
q0 30 -11 45.5t-24.5 27t-26 24t-15.5 36.5q-18 -15 -32.5 -29t-24.5 -29t-15 -33t-5 -41z" />
    <glyph glyph-name="ampersand" unicode="&#x26;" horiz-adv-x="500" 
d="M264 14q2 10 9 14t16 5.5t17.5 1t14.5 -0.5h18.5t18.5 -1q-2 -6 -6 -16t-10 -19.5t-14 -16t-17 -6.5q-17 0 -27 12.5t-20 26.5zM103 249v18.5t0.5 23.5t1 21t0.5 11t3.5 10t7 18t6.5 18t2 10q-3 14 -21.5 24.5t-39.5 23t-37.5 29t-16.5 43.5q0 48 28 80.5t68.5 53
t86.5 31.5t83 17q5 0 12 -7t7 -12q0 -2 -2 -8t-5 -12t-6.5 -11t-5.5 -6q-27 7 -62.5 1.5t-68 -22t-55 -43t-22.5 -60.5q0 -17 13 -29.5t31 -20.5t37 -12t32 -4q39 0 76 10.5t76 10.5q4 0 18.5 -0.5t18.5 -0.5q3 -19 -11.5 -30t-38 -19.5t-51 -17t-51.5 -23t-40 -38
t-16 -61.5q0 -18 3 -35t10.5 -30.5t20 -22t32.5 -8.5q23 0 59 4t69.5 15t57.5 31t24 52q15 0 31 -8.5t16 -25.5q0 -29 -30.5 -51.5t-71.5 -38.5t-82 -24.5t-63 -8.5q-66 0 -100 37t-34 97zM83 763q0 14 9.5 21t22.5 10t26 3h21q0 -10 -1.5 -21.5t-6 -21t-12 -16t-20.5 -6.5
q-14 0 -26.5 6.5t-12.5 24.5z" />
    <glyph glyph-name="quotesingle" unicode="'" horiz-adv-x="157" 
d="M44 486q15 24 20.5 44.5t3 40.5t-13 41.5t-26.5 45.5q0 8 8 12.5t18 5t19.5 -2.5t14.5 -10q22 -29 31.5 -57t8.5 -53t-10.5 -46t-26.5 -34q-24 -7 -35.5 -2t-11.5 15z" />
    <glyph glyph-name="parenleft" unicode="(" horiz-adv-x="349" 
d="M48 312q0 13 4 55.5t14.5 98.5t29.5 118t48.5 115t71 89t98.5 41q11 0 22.5 -2t16.5 -15q-62 -37 -106 -82t-72 -103.5t-41 -131.5t-12 -165q0 -56 4.5 -111.5t20.5 -107.5t46.5 -98.5t82.5 -84.5q0 -4 -7 -10.5t-10 -6.5q-42 0 -73.5 24t-55 62t-39.5 84t-25.5 91
t-13.5 82.5t-4 57.5z" />
    <glyph glyph-name="parenright" unicode=")" horiz-adv-x="362" 
d="M65 -75q44 58 83 108.5t68.5 102t46.5 108t17 126.5q0 69 -21.5 125.5t-59 107t-87 98.5t-106.5 101q-8 20 6 30.5t33 0.5q75 -45 130 -103.5t91.5 -125t54.5 -137.5t18 -141q0 -27 -7.5 -65t-21 -80.5t-34 -86t-47 -80.5t-58 -65t-68.5 -39q-3 -1 -9 0t-12 3.5t-11 5.5
t-6 6z" />
    <glyph glyph-name="asterisk" unicode="*" horiz-adv-x="527" 
d="M248 381q-17 -6 -27 -19.5t-15 -30t-6.5 -33.5t-1.5 -30h-71q0 25 6 46.5t13.5 42t13.5 42t6 46.5q-8 0 -23.5 -4t-32 -6t-31 1.5t-20.5 19.5q-2 3 -3 8l-2 10t-1 11h81l-94 122v27q28 0 55.5 -16t52.5 -38t46 -46l35 -40q-12 17 -15 51t-1 70t6.5 66t9.5 39h47l-13 -167
q3 13 9 35t14.5 43.5t17.5 37.5t18 16q14 0 27 -6.5t13 -24.5q0 -1 -0.5 -4.5t-0.5 -4.5q-8 -13 -16 -32.5t-15.5 -40.5t-14 -41.5t-11.5 -36.5q5 0 19 -0.5t19 -0.5q22 0 42 4t40.5 8.5t41 8.5t43.5 4q0 -20 -12.5 -34t-32.5 -23t-44 -13.5t-46.5 -6.5t-41.5 -2.5t-28 -1.5
l76 -94q1 2 6.5 5.5t11.5 6.5t11.5 5t7.5 2q6 0 11 -10.5t8.5 -24t5.5 -26t2 -16.5q0 -29 -13.5 -30t-36 15.5t-51 45.5t-59.5 59q-1 0 2 -11t8 -26.5t11 -34t11 -35t8.5 -27.5t2.5 -12q-2 -3 -8 -5.5t-12.5 -4.5t-12.5 -4t-9 -4q-20 13 -29 34.5t-12 45t-1 47.5t5 43z" />
    <glyph glyph-name="plus" unicode="+" horiz-adv-x="500" 
d="M217 425h-170q-2 0 -9 11t-10 17q0 1 -0.5 4.5t-0.5 5.5q0 8 4 18t16 10h170v200q30 0 45 -23t21 -53.5t7 -60.5t2 -44l178 -1v-38q-15 -4 -39 -9t-51 -9.5t-53 -9.5t-44 -9v-207l-66 19v179z" />
    <glyph glyph-name="comma" unicode="," horiz-adv-x="143" 
d="M14 -73q32 23 42 51.5t13 54t6.5 43t22.5 18.5q18 -5 25.5 -33t2.5 -60.5t-22.5 -61.5t-49.5 -36q-14 -2 -25.5 5.5t-14.5 18.5z" />
    <glyph glyph-name="hyphen" unicode="-" horiz-adv-x="437" 
d="M47 364q-2 1 -5.5 6.5t-6.5 11.5t-5 11.5t-2 8.5q0 9 5.5 13t13 5.5t14.5 1.5h11l274 -23q16 -3 29 -6t23 -9t15.5 -17t5.5 -29q-51 6 -83.5 9.5t-55.5 5t-42 2t-43 1.5t-59 2.5t-89 5.5z" />
    <glyph glyph-name="period" unicode="." horiz-adv-x="142" 
d="M30 82q7 0 21 0.5t28 -2.5t24.5 -10.5t10.5 -22.5q0 -7 -1.5 -15.5t-4.5 -16t-8.5 -12.5t-14.5 -5q-15 0 -25 9t-17 22t-10 27.5t-3 25.5z" />
    <glyph glyph-name="slash" unicode="/" horiz-adv-x="493" 
d="M8 28q0 2 0.5 5.5t0.5 4.5l424 732q15 -8 29 -19.5t12 -30.5l-408 -720q0 -1 -6.5 -2t-9.5 -1q-15 0 -28.5 7t-13.5 24z" />
    <glyph glyph-name="zero" unicode="0" horiz-adv-x="538" 
d="M26 241q0 33 7 85t22 110.5t37.5 117.5t53 106.5t69.5 77.5t87 30q41 0 71.5 -20.5t53 -54.5t37 -76.5t23 -86.5t12 -86t3.5 -73q1 -84 -22 -154t-65.5 -119.5t-103 -75.5t-133.5 -23q-44 0 -73 25.5t-46.5 63t-25 79t-7.5 74.5zM102 240q0 -31 3.5 -61t15 -53
t32.5 -37.5t56 -14.5q51 4 97 31.5t79 69t49.5 92t9.5 100.5q-8 58 -13 109.5t-18.5 94t-40.5 74t-78 49.5q-22 0 -44.5 -28t-44 -71.5t-40 -97t-33 -104t-22.5 -92t-8 -61.5z" />
    <glyph glyph-name="one" unicode="1" horiz-adv-x="415" 
d="M271 579q-27 -23 -59 -37.5t-66.5 -22t-70 -10t-68.5 -2.5v54q11 1 37.5 8.5t55.5 17.5t55 19t37 12q34 11 58 39t42.5 57t33.5 51.5t30 22.5q17 0 23.5 -12t4.5 -27l-149 -730q-1 -5 -15 -12t-22 -7q-5 0 -11.5 2t-12.5 5t-10 6.5t-4 5.5z" />
    <glyph glyph-name="two" unicode="2" horiz-adv-x="500" 
d="M47 -26q-17 0 -27.5 8t-14.5 18.5t-0.5 21t14.5 16.5q23 9 38.5 16t29.5 14.5t29.5 16.5t38.5 23q33 44 68.5 92.5t66 101t52.5 108t28 113.5q3 26 -9 58t-32 57.5t-44.5 39t-47.5 4.5q-17 0 -36 -12t-35.5 -27.5t-30 -31.5t-20.5 -24q-5 3 -13.5 9.5t-16 14t-11 16.5
t2.5 17q37 40 62 62.5t42.5 34t29.5 15t24 5.5q39 13 79.5 -4.5t72 -55t48 -89t9.5 -107.5q-11 -82 -38 -145t-58.5 -113.5t-63 -91t-51.5 -77.5q5 -8 28.5 -16.5t58 -14.5t77 -7.5t87.5 4.5l-5 -57q-24 -18 -65 -22t-87 2t-91 20.5t-76 34.5q-16 0 -30 -7.5t-27 -16.5
t-26.5 -16.5t-29.5 -7.5z" />
    <glyph glyph-name="three" unicode="3" horiz-adv-x="472" 
d="M42 113q0 12 8.5 20t20.5 8q18 0 28 -15t19 -32.5t21.5 -32.5t35.5 -15q43 -3 81.5 16.5t67.5 51t45.5 71t15.5 75.5t-22.5 64t-68.5 38q-26 0 -49 -10.5t-48 -10.5q-12 0 -20 8.5t-8 21.5q0 9 11.5 27.5t28.5 43t36.5 54t36.5 61t28.5 63.5t11.5 62q-7 22 -18.5 24
t-26.5 -7.5t-33 -26.5t-37 -32t-39.5 -24.5t-39.5 -3.5q0 33 19 62.5t47.5 52t62.5 36t64 13.5q39 -6 58.5 -30.5t24 -58t-2 -71.5t-20 -72t-30.5 -58.5t-32 -31.5q50 -9 81 -37t46 -68t14 -87.5t-15.5 -94.5t-41.5 -89t-64.5 -71.5t-85 -42t-102.5 0.5q-24 0 -44.5 13.5
t-34.5 35t-22 47.5t-8 52z" />
    <glyph glyph-name="four" unicode="4" horiz-adv-x="512" 
d="M461 4q-6 -9 -21.5 -10.5t-28.5 7t-18 26.5t9 48l-1 286q-104 15 -173 25t-111.5 16.5t-64 10.5t-29.5 6t-7.5 3t0.5 2q0 21 5.5 33t14.5 21t20.5 17t23.5 20q11 10 20.5 34t18 53.5t17 61t16.5 57.5t15.5 43t15.5 17q21 0 30 -14.5t9 -31.5q0 -32 -9 -64t-20 -63
t-20 -61.5t-9 -58.5q0 -11 15 -19t39 -13t53 -8t56.5 -4t50 -1.5t33.5 -0.5l14 288q-2 4 8.5 8.5t24 6t24 -1.5t9.5 -13q1 -23 1.5 -65t-0.5 -96.5t-2 -116t-3.5 -123t-5 -119t-5.5 -102t-7 -72.5t-8 -32z" />
    <glyph glyph-name="five" unicode="5" horiz-adv-x="524" 
d="M35 47q0 2 0.5 12t1 21.5t1 21t0.5 11.5q9 -14 22.5 -25t30 -18t34 -10.5t34.5 -3.5q55 0 97.5 22t71.5 58.5t44.5 83t15.5 95.5q0 16 -8.5 44t-24.5 55t-39 45t-52 13q-27 -5 -47 -19t-35 -33t-26.5 -40t-22 -38.5t-22 -29t-26.5 -11.5q-11 0 -19.5 9.5t-8.5 29.5
q2 29 3.5 67t2.5 77.5t1.5 79t2.5 73t4.5 57.5t7.5 34l352 49q16 3 30.5 -2t26 -15t18 -23.5t6.5 -28.5q-43 0 -89.5 -4t-93.5 -10.5t-92.5 -15.5t-86.5 -18q-4 -42 -4.5 -68t0.5 -42.5t3 -25t2 -15.5q74 27 128.5 23.5t92 -29t58 -68t25.5 -93t-5 -104t-33.5 -100.5
t-60 -83.5t-85 -52.5t-108 -7t-128.5 52z" />
    <glyph glyph-name="six" unicode="6" horiz-adv-x="433" 
d="M18 160q0 94 19 181.5t49.5 164.5t69 140.5t78.5 109.5q7 13 20.5 17.5t25.5 3t19.5 -8.5t2.5 -17q-13 -20 -33 -44.5t-46 -69.5t-57.5 -118t-65.5 -188q-5 -17 -9 -41t-6 -51t0 -54.5t9.5 -50t21 -39t35.5 -20.5q-5 18 -2.5 44.5t11 56t22.5 59t31.5 53t37.5 38.5t41 15
q23 0 44.5 -9t38 -24.5t27 -36.5t13.5 -45q6 -46 -19 -87.5t-65 -72.5t-87 -49.5t-86 -18.5q-31 0 -57 15t-44.5 38.5t-28.5 52.5t-10 56zM227 113q16 -22 36 -15.5t37.5 26t29 44.5t10.5 40q0 6 -1.5 15.5t-5 18.5t-9 16t-12.5 8q-20 0 -35.5 -19.5t-26.5 -45t-17 -51
t-6 -37.5z" />
    <glyph glyph-name="seven" unicode="7" horiz-adv-x="408" 
d="M187 43q51 136 77.5 294t19.5 318q-18 1 -49.5 2t-66.5 5t-69.5 11t-59.5 19q-13 7 -17 17t-1 19t12.5 15.5t23.5 6.5q18 0 34 -3.5t32.5 -7.5t33.5 -7.5t36 -3.5q25 0 44 1t37.5 5t38.5 12t47 22q5 4 12 -1.5t12.5 -16.5t7.5 -26.5t-3 -31.5q-22 -73 -35 -150
t-25 -158.5t-26.5 -168t-38.5 -177.5q-1 -4 -4 -10.5t-6 -12.5t-5.5 -10.5t-3.5 -4.5q-21 -5 -32.5 -3t-17 8.5t-7 16.5t-1.5 21z" />
    <glyph glyph-name="eight" unicode="8" horiz-adv-x="440" 
d="M8 130q-3 72 30.5 129.5t91.5 111.5q-29 18 -47.5 31.5t-29.5 27.5t-15.5 31.5t-5.5 44.5q-6 54 11.5 101.5t49 83t72 56t79.5 19.5q43 1 75.5 -22.5t55 -57.5t34 -71.5t12.5 -65.5q1 -24 -8.5 -45.5t-23.5 -40t-29.5 -34t-27.5 -26.5q26 -25 43 -62t22.5 -78t-0.5 -83.5
t-25.5 -79t-53 -64t-82.5 -38.5q-48 -5 -89.5 0.5t-72 22t-48 44t-18.5 65.5zM271 360q-46 -1 -84.5 -24.5t-65 -58t-38.5 -74.5t-5 -75t35.5 -60t83.5 -29q45 6 72.5 26.5t41.5 49.5t16 63t-3.5 68t-18 63.5t-27.5 49.5h-3h-3q-1 0 -1 1zM86 515q1 -18 6 -36t16.5 -32.5
t30 -23.5t45.5 -9q36 1 66.5 12t52.5 29t34 42t11 51q0 12 -7 36.5t-19 48.5t-28 42t-35 18q-39 -1 -71 -19t-55 -44.5t-35.5 -57t-11.5 -57.5z" />
    <glyph glyph-name="nine" unicode="9" horiz-adv-x="469" 
d="M338 10q2 21 5.5 54t7.5 72.5t8 82.5t7.5 82t5.5 71.5t2 52.5q-34 -19 -59.5 -34.5t-48.5 -26t-47 -16t-54 -5.5q-21 0 -47 7.5t-49 22.5t-38.5 37t-15.5 51q4 50 25.5 100t56 91.5t78.5 70t92 36t97.5 -10.5t94.5 -69q0 -99 -3.5 -182t-10 -161.5t-16 -158t-21.5 -170.5
q-6 -17 -15 -22.5t-19 -3.5t-20 10t-16 19zM91 481q6 -31 28 -46t52 -16.5t64 10.5t64.5 35.5t53 57.5t30.5 77q0 1 0.5 4.5t0.5 5.5q0 19 -10 35t-25 27.5t-33 18t-35 6.5q-29 0 -62.5 -23t-62 -56t-47 -70.5t-18.5 -65.5z" />
    <glyph glyph-name="colon" unicode=":" horiz-adv-x="160" 
d="M35 148q11 23 24 31.5t34 8.5q17 0 26.5 -7.5t9.5 -32.5q0 -39 -27 -39q-19 0 -38 11.5t-29 27.5zM34 478q0 18 15 33t33 15q15 0 22.5 -10t10 -24t2.5 -28v-21h-21.5t-27.5 2.5t-24 10t-10 22.5z" />
    <glyph glyph-name="semicolon" unicode=";" horiz-adv-x="160" 
d="M17 -138q15 34 21.5 74t14.5 70.5t23.5 43.5t47.5 -7q-5 -17 -8 -50t-7 -66t-11.5 -58t-21.5 -24q-6 0 -15.5 -0.5t-18.5 0t-16 4.5t-9 13zM57 302q-25 1 -31 13.5t0 27t20.5 26t29.5 10.5q17 0 27 -6.5t10 -32.5q0 -6 -8.5 -12.5t-19.5 -12.5q-12 -7 -28 -13z" />
    <glyph glyph-name="less" unicode="&#x3c;" horiz-adv-x="547" 
d="M462 155q-19 6 -57 7t-85 0.5t-97.5 -0.5t-93.5 4.5t-74 15t-38 30.5l4.5 4.5l10.5 10.5l12.5 12.5t10.5 9.5q12 10 37 31t56.5 47t66.5 55t66.5 55t56.5 46t37 30q20 16 41.5 20t45.5 4q0 -25 -18.5 -51.5t-47.5 -54t-65 -54.5t-71 -53t-64.5 -50t-46.5 -44h302
q2 2 7 5.5t11 6.5t11.5 5t8.5 2q9 0 13 -6.5t5.5 -14.5t1.5 -16v-12q0 -23 -10 -34t-37 -11z" />
    <glyph glyph-name="equal" unicode="=" horiz-adv-x="406" 
d="M349 270q15 -5 18 -16t3 -23q0 -15 -21.5 -23.5t-54.5 -13t-72.5 -6t-75.5 -1.5t-64 1t-38 1q-15 26 -5.5 41t34.5 22.5t61.5 10t75.5 2.5t75.5 0.5t63.5 4.5zM38 363q-15 7 -18 18.5t1.5 22.5t14.5 20.5t21 13.5q10 1 30.5 2.5t46.5 3t54.5 4t55 4t47 3t30.5 2.5h11
q17 0 23 -12.5t6 -26.5q0 -12 -5.5 -19t-14 -10.5t-19 -4.5t-20.5 -2t-30.5 -2.5t-47 -3t-55 -4t-54.5 -4t-46.5 -3t-30.5 -2.5z" />
    <glyph glyph-name="greater" unicode="&#x3e;" horiz-adv-x="528" 
d="M96 114v14.5t2 5.5t6 5t12 12q15 20 41.5 43t56.5 47t60.5 47.5t55.5 44t40.5 37t15.5 26.5l-339 113q-20 7 -20 29q0 21 16 25.5t33 4.5q21 0 41 -6t39.5 -15t39.5 -19.5t40 -18.5q9 -3 28 -9t43 -13.5t51 -15.5t51 -15.5t43.5 -13.5t28.5 -8q27 -20 19.5 -45.5
t-36.5 -54t-72.5 -60.5t-89.5 -65.5t-87.5 -67.5t-66.5 -68q-23 0 -37.5 7.5t-14.5 33.5z" />
    <glyph glyph-name="question" unicode="?" horiz-adv-x="459" 
d="M151 75q1 19 11.5 27t23.5 6.5t24.5 -11.5t13.5 -28q3 -9 -6.5 -23.5t-22.5 -20.5t-26 3t-18 47zM127 338q87 55 143 117.5t81 117t19.5 93t-40.5 45.5t-100 -26t-159 -120q-19 -14 -30.5 -12.5t-18.5 12.5q15 44 44.5 80t67 62t79 41t80 18t71.5 -7t52.5 -34.5t22 -64
t-18.5 -95.5q-24 -61 -63 -107.5t-78.5 -79.5t-71.5 -52.5t-42 -25.5q-19 0 -26.5 7.5t-11.5 30.5z" />
    <glyph glyph-name="at" unicode="@" horiz-adv-x="830" 
d="M36 211q0 63 12 131t36.5 133.5t61.5 124.5t86.5 103.5t112.5 70.5t140 26q70 0 127 -23.5t97.5 -65.5t63 -99.5t22.5 -125.5q0 -26 -3.5 -58t-12 -65t-22 -64t-33.5 -55t-46.5 -38.5t-60.5 -14.5q-25 0 -50.5 5t-48 16.5t-40 30t-25.5 45.5q-26 -17 -41.5 -45.5
t-31.5 -56.5t-37.5 -48t-59.5 -20q-44 0 -70 29t-26 71q0 35 6 77t20 83.5t35.5 77.5t53.5 59q15 15 38 25t50.5 14.5t58 4t61.5 -5.5q-1 -10 -1.5 -34t-0.5 -51t0.5 -51.5t1.5 -33.5q1 -17 7.5 -39.5t18 -43t28.5 -35t40 -14.5q23 -4 48 9t43 49.5t25.5 100t-3.5 161.5
q0 39 -21.5 68t-53 47.5t-67 28t-64.5 9.5q-96 0 -173.5 -43t-131.5 -112t-83 -157t-29 -178q0 -61 10.5 -107.5t35 -78t66.5 -48t105 -16.5q75 0 135 21.5t108 54t85.5 70.5t66.5 70.5t50.5 54t39.5 21.5q0 -58 -23 -106.5t-61 -87t-87 -67.5t-102.5 -48.5t-107 -29
t-99.5 -9.5q-78 0 -131.5 15.5t-86.5 49.5t-47.5 87.5t-14.5 130.5zM406 478q-32 0 -55 -16.5t-39.5 -43t-27 -59t-16.5 -65t-8 -61.5t-2 -47q28 0 50.5 14.5t40.5 38t31.5 53t23.5 60t17.5 58.5t12.5 48q-5 11 -11.5 15.5t-16.5 4.5z" />
    <glyph glyph-name="A" unicode="A" horiz-adv-x="497" 
d="M340 340q-8 0 -26.5 -2.5t-39.5 -5.5t-40 -6.5t-26 -4.5q-1 0 -3 -3t-6.5 -13.5t-12.5 -31.5t-20 -58.5t-29.5 -94t-41.5 -137.5h-75q9 24 21 70t25.5 95t25.5 92t21 62q-2 6 -8 7.5t-12.5 3.5t-12 7t-6.5 18q0 16 7 26t18 16.5t24.5 10t27.5 5.5q16 58 29.5 95.5t26 71
t25.5 70.5t28 95q4 7 15.5 20.5t26 25t29 16.5t24.5 -5l60 -351q4 3 14.5 6.5t22.5 6.5t23 5t16 1q3 -1 9 -5.5t12 -10.5t11 -12t5 -10q-8 -12 -22 -21t-29.5 -16t-32 -11.5t-29.5 -8.5q18 -88 21.5 -184.5t3.5 -184.5q-29 0 -46 19.5t-26 50t-12 69.5t-4.5 78t-3.5 74.5
t-8 59.5zM305 657q-29 -95 -45 -147.5t-23.5 -77.5t-8.5 -30.5l-1 -5.5l113 19v8q-2 19 -6.5 50.5t-10 65.5t-11 66t-7.5 52z" />
    <glyph glyph-name="B" unicode="B" horiz-adv-x="632" 
d="M47 30v26.5t-0.5 43.5t-0.5 43.5v26.5q0 66 2 116.5t5 98.5t5 98.5t2 116.5q0 16 -3.5 24.5t-7 15t-7 12.5t-3.5 17q0 27 13.5 45.5t35 30.5t49 18t55 8.5t52.5 2.5h43q23 0 46 -3.5t42 -14t30.5 -29t11.5 -48.5q-2 -28 -9.5 -53.5t-18 -47t-21.5 -39t-19 -30.5
q30 -19 59.5 -30t57 -21t51.5 -20.5t41.5 -28.5t27.5 -45.5t10 -70.5q0 -67 -24 -121.5t-65.5 -93t-98 -59.5t-121.5 -21q-15 0 -50 1t-73.5 4.5t-72 10t-44.5 16.5zM343 660q0 25 -16 38t-39 16t-50 -2.5t-50 -18t-38.5 -31t-15.5 -40.5q-5 -45 -7.5 -79t-4 -61.5t-2 -52
t-0.5 -51t0.5 -58.5t0.5 -75v-33.5t0.5 -51.5t0.5 -51v-34q4 33 22 37t43 -4t54 -20.5t55 -13.5q50 0 94 13t77 40t52 68.5t19 97.5q0 40 -21 64.5t-52 38t-68 17.5t-68 4q-35 0 -73.5 -8t-69.5 -8q-34 2 -35.5 20t19.5 38q12 4 24.5 6t25.5 6.5t26.5 14.5t28.5 30.5t32 55
t36 88.5z" />
    <glyph glyph-name="C" unicode="C" horiz-adv-x="531" 
d="M24 354q0 74 25 145.5t63.5 129.5t85.5 96t91.5 43.5t81 -27.5t53.5 -117q-2 0 -9 1t-15.5 2.5t-15.5 3t-9 2.5q-31 51 -64 59.5t-64.5 -12t-59 -62.5t-47.5 -91t-30.5 -97.5t-7.5 -82.5q2 -22 4 -50.5t7.5 -60t15 -63t26 -57.5t40.5 -44.5t59 -24.5q33 0 60 18t52.5 40
t51 40t55.5 18q7 2 12 -1t7.5 -8t1.5 -11t-6 -9q-25 -27 -50 -55t-53 -50.5t-60 -37t-71 -14.5q-42 0 -75.5 18.5t-59 48.5t-43.5 69.5t-29.5 81t-17 83t-5.5 76.5z" />
    <glyph glyph-name="D" unicode="D" horiz-adv-x="601" 
d="M36 19q-4 168 -5.5 285.5t-1.5 196t0.5 123.5t1 68.5t1.5 31.5t1 13q0 17 13 26t33 13t44 3.5t46 -2.5t38 -4t21 -2q78 -8 143.5 -34.5t113 -72.5t74 -111t26.5 -149q-4 -52 -30 -107t-67.5 -105t-95 -91.5t-113.5 -67t-122 -31t-121 16.5zM111 75h19q36 0 79.5 13.5
t87.5 37t85 55.5t73 69t51.5 76.5t19.5 79.5q0 24 -7.5 59t-26 72t-49 71.5t-77 59.5t-110.5 35.5t-149 -1.5z" />
    <glyph glyph-name="E" unicode="E" horiz-adv-x="539" 
d="M36 713q2 9 33.5 16.5t79 14t103.5 11.5t107 8.5t89.5 5.5t51.5 2q10 0 22 -1t21.5 -4.5t16 -11t6.5 -20.5q0 -20 -19 -30.5t-51 -15t-72.5 -4.5t-83.5 0.5t-85 0.5t-76.5 -4.5t-57.5 -14t-28 -28.5q3 -12 2 -28t-3 -34.5t-3 -39.5t3 -45q27 -2 62.5 -1.5t73.5 1.5
t75.5 2.5t67.5 2.5q0 -31 -9.5 -48t-47.5 -28q-14 -3 -45 -4t-66 -1t-66 -0.5t-45 -1.5q1 -42 2 -88.5t0 -90t-3.5 -80t-7.5 -59.5q22 2 52 1.5t64 -2t70 -2t68.5 0.5t60 5.5t45.5 14.5q20 0 29 -7t9.5 -18.5t-5 -24.5t-14.5 -25l-377 -38q-8 -1 -18.5 4.5t-19.5 14.5
t-15 19t-4 19z" />
    <glyph glyph-name="F" unicode="F" horiz-adv-x="418" 
d="M50 0l2.5 87.5t2.5 114t0.5 128t-2.5 129.5t-7 118t-14 94q-14 12 -16.5 24.5t2 24.5t14 23.5t19.5 22.5q40 -3 84.5 -0.5t89 7.5t87 9.5t78.5 4.5q14 0 25.5 -6t11.5 -23q0 -14 -11 -23t-30 -15q-21 -7 -50.5 -10.5t-60.5 -5t-61 -2t-54 -1.5t-38.5 -3.5t-14.5 -7.5
l5 -272q29 -5 65.5 -4.5t73 6.5t70.5 17.5t58 28.5q12 0 18.5 -15.5t6.5 -27.5q0 -18 -21.5 -31.5t-54 -24t-70.5 -17.5t-70.5 -12.5t-54 -10t-21.5 -8.5l4 -319q-17 -9 -33 -12t-33 12z" />
    <glyph glyph-name="G" unicode="G" horiz-adv-x="604" 
d="M496 49q-23 -15 -48 -23t-51 -11.5t-53 -4t-53 -0.5q-53 0 -101.5 18.5t-85.5 52t-58.5 80.5t-21.5 105q-7 48 1.5 107t31 119t57 114.5t79.5 93.5t98 57.5t113 6.5q28 -9 43 -22t17.5 -25.5t-8 -22t-34.5 -11.5q-2 0 -26 2t-59 -4t-75.5 -24.5t-76.5 -60.5
q-26 -26 -43 -61.5t-26.5 -75.5t-13.5 -81t-4 -77q0 -53 10 -96.5t34 -74t63 -47.5t97 -17q30 0 65 2.5t64 13t48.5 32.5t19.5 61v33t-3.5 33.5t-13.5 26t-31 10.5q-25 0 -49 -6.5t-47 -14t-47 -14t-49 -6.5q-22 0 -35 7.5t-11 31.5q20 6 60.5 18.5t85.5 25.5t85.5 23
t60.5 10q12 0 27.5 -1.5t19.5 -19.5q7 -42 12.5 -90t8.5 -97.5t2.5 -98t-4.5 -91.5q-22 -14 -35.5 -13t-21.5 14t-12 37t-6 56z" />
    <glyph glyph-name="H" unicode="H" horiz-adv-x="511" 
d="M386 104q0 25 1 61.5t2.5 75.5t2.5 76t1 63q-2 0 -7.5 0.5t-7.5 0.5q-65 -8 -130 -11.5t-134 -14.5l-9 -292q16 -5 18 -15t2 -22q0 -39 -37 -39q-5 0 -15 0.5t-19.5 3t-16.5 6.5t-7 10l28 770q2 0 9.5 1t9.5 1q4 0 10.5 -0.5t12.5 -2.5t10 -6t4 -12v-321h227q22 0 36 12
t22 30t12 37.5t5 34.5q1 8 2.5 24t3 36.5t4 43t4 43t3 36.5t2.5 24q2 0 9.5 1t9.5 1q39 0 39 -37q0 -79 -6.5 -169t-13 -182.5t-11 -183t-0.5 -169.5q-2 -2 -7 -5.5t-11 -6.5t-11.5 -5t-8.5 -2q-12 0 -19.5 14t-11.5 32t-5.5 35t-1.5 23z" />
    <glyph glyph-name="I" unicode="I" horiz-adv-x="655" 
d="M245 94q16 69 24 138.5t11.5 140.5t3.5 142.5t-1 144.5q-33 -9 -62 -16.5t-57.5 -13t-59 -8t-65.5 -1.5q-11 8 -15.5 16.5t14.5 22.5q70 20 134.5 40.5t128.5 37t129.5 27t138.5 10.5q11 0 27 -8.5t21 -28.5q-14 -21 -38 -29.5t-51.5 -10.5t-56 -2t-52 -3.5t-40.5 -14.5
t-20 -36q-6 -71 -10.5 -138t-6.5 -133.5t-1.5 -134t3.5 -137.5q20 0 47.5 0.5t58 2t61.5 4.5t57 8h20t25.5 -2t21.5 -8t9 -18q0 -19 -21 -29q-15 -9 -57.5 -16.5t-97 -14.5t-114.5 -12t-111 -9t-86.5 -6.5t-40.5 -2.5q-30 3 -43.5 10.5t-15.5 17t4.5 19t15 17t15.5 11t7 1.5
z" />
    <glyph glyph-name="J" unicode="J" horiz-adv-x="449" 
d="M73 99q32 -16 60.5 -17.5t54.5 15.5q15 21 24.5 65t15.5 99.5t8.5 117.5t3 119.5t-0.5 104.5t-1 73q-8 6 -35 8.5t-59.5 4.5t-62 5t-41.5 10q0 13 1 25.5t5 22.5t13 16.5t24 6.5q14 -4 49.5 -7.5t82 -6t99 -4.5t101.5 -2.5t90 0.5t64 4q11 -5 15.5 -11.5t4.5 -16.5
q0 -5 -2.5 -12t-6 -14t-8.5 -12.5t-11 -6.5l-250 -7q-13 -46 -15 -114.5t-1.5 -144.5t-1.5 -150.5t-15 -133t-42.5 -92.5t-84.5 -28q-78 2 -116 20t-43.5 36.5t17 29t64.5 -2.5z" />
    <glyph glyph-name="K" unicode="K" horiz-adv-x="480" 
d="M68 3q2 -5 -6 -10.5t-19 -7t-21 2.5t-12 19q4 61 9 115t8.5 106.5t6 107.5t1.5 119t-6 140t-14 171q7 14 19.5 17.5t25 1.5t21.5 -8t9 -11l10 -341q39 8 80 44.5t79 88t69.5 110t50.5 111.5q17 18 33.5 10t21.5 -35q-7 -36 -28 -77.5t-49.5 -82.5t-61.5 -80t-64.5 -70
t-58.5 -52.5t-44 -27.5q37 -33 85.5 -72.5t96.5 -82.5t89.5 -88t64.5 -87q2 -11 -2 -21.5t-12.5 -15.5t-20 -3.5t-23.5 13.5q-30 32 -66.5 74.5t-77 85.5t-82.5 81t-84 61l-28 -306v0z" />
    <glyph glyph-name="L" unicode="L" horiz-adv-x="384" 
d="M28 57q5 79 7.5 166t2.5 174t-2.5 170.5t-8.5 156.5q-2 14 9.5 26.5t27 17.5t29.5 -0.5t19 -26.5q7 -45 7 -117t-3 -159.5t-8.5 -186t-10.5 -197.5l238 1q15 1 24.5 -10.5t12 -26t-2.5 -28t-20 -17.5q-28 11 -66 12.5t-78 0t-77 -3.5t-63.5 0.5t-37.5 13t1 34.5z" />
    <glyph glyph-name="M" unicode="M" horiz-adv-x="697" 
d="M574 65q8 68 14 130.5t10.5 124t6 125t0.5 134.5q-34 -68 -87 -110t-130 -42q-33 0 -70.5 6.5t-71 22t-59 41t-35.5 63.5l-48 -513q-2 -26 -10 -32.5t-25 -6.5q-14 0 -27 5.5t-13 22.5v11q1 23 5 73.5t9 114.5t10 134.5t10 134.5t8.5 114t5.5 74q-3 15 1 23t11.5 11.5
t17 4.5t17.5 1q4 0 14.5 -0.5t13.5 -1.5q21 -46 39.5 -90.5t44.5 -79t63.5 -55.5t97.5 -21q38 0 64.5 22t46.5 55t35.5 71t31 71t34 55t44.5 22q22 0 30 -29q-14 -63 -17.5 -131t-2 -137t4.5 -135t3 -126t-5.5 -110t-22.5 -86q-15 -16 -28 -20.5t-22.5 1t-14.5 20.5t-4 38z
" />
    <glyph glyph-name="N" unicode="N" horiz-adv-x="583" 
d="M38 0q1 156 -0.5 268.5t-2.5 190.5t-0.5 125.5t4.5 73t12.5 34t24.5 8.5q12 0 22 -2.5t15 -18.5q28 -54 64 -127.5t79 -151t90.5 -150.5t97.5 -125l52 608q10 27 23 35t25 7t20.5 -5.5l8.5 -4.5q-5 -14 -8 -29.5t-5.5 -43.5t-6 -74t-9 -120t-14 -181.5t-20.5 -259.5
q-2 -23 -21 -31.5t-36 -8.5q-28 0 -43 15.5t-33 42.5l-273 434v-490q0 -7 -6 -11t-13.5 -6t-15.5 -2.5t-12 -0.5q-2 0 -9.5 0.5t-9.5 0.5z" />
    <glyph glyph-name="O" unicode="O" horiz-adv-x="520" 
d="M26 241q0 33 7 84.5t21 109.5t36 116.5t52.5 105t69 76t86.5 29.5q41 0 72 -20t53.5 -53t37.5 -75t24 -85.5t13 -85t4 -72.5q0 -66 -23 -132.5t-65.5 -119.5t-102.5 -86.5t-133 -33.5q-44 0 -73 25.5t-46.5 63t-25 79t-7.5 74.5zM102 240q0 -31 3.5 -61t15 -53
t32.5 -37.5t56 -14.5q47 1 87 23t69.5 61t45.5 92.5t15 117.5q0 29 -1 64t-6 70t-15 68t-28 58.5t-45.5 41t-66.5 15.5q-22 0 -42.5 -27.5t-38.5 -70t-33 -94.5t-25.5 -101.5t-16.5 -90.5t-6 -61z" />
    <glyph glyph-name="P" unicode="P" horiz-adv-x="560" 
d="M70 603q-12 12 -24.5 30t-14.5 36q0 21 17.5 35t44.5 24t59.5 15.5t63 8.5t54 3.5t33.5 0.5q33 0 74 -6.5t77 -22.5t60.5 -43t24.5 -67q0 -46 -18 -82t-48 -64t-69 -48t-81 -33t-84.5 -21t-78.5 -11q0 -23 -1 -65.5t-2.5 -91.5t-5.5 -98t-10 -84q-7 -14 -18 -16.5t-22 2
t-19.5 13.5t-11.5 19v566zM292 699q-12 0 -34 -0.5t-44 -4t-38 -11.5t-16 -23v-230q22 0 54.5 3.5t68 11.5t71 21t64 32t46 45.5t17.5 60.5q0 29 -23.5 47.5t-54.5 29t-63 14.5t-48 4z" />
    <glyph glyph-name="Q" unicode="Q" horiz-adv-x="604" 
d="M379 16q-29 0 -57 -10t-57 -10q-63 0 -107.5 22.5t-73.5 62t-42.5 92.5t-13.5 113q-6 57 -1.5 117t19 115.5t39 104.5t59 84t78 53.5t97.5 14.5q59 0 108 -40.5t84 -105t54 -144.5t17 -159t-26.5 -148.5t-75.5 -112.5q0 -24 8 -43.5t13 -43.5q0 -29 -14 -35.5t-34 -6.5
q-22 0 -29 12.5t-11 27.5t-9.5 27.5t-24.5 12.5zM270 709q-43 -16 -75.5 -52t-55 -85t-34 -106.5t-12 -115t10 -111t32 -94.5t54.5 -66t77 -25q7 2 25 5.5t35.5 8.5t30.5 10.5t11 12.5q0 26 -12 49t-27 45.5t-27 45.5t-12 49q0 14 6.5 26t23.5 12q11 0 16.5 -4t12.5 -16
q4 -8 17 -33.5t27.5 -54.5t27 -54.5t16.5 -34.5q31 26 48.5 67t24.5 89t3 100.5t-17.5 103t-35 95t-50.5 76t-64.5 48t-76.5 9.5z" />
    <glyph glyph-name="R" unicode="R" horiz-adv-x="566" 
d="M105 483q0 16 -0.5 38t-2.5 44.5t-6 43t-11 33.5q-19 -9 -34 -7.5t-23.5 8t-9.5 17t10 19.5q19 30 57 53t85 36t98.5 15.5t98 -7t82.5 -33t53 -61.5q0 -38 -15 -71.5t-40.5 -63t-57.5 -54.5t-65.5 -46t-66.5 -38.5t-59 -31.5q0 -5 18 -19t46.5 -32.5t63 -39t66.5 -39
t57.5 -33.5t37.5 -21q40 -19 54.5 -29.5t14.5 -17t-9 -12t-16 -14.5q-57 0 -101.5 15.5t-84.5 39.5t-79.5 52.5t-86.5 55.5q-4 -27 -6 -62.5t-4.5 -71t-7 -68t-13.5 -54.5t-25 -29t-41 8zM179 453q36 9 79 29t80.5 48.5t62.5 64.5t25 79q-17 28 -48 39.5t-66.5 11.5
t-71 -8.5t-61.5 -18.5v-245z" />
    <glyph glyph-name="S" unicode="S" horiz-adv-x="475" 
d="M36 212q0 20 3.5 38t12.5 31.5t24 21t39 7.5q0 -15 -3.5 -29t-7.5 -27.5t-7.5 -28t-3.5 -29.5q0 -29 13.5 -55t35.5 -43.5t49 -24.5t53 1q57 12 81.5 33.5t25.5 50.5t-17 64t-45 74t-58.5 81t-58 84t-44 83t-15.5 79q0 43 30.5 71t74 44t91 22.5t81.5 6.5q14 0 25.5 -6
t11.5 -23t-17.5 -23.5t-44.5 -9.5t-57.5 -6t-57.5 -12t-44.5 -27.5t-17.5 -53.5q0 -10 4 -24.5t24 -49.5t62 -98.5t118 -169.5q24 -46 25 -92.5t-19.5 -84t-60.5 -62t-97 -25.5q-45 -5 -84.5 13t-68 49.5t-43.5 71.5t-12 78z" />
    <glyph glyph-name="T" unicode="T" 
d="M170 26q3 83 8 163.5t8.5 161t5 162t-2.5 166.5q-5 1 -19.5 2.5t-33.5 3t-40 4t-38 7.5t-28.5 12t-11.5 18q0 23 17.5 36t37.5 13q51 0 100 -10.5t100 -10.5q50 0 86 1.5t68.5 3.5t67.5 3.5t83 1.5q0 -32 -11 -49t-33.5 -22t-54.5 -10q-15 -3 -41.5 -3t-56 0.5t-56.5 0.5
t-42 -2q-9 -34 -15.5 -83.5t-10.5 -107t-6.5 -120t-4 -122t-2.5 -112t-2 -91.5q3 -8 -2.5 -21.5t-16 -21t-25 -4t-28.5 29.5z" />
    <glyph glyph-name="U" unicode="U" horiz-adv-x="528" 
d="M396 94q-80 -68 -138.5 -87.5t-99 -3t-65 63t-38.5 111.5t-19 142.5t-6 155.5t0 151.5t0 129.5q3 10 10.5 11t17 -1.5t19.5 -6.5t18 -5q6 -42 6 -103.5t-1 -131t0 -141t9.5 -131.5t26.5 -103t51.5 -57t84 8.5t124.5 92.5q-4 65 -6.5 138t-0.5 149t12 151.5t31 144.5
q17 0 33 0.5t24 -19.5q-15 -62 -23 -103t-11.5 -76t-3.5 -73.5v-95.5q0 -52 3.5 -103t8 -102t8.5 -102t4 -103q-19 0 -36 7.5t-28.5 21t-16 31.5t1.5 39z" />
    <glyph glyph-name="V" unicode="V" horiz-adv-x="613" 
d="M28 698q-5 17 4.5 28.5t22.5 11.5q21 0 40.5 -35t38 -89t36.5 -120.5t35 -129.5t34 -115.5t34 -78.5l246 566q6 16 14.5 18.5t22.5 2.5q2 0 9.5 -0.5t15 -2.5t12 -6t1.5 -12l-302 -717q-1 -2 -6 -5.5t-11 -6.5t-12 -5t-9 -2q-2 0 -9.5 7t-8.5 12l-208 679v0z" />
    <glyph glyph-name="W" unicode="W" horiz-adv-x="1042" 
d="M7 727q5 15 16 18t24 3q22 0 38.5 -38t30 -96t27 -128t29 -134t35.5 -114t47 -68l227 528q4 10 11 14t15 3t16 -6t14 -11q27 -61 60.5 -129.5t71 -137.5t77 -134t78.5 -120q23 12 35.5 56t24.5 117.5t28 176t45 231.5q2 12 9.5 15t16 1.5t17.5 -6.5t14 -10
q0 -73 -9.5 -148.5t-25 -152.5t-35.5 -154t-41 -152q-14 -26 -26.5 -46.5t-26 -28.5t-30 -0.5t-37.5 37.5l-277 468q-41 -120 -73 -207t-57 -147.5t-43.5 -98.5t-33 -60t-25.5 -32.5t-20 -16.5l-37 38q-19 37 -39 88.5t-40 110.5t-39 122.5t-36 125.5t-31.5 119.5
t-24.5 103.5z" />
    <glyph glyph-name="X" unicode="X" horiz-adv-x="622" 
d="M120 47q10 38 27 65t36 55.5t38 64t33 89.5q-14 15 -38 44.5t-52 67.5t-57 80.5t-52 84t-38 78t-15 62.5q23 25 41 28t32 -8q7 -25 22 -58.5t35 -71t43.5 -76.5t47 -74.5t45 -65.5t38.5 -50q20 19 42 52.5t45 73t47 80.5t48 74.5t48.5 54.5t48.5 21q17 0 23.5 -12.5
t4.5 -26.5q-11 -18 -31.5 -48t-45 -66.5t-51 -75.5t-50 -74.5t-41.5 -65.5t-26 -47q5 -17 22 -38.5t40 -45t49 -48t49 -47.5t39.5 -44t21.5 -37q-16 -21 -31 -28.5t-33 5.5l-195 207q-18 -14 -43 -51t-49.5 -76.5t-45 -70t-30.5 -30.5q-26 0 -34 13t-8 36z" />
    <glyph glyph-name="Y" unicode="Y" horiz-adv-x="566" 
d="M266 -33q-23 0 -36.5 18.5t-11.5 40.5q1 9 8 30.5t16.5 49t20 58.5t19 58.5t14 48.5t4.5 29q-45 58 -84 109.5t-73 104t-64 109.5t-57 125q3 10 9.5 14.5t14 5.5t16.5 0.5t17 -1.5q24 -52 50.5 -105.5t58 -104.5t68.5 -97.5t82 -84.5q42 104 71 174.5t47 116t28 69
t14.5 34t5.5 12t2 1.5q42 0 42 -41q0 -3 -1 -10t-1 -8l-272 -754q0 -1 -3 -1.5t-5 -0.5z" />
    <glyph glyph-name="Z" unicode="Z" horiz-adv-x="576" 
d="M38 41q8 10 27 37t40 57t39.5 56.5t25.5 37.5q11 18 33 56.5t48.5 86.5t54 100.5t49.5 99t35 82t11 50.5l-335 -14q-5 1 -11.5 9t-12.5 18t-10 18.5t-4 10.5q0 8 4 12t10 6t12 2h11h92.5h112.5h112t91 1q14 3 33 0.5t32 -10t14.5 -20.5t-19.5 -33q-47 -55 -94.5 -132.5
t-94.5 -163t-91 -172t-83 -158.5h245q6 12 12 16t17 4q13 0 28 -6.5t28 -17.5t21.5 -24.5t8.5 -27.5q0 -2 -0.5 -9.5t-1.5 -9.5q-16 -1 -50 -2.5t-76.5 -3t-90 -4t-90 -4t-77 -3t-50.5 -2.5h-11q-9 0 -16 6.5t-13 16t-10 19t-6 15.5z" />
    <glyph glyph-name="bracketleft" unicode="[" horiz-adv-x="506" 
d="M43 -84q-2 88 -4 164.5t-2.5 147t1 138t6 137.5t12 145.5t20.5 162.5q43 10 94 18.5t103.5 14t102.5 8.5t90 3q0 -33 -18.5 -51.5t-47.5 -27.5t-65.5 -11t-73 -2t-68.5 -1t-53 -7q-3 -42 -5.5 -100.5t-4 -127t-2.5 -144t-2.5 -150.5t-3 -146.5t-3.5 -133.5q49 -3 89 -1
t79 5.5t80 7t92 2.5q10 -3 16 -14t6.5 -23t-5 -23t-17.5 -15q-50 3 -89 0.5t-76 -6t-75.5 -7t-87.5 -3.5q-12 0 -25.5 -0.5t-26 2.5t-22 11.5t-14.5 26.5z" />
    <glyph glyph-name="backslash" unicode="\" horiz-adv-x="576" 
d="M519 -18q-25 37 -61.5 93.5t-79 124t-89 140.5t-91 142.5t-85 130t-70.5 103.5q-20 11 -16 26t18 24.5t31.5 9t23.5 -21.5q106 -165 181.5 -281.5t126.5 -195.5t80.5 -126t44.5 -73t19.5 -35.5t4.5 -14.5v-8q-2 -3 -7.5 -8.5l-11.5 -11.5t-11.5 -11t-7.5 -7z" />
    <glyph glyph-name="bracketright" unicode="]" horiz-adv-x="508" 
d="M74 -46q0 4 1 15t2 13q20 1 61.5 2.5t88 5.5t88.5 11t64 19v11t0.5 17t0.5 17.5v11.5q-2 40 -4.5 102t-6.5 134t-8 147t-9 141t-9.5 116t-9.5 72q-13 1 -37 0t-51 -2t-51 -2t-37 1q-2 0 -20 1t-39 5.5t-38 14t-17 26.5q0 13 6.5 19.5t16 8.5t20 2h18.5q86 0 161 3.5
t143 -1.5q27 -119 33 -229.5t7 -221t3 -224t22 -236.5v-9q-38 -6 -84 -12.5t-92.5 -12.5t-91.5 -9.5t-82 -3.5q-27 0 -38 11.5t-11 35.5z" />
    <glyph glyph-name="asciicircum" unicode="^" horiz-adv-x="497" 
d="M83 316q0 5 -0.5 9.5t0.5 9.5q20 44 34.5 66.5t26 38.5t22 33.5t23.5 51.5q2 9 10 16.5t18.5 11t20.5 3t16 -8.5l166 -166q2 -23 -5.5 -34.5t-19.5 -15t-26 -2.5t-24 3q-10 9 -24.5 25t-29.5 34t-29.5 34.5t-23.5 26.5l-80 -155q-10 -8 -22.5 -13.5t-23.5 -5t-19.5 8.5
t-9.5 29z" />
    <glyph glyph-name="underscore" unicode="_" horiz-adv-x="597" 
d="M38 75q74 -2 122 -1.5t83 2.5t63.5 5t63 5.5t82 4t120.5 1.5q0 -30 -7 -46t-20 -23.5t-31.5 -9.5t-42.5 -3q-34 -3 -74 -4.5t-82 -3t-83.5 -3t-79.5 -4.5q-53 5 -80 13t-36.5 18t-6.5 22.5t9 26.5z" />
    <glyph glyph-name="grave" unicode="`" horiz-adv-x="234" 
d="M27 704q-6 13 -5.5 26t7 22t18 13t28.5 -1l143 -107q4 -25 -7.5 -41t-34.5 -14q-17 9 -36.5 23.5t-39.5 29.5t-39 28.5t-34 20.5z" />
    <glyph glyph-name="a" unicode="a" horiz-adv-x="512" 
d="M26 263q-2 20 3.5 53.5t17.5 71.5t30 77t42 70.5t52 51t61 19.5q65 6 105.5 -25.5t66.5 -86.5l-3 -308q0 -22 14 -37.5t34 -25.5t43.5 -14.5t42.5 -4.5q14 1 20 -10t5.5 -24.5t-7 -25.5t-16.5 -13q-44 1 -75 8t-53 21.5t-38 36t-30 50.5q-12 -22 -29.5 -48t-40 -48
t-48 -37t-53.5 -15q-47 0 -75.5 28.5t-43.5 69.5t-20 86.5t-5 79.5zM99 255q0 -17 3 -47t11.5 -60t24 -52t41.5 -22q29 -3 49 15.5t36 54.5t31 87t33 114q12 76 0 119.5t-37.5 59t-58.5 4t-62.5 -47t-50 -92.5t-20.5 -133z" />
    <glyph glyph-name="b" unicode="b" horiz-adv-x="454" 
d="M34 758q12 13 24 17.5t22 2.5t16.5 -9.5t8.5 -19.5v-40v-60v-61.5v-43.5q79 44 138.5 45.5t99 -26t61 -78.5t25.5 -111.5t-9 -124t-41 -117t-71 -90.5t-100 -44q-6 0 -20.5 -1t-33 -2t-38.5 -1.5t-37 1.5t-28 6t-11 12zM105 410q-3 -41 -3 -85t2.5 -87.5t5.5 -85t6 -77.5
h14.5t22.5 -0.5t23 -0.5h15q44 1 77.5 31t53.5 75t26.5 98.5t-1.5 102t-32 85t-64 47.5q-28 0 -53 -5t-45 -16.5t-32.5 -31.5t-15.5 -50z" />
    <glyph glyph-name="c" unicode="c" horiz-adv-x="396" 
d="M27 348q0 34 5.5 76.5t22 79.5t45.5 62t77 25q30 0 56.5 -11t46 -31t31 -47t11.5 -58q-28 0 -44 11t-29 24.5t-25.5 24.5t-32.5 11q-36 0 -54 -18t-26 -44t-8.5 -54.5t-0.5 -50.5t2.5 -51t9.5 -59.5t18 -59.5t28 -52t40.5 -37t54.5 -14q16 0 28 6.5t23.5 15t24 15
t28.5 6.5q0 -24 -12.5 -46t-31.5 -38t-43 -25.5t-46 -9.5q-35 0 -63.5 19t-50.5 49t-38 68t-26.5 77t-15.5 74.5t-5 61.5z" />
    <glyph glyph-name="d" unicode="d" horiz-adv-x="437" 
d="M18 292q0 39 9.5 90t31 97.5t55.5 78.5t83 32q18 0 36 -4.5t35 -11.5t30.5 -16t22.5 -19q0 45 -0.5 76.5t0.5 57t3 48.5t5 52q6 5 18.5 8.5t25.5 2.5t22.5 -7.5t10.5 -20.5q-7 -16 -10.5 -55.5t-5 -93t-1 -116.5t2 -126.5t4.5 -123t6 -106.5t6.5 -76.5t5.5 -32.5
q0 -17 -12.5 -22.5t-26.5 -5.5q-23 0 -31.5 21.5t-3.5 55.5q-10 -13 -25.5 -26t-33.5 -24t-37 -18t-36 -7q-51 0 -87.5 30.5t-59 75.5t-33 95.5t-10.5 90.5zM93 298q0 -27 2.5 -65.5t14 -73.5t34.5 -59.5t64 -24.5q40 3 65 37.5t36.5 83.5t10 105t-13.5 103.5t-34.5 77.5
t-53.5 28q-38 0 -62 -23.5t-38 -56.5t-19.5 -69.5t-5.5 -62.5z" />
    <glyph glyph-name="e" unicode="e" horiz-adv-x="465" 
d="M-41 461q0 12 6.5 20.5t15 12t17.5 1.5t15 -10q8 -56 20.5 -80.5t26 -33t25.5 -7.5t19 -2q3 55 14.5 100.5t36 77.5t64.5 49.5t101 16.5q46 0 77.5 -21t31.5 -71q0 -55 -22.5 -90t-59 -58t-81.5 -37t-90 -27q0 -2 1 -10.5t1.5 -18t1.5 -18t1 -10.5q6 -71 28 -109.5
t51.5 -55t63 -16.5t62 6.5t47.5 13t20 2.5q5 -13 1 -28t-20.5 -28t-48.5 -21.5t-82 -9.5q-43 0 -73 13t-51 35.5t-33.5 52t-20.5 62.5t-14 66.5t-12 64.5q-26 -4 -47 5t-37.5 25.5t-28.5 37t-19 40.5t-9 36.5t1 23.5zM174 375q31 -2 67 10.5t66 32t49 42.5t16 43
q-2 18 -15 31.5t-42 13.5q-35 0 -61 -15t-44 -39.5t-27 -55.5t-9 -63z" />
    <glyph glyph-name="f" unicode="f" horiz-adv-x="431" 
d="M20 359q-6 6 -8 16.5t-0.5 20t6.5 15.5t13 3l124 11q0 55 5.5 112t18.5 106t34.5 85t54.5 48q32 8 52 -6.5t32 -38.5t17.5 -49.5t7.5 -39.5q0 -12 -10 -16t-18 -4q-11 1 -18.5 15t-14.5 30.5t-15 29t-21 9.5q-14 -4 -26 -32.5t-19.5 -69t-8 -87.5t10.5 -87q29 0 60 4
t62.5 9.5t63 9.5t60.5 4q3 -21 -8 -34t-31 -21.5t-47 -13t-56 -7.5l-58 -6t-53 -8q-5 -55 -2.5 -104.5t7.5 -93.5t9.5 -82.5t4.5 -72.5q-2 -15 -9.5 -23.5t-18 -10t-21.5 5t-19 21.5q-8 37 -10 78.5t-2.5 85.5t-1.5 92t-5 99z" />
    <glyph glyph-name="g" unicode="g" horiz-adv-x="393" 
d="M83 -190q-4 12 -1 24.5t10.5 22t18 14t19.5 1.5q28 -35 53 -43.5t45.5 1.5t36 34.5t25.5 55t13 63.5t-1 60q-17 -27 -52 -43t-69 -13q-50 0 -81.5 22.5t-49.5 58t-24.5 80t-6.5 88.5q0 18 5 58t16 88t28.5 96t43.5 81q25 33 57.5 41t66 0.5t66.5 -26t60 -39.5
q5 -8 10 -41.5t9.5 -84t6 -113.5t-0.5 -129.5t-10 -131.5t-22.5 -120.5t-37.5 -96t-56 -58t-77 -7.5t-101 57zM93 234q0 -22 1.5 -49.5t9 -52t24.5 -41.5t49 -17q17 0 39 7.5t41 20t32 30t13 38.5v296q-35 40 -63 53.5t-49.5 7t-37.5 -28.5t-27 -52t-18 -64t-10.5 -64
t-4 -53t0.5 -31z" />
    <glyph glyph-name="h" unicode="h" horiz-adv-x="496" 
d="M378 38q1 16 1 56v85v85.5t-1 56.5q-9 75 -35.5 109t-65 39.5t-84.5 -11.5t-94 -44l2 -388q-6 -8 -14 -15t-18 -9t-20 2.5t-20 19.5l-5 730q0 11 10 14.5t22.5 2t23.5 -7t14 -12.5l-3 -263q12 4 40 17.5t64.5 25t77 15.5t76.5 -11q35 -18 56.5 -53t33.5 -78.5t16.5 -91.5
t4.5 -93t-2.5 -83t-4.5 -61l38 -37q-4 -17 -20.5 -26.5t-35 -10.5t-35.5 8t-22 29z" />
    <glyph glyph-name="i" unicode="i" horiz-adv-x="151" 
d="M36 551q4 15 14 23t21 10t19.5 -2t10.5 -12q1 -58 0.5 -127t-1 -141t1 -142.5t7.5 -132.5q-2 -12 -11 -21t-20.5 -12t-23 2t-18.5 21v534zM73 764q21 0 30 -10t9 -29q0 -15 -10.5 -24t-24.5 -13.5t-28 -6t-21 -1.5q0 15 0.5 30t4.5 27t13 19.5t27 7.5z" />
    <glyph glyph-name="j" unicode="j" horiz-adv-x="159" 
d="M-102 -191q41 -6 68.5 -4t44.5 15.5t24 39.5t8 68q6 69 4 136.5t-6 135t-6.5 134.5t4.5 135q0 3 1.5 9.5t7.5 12.5t17.5 8.5t32.5 -1.5q18 -70 24.5 -145.5t6.5 -152.5t-5 -154.5t-11 -152.5q-3 -36 -8.5 -64.5t-19 -47.5t-37.5 -29t-64 -10q-17 0 -33 2.5t-28 9.5
t-19 20t-6 35zM18 749q14 24 26.5 31.5t32.5 7.5q27 -9 36 -23.5t6 -28.5t-16 -24t-28.5 -11.5t-31 9.5t-25.5 39z" />
    <glyph glyph-name="k" unicode="k" horiz-adv-x="474" 
d="M10 43q14 85 17.5 176t3 181.5t-3.5 178.5t-1 168q0 14 8.5 21t19.5 8.5t21 -3t12 -14.5q5 -128 10.5 -201t10 -109t7.5 -45t4 -9q24 23 38 36.5t26 24.5t25.5 23.5t36 33.5t58.5 54.5t92 86.5q8 7 16 4t12 -13t2 -25t-14 -31l-270 -282q36 -46 82.5 -85.5t89.5 -68.5
t75 -47t40 -21q25 -6 32.5 -16t5 -20t-11.5 -16.5t-17 -5.5q-44 1 -93 22t-94 53t-83.5 71.5t-61.5 77.5q0 -4 0.5 -20.5t0 -40t-2 -50.5t-6 -52.5t-11.5 -46t-18 -29.5q-23 -20 -36.5 -9.5t-21.5 40.5z" />
    <glyph glyph-name="l" unicode="l" horiz-adv-x="130" 
d="M40 14q2 69 0 159t-5 187l-6 194t-3 181q-2 11 7 21.5t20.5 15t22.5 0t13 -22.5q5 -158 8.5 -274.5t6 -199t4.5 -134.5t3.5 -82t2.5 -42t3 -13q-12 -10 -25.5 -13.5t-25 -2t-19 8t-7.5 17.5z" />
    <glyph glyph-name="m" unicode="m" horiz-adv-x="756" 
d="M353 462q-36 31 -73.5 21.5t-68 -44.5t-51 -87.5t-22.5 -106.5q0 -25 -1 -53.5t-1 -58t2.5 -59t9.5 -56.5q-4 -12 -13 -21t-20 -12.5t-22.5 0t-20.5 15.5q-2 15 -6 51.5t-9 83.5t-9.5 99t-9 98.5t-8 83t-4.5 52.5q-1 5 -2 19.5t-2 30.5t-1.5 30.5t-0.5 19.5
q39 18 54 11.5t20.5 -28.5t8.5 -54.5t17 -66.5q12 15 29 36t41 41t55 34t71 16q23 6 40.5 0t31 -17.5t23 -26t17.5 -25.5q17 27 42.5 46.5t54 31t58 13.5t54.5 -5t43 -24t25 -45q9 -23 15.5 -64.5t10.5 -91t6 -102t2 -98t-1 -79t-3 -44.5q1 -13 -11.5 -18.5t-28.5 -5.5
t-30 5t-15 14q2 17 6 54t7 83.5t3.5 98t-4.5 99.5t-17 87.5t-34 61.5q-20 12 -48.5 4t-54.5 -26t-44.5 -43t-18.5 -47q0 -41 4 -84t9 -84t9 -78t4 -65t-17.5 -35.5t-43.5 -7.5q-8 3 -12.5 32.5t-7.5 72.5t-5 93.5t-5.5 96.5t-10 81t-16.5 47z" />
    <glyph glyph-name="n" unicode="n" horiz-adv-x="491" 
d="M24 572q-1 11 8 15.5t22 6t25.5 0t19.5 -2.5q-1 -7 -1 -23.5t1 -38.5t3.5 -45.5t6.5 -43.5q19 16 44.5 39t54 44t59 35.5t59.5 14.5q33 0 56 -17t39 -43t24.5 -56t12.5 -55q1 -5 1.5 -28.5t1 -57.5t1 -74t2 -77.5t3 -69.5t3.5 -49v-11q0 -17 -12 -22.5t-26 -5.5
q-12 0 -22.5 2t-15.5 18q-1 12 -1.5 41t-1.5 67t-1.5 79.5t-1.5 79.5t-2.5 67t-3.5 41q-2 14 -7 31t-14 31.5t-22 24.5t-31 10q-29 0 -58 -20t-55 -46t-46.5 -51t-30.5 -36q0 -30 -1 -68t-2.5 -78t-2.5 -79t0 -70q0 -10 -0.5 -19.5t-4 -18t-11.5 -14.5t-23 -10q-8 -2 -22 5
t-15 14l-12 564v0z" />
    <glyph glyph-name="o" unicode="o" horiz-adv-x="425" 
d="M17 179q-5 25 -3.5 67t9 89.5t22.5 95.5t38 85.5t55 58.5t73 15q61 0 99 -17.5t59.5 -49t31 -74.5t12.5 -94q5 -33 2 -73.5t-14 -81.5t-30 -78.5t-45.5 -66t-61 -44.5t-76.5 -12q-41 0 -73 13.5t-53.5 37.5t-33 57t-11.5 72zM87 213q0 -26 3.5 -50.5t14 -44.5t29 -32
t48.5 -12q40 0 70.5 32t51.5 77t31.5 92t10.5 77q0 49 -11.5 83t-28.5 55t-37.5 30.5t-38.5 11.5q-23 0 -43 -18t-36.5 -46.5t-29 -64t-20.5 -71t-11.5 -67t-2.5 -52.5z" />
    <glyph glyph-name="p" unicode="p" horiz-adv-x="414" 
d="M69 499q-5 -11 -11.5 -15t-16.5 -4q-17 0 -27 12t-20 26q22 22 44.5 34.5t41.5 19t33.5 8t22.5 1.5q50 0 96 -7t81.5 -27t57 -55.5t21.5 -91.5q-9 -90 -33.5 -154t-58 -105.5t-72 -64t-74.5 -29.5l-2 -281q0 -9 -12.5 -14.5t-28 -4.5t-28.5 10t-14 28v714zM143 133
q33 -2 63.5 18.5t54.5 56t39 83.5t17 101q0 34 -13.5 57t-36 37t-53 20t-64.5 6z" />
    <glyph glyph-name="q" unicode="q" horiz-adv-x="457" 
d="M343 -223q2 45 5.5 86.5t5.5 82.5t0.5 82.5t-8.5 85.5q-13 -17 -32 -35.5t-41 -34t-45 -25.5t-43 -10q-48 0 -77.5 13.5t-45.5 39t-21 61.5t-5 80q0 54 21 115.5t58.5 114.5t88.5 88t110 35q34 4 56 -25t35 -80t18.5 -118t6.5 -138.5t-1.5 -142.5t-5.5 -129t-5 -98.5
t0 -51.5q1 -20 -9 -27.5t-23.5 -5.5t-26 12t-16.5 25zM104 207q-5 -68 10.5 -101t42 -38.5t59 10.5t61.5 44.5t49 65.5t22 73q2 45 0.5 84t-10 67.5t-25.5 45t-46 16.5q-17 0 -36 -15.5t-37 -39.5t-34.5 -54t-29 -60t-19.5 -56t-7 -42z" />
    <glyph glyph-name="r" unicode="r" horiz-adv-x="401" 
d="M47 19q2 51 1 121t-4.5 144t-9.5 144.5t-13 122.5q0 17 12.5 23.5t26.5 6.5q10 0 17 -4.5t12.5 -10.5t11 -13t14.5 -12q15 17 39.5 27.5t53 15t58.5 4t55.5 -6t43.5 -15.5t24 -23q-12 -27 -24.5 -33.5t-28.5 -4.5t-38 6.5t-54 -1.5q-46 -1 -73 -30t-41 -74.5t-18 -102
t-2 -112t6 -105.5t6 -82q-8 -8 -19.5 -13.5t-22.5 -4.5t-20.5 8.5t-12.5 24.5z" />
    <glyph glyph-name="s" unicode="s" horiz-adv-x="300" 
d="M6 119q12 36 20.5 45t15 2.5t14 -23.5t19 -33.5t28 -27.5t42.5 -5q17 8 29 22t10 27q-6 32 -28 61.5t-47 58.5t-47 58t-28 61q-5 23 -2 58.5t14.5 69.5t31 59.5t48.5 29.5q47 -2 81 -12t52 -23.5t19 -29.5t-18 -30q-39 7 -71 9t-53 -8t-29 -36.5t2 -77.5q7 -33 30.5 -62
t50.5 -57.5t50.5 -58t30.5 -62.5q5 -27 -6.5 -50t-33 -40.5t-50 -29t-56.5 -15.5q-22 -3 -43 7t-37.5 28t-27 40.5t-11.5 44.5z" />
    <glyph glyph-name="t" unicode="t" horiz-adv-x="406" 
d="M18 442q0 2 -1 9.5t-1 9.5q0 24 12.5 31.5t34.5 7.5t45.5 -6t42.5 -5.5t29.5 14t7.5 53.5q1 13 1 40v57v57t-1 41q3 9 11.5 14.5t18.5 7.5t20 2.5t16 0.5v-293q30 0 58.5 5.5t56.5 12.5t55.5 12.5t56.5 5.5q16 0 31.5 -4t15.5 -25q0 -19 -17 -32t-43 -22t-58 -14.5
t-62.5 -8.5t-56 -4t-37.5 -1l1 -389q-2 -11 -13.5 -15.5t-26 -2t-28 11.5t-17.5 25q0 108 1 179.5t1.5 115t0 61.5t-2.5 19q-8 3 -29.5 7t-46.5 8.5t-47 8.5t-29 5z" />
    <glyph glyph-name="u" unicode="u" horiz-adv-x="462" 
d="M217 0q-49 3 -83.5 35t-57 81.5t-34 110t-14 120t2.5 112.5t16 88q2 0 9.5 1t9.5 1q12 0 22 -2.5t15 -18.5q-8 -102 0.5 -197.5t41.5 -190.5q21 -42 44 -52.5t45.5 2t43.5 43.5t39 72t31.5 87.5t21 89.5t8 79t-8.5 55q0 2 -3 10.5t-6 18t-6 18t-3 10.5q0 11 10 15t18 4
q30 -13 46 -44t19.5 -74.5t-3.5 -94.5t-22 -102.5t-37 -100t-48.5 -86.5t-56.5 -62.5t-60 -27.5z" />
    <glyph glyph-name="v" unicode="v" horiz-adv-x="509" 
d="M8 587q6 0 16 -1t20.5 -3.5t19 -7t11.5 -10.5l166 -425l170 388q2 3 7 9t11 12t11.5 10.5t8.5 5.5q13 3 20.5 0.5t12 -8.5t6 -13.5t1.5 -14.5q0 -1 -2 -8t-9 -25.5t-20.5 -52.5t-36.5 -90.5t-57 -138t-81 -195.5q-2 -5 -9 -12t-10 -7q-18 0 -38.5 23t-41.5 61t-42.5 87
t-41 101t-36.5 104t-29.5 95.5t-19.5 74t-7 41.5z" />
    <glyph glyph-name="w" unicode="w" horiz-adv-x="790" 
d="M22 542q24 13 40.5 10t27.5 -14t17 -26.5t9 -25.5q4 -11 12 -37t18.5 -59.5t21.5 -70.5t20.5 -70.5t17.5 -60t11 -37.5q6 12 18 37t27 56.5t31.5 66.5t31.5 66.5t26.5 57t16.5 37.5q7 17 9 34t6.5 30.5t15.5 22t35 8.5q15 0 23.5 -11t13 -26t6.5 -31.5t4 -26.5
q2 -11 7.5 -35.5t12.5 -56t15 -66.5t15.5 -66.5t13.5 -56t8 -34.5q28 42 47 95.5t33 111.5t25.5 115t24.5 105q3 0 14 0.5t15 0.5q20 0 34.5 -2.5t31.5 -17.5l-206 -522q-6 -11 -11.5 -15t-16.5 -4q-21 0 -36 23.5t-26.5 59.5t-20 78t-17 79t-18 63.5t-21.5 30.5l-19 -18
l-150 -321q-2 -5 -9.5 -12t-9.5 -7q-14 0 -26.5 7t-20.5 18t-11 24.5t1 25.5z" />
    <glyph glyph-name="x" unicode="x" horiz-adv-x="481" 
d="M94 -1q-12 0 -18 6t-8.5 14.5t-2.5 18.5t1 19q9 18 25.5 47.5t34 60.5t33 57.5t21.5 40.5q0 30 -22 64.5t-49.5 70.5t-52.5 71t-32 67q0 14 6 26.5t23 12.5q20 0 36.5 -16t31.5 -40t29 -52.5t29 -52.5t31 -40t36 -16q19 0 36 16t32.5 40t29.5 52.5t28.5 52.5t28.5 40
t29 16q22 0 31.5 -9.5t9.5 -24t-6.5 -31t-15.5 -29.5q-4 -6 -14.5 -21.5t-24.5 -35.5t-29.5 -42.5t-29.5 -42.5t-25 -35.5t-15 -20.5q0 -36 17 -63.5t38 -54t39.5 -55t21.5 -65.5q-16 -25 -28 -28t-24 8t-25 32.5t-29 45.5t-36.5 47.5t-48.5 38.5q-12 -14 -29.5 -43.5
t-37.5 -60t-40 -55.5t-35 -31z" />
    <glyph glyph-name="y" unicode="y" horiz-adv-x="524" 
d="M135 -239q18 69 47.5 146.5t58.5 150.5q-27 59 -51 107.5t-49 101t-53.5 115.5t-64.5 152q0 16 4 31.5t25 15.5q11 0 16.5 -4.5t11.5 -15.5l198 -380l169 396q5 11 12 15.5t17 4.5q13 -1 20 -9t9.5 -20t2 -24.5t-3.5 -22.5l-294 -760q-8 -14 -21 -20.5t-25 -6t-20.5 7.5
t-8.5 19z" />
    <glyph glyph-name="z" unicode="z" horiz-adv-x="505" 
d="M75 -1q-26 0 -40.5 16t-6.5 42l350 448h-226q-23 0 -32 11.5t-9.5 25.5t6.5 25.5t16 12.5h321q31 -5 38 -22t-0.5 -37t-24 -40.5t-32.5 -32.5q-46 -41 -86 -86t-77 -93t-72 -98t-71 -102q30 0 69 4.5t80 10t81 10.5t72 5h24.5t20.5 -3.5t14 -11.5t5 -24q0 -10 -5 -20
t-13.5 -18t-19 -13t-21.5 -5q-44 11 -91 9.5t-93.5 -7t-91.5 -9.5t-85 2z" />
    <glyph glyph-name="braceleft" unicode="{" horiz-adv-x="418" 
d="M322 -185q-67 2 -107 27t-57.5 63.5t-16 88t16.5 101t41.5 101.5t58.5 91q-3 9 -14 13.5t-22.5 9t-21 10.5t-9 19t14.5 34.5t48 56.5q-91 12 -136.5 45.5t-56 77.5t7.5 94t53.5 94t83.5 77.5t96 45.5q45 1 54.5 -17t2.5 -43q-42 -13 -81.5 -26t-69.5 -35.5t-47.5 -58.5
t-15.5 -94q0 -29 16 -47t39.5 -29t51.5 -18t51.5 -12.5t39.5 -12.5t16 -19l-9.5 -10t-20.5 -24.5t-20 -31t-8 -30t16 -21t52 -3.5q-35 -53 -61.5 -90.5t-44.5 -74.5t-27.5 -80.5t-9.5 -109.5q3 -36 17.5 -55t33 -29t36 -14t27.5 -10t7 -18t-25 -36z" />
    <glyph glyph-name="bar" unicode="|" horiz-adv-x="225" 
d="M89 725q1 24 13 33.5t25 7t23 -13.5t9 -27l-9 -749q-8 -12 -19 -19t-21 -6t-18 10t-10 27z" />
    <glyph glyph-name="braceright" unicode="}" horiz-adv-x="348" 
d="M108 -181q-28 25 -33 38.5t4.5 20.5t28 12t37 14.5t32.5 26.5t14 49q0 65 -9 110.5t-26 84.5t-41 78t-54 92q31 -4 44 3.5t14 21t-6.5 29.5t-17 30.5t-18 24.5l-8.5 10q0 12 14.5 19t36 12.5t46 12.5t45 18t33.5 29t10 46q-5 50 -29 83.5t-55.5 54.5t-64.5 31t-55 13
q-8 28 -6 44.5t9.5 24t20 8.5t27.5 0q42 -20 84.5 -56.5t75.5 -80.5t50.5 -90.5t10 -86.5t-45.5 -68t-116 -36q29 -35 41 -56.5t12.5 -34t-7.5 -18.5t-18 -10.5t-19 -9t-12 -13.5q27 -41 50.5 -91.5t37.5 -103t16 -103t-12.5 -90.5t-48.5 -65.5t-92 -27.5z" />
    <glyph glyph-name="asciitilde" unicode="~" horiz-adv-x="481" 
d="M22 310q8 22 16 50.5t19 54t28 43.5t43 18q15 0 35 -2.5t45.5 -15t58 -38t72.5 -70.5q31 -15 44.5 -5t17 30t0.5 43t-3 35q5 10 15 15t21 4t20 -9t13 -24q2 -35 -1.5 -66.5t-17 -54t-38.5 -34.5t-66 -7q-25 3 -44.5 15t-35.5 27.5t-30 33.5t-28.5 32.5t-30 24.5t-34.5 10
q-27 -11 -36.5 -29t-11 -36.5t1 -34t-0.5 -21.5q-7 -13 -19 -18.5t-23.5 -3.5t-20 10.5t-9.5 22.5z" />
    <glyph glyph-name="exclamdown" unicode="&#xa1;" horiz-adv-x="212" 
d="M108 690.005q7 5.99902 14 16.999q7 10.999 10.5 21.998q3.5 11 2.5 20.999t-8 13.999t-22.5 0.5t-40.5 -18.499q-8 -15.999 -5.5 -27.498t10 -18.499t18.5 -9.49902q11 -2.5 21 -0.5zM83 28.0449q7 -21.999 17.5 -30.998t20 -8.49902q9.5 0.499023 17 6.99902
t10.5 15.499q-11 103.994 -14.5 179.989t-4.5 138.491t-2 119.993q-1 57.4961 -5 123.492q-2 17.999 -9.5 26.998q-7.5 9 -16.5 9.5t-16.5 -7.5q-7.5 -7.99902 -9.5 -23.998q1 -58.9971 2 -100.994t2.5 -76.9951t2.5 -68.4961t2 -74.9951q1 -41.498 2 -95.9941
q1 -54.4971 2 -132.492z" />
    <glyph glyph-name="cent" unicode="&#xa2;" horiz-adv-x="388" 
d="M220 -99q-2 16 -3 25t-2.5 16t-2.5 14.5t-2 21.5h-5q-35 0 -62 20.5t-47 53t-33 73.5t-21 82t-11.5 78t-3.5 63q0 31 4 76.5t17 89.5t36.5 79t61.5 46q-2 16 -2 27t-0.5 21.5t-1 23.5t-1.5 34v12q0 17 13 22.5t27 5.5q24 0 28 -12.5t7 -46.5q2 -19 2.5 -30t1 -19.5
t1 -17.5t2.5 -24q43 -15 70 -52t27 -87q-17 0 -30 4.5t-22.5 11.5t-17.5 15t-15 16q9 -65 17 -118.5t14.5 -106t11 -109t7.5 -126.5q18 9 34.5 22t39.5 13q42 -21 23 -50t-94 -58q0 -25 0.5 -52t0.5 -57q-2 -27 -11 -41t-20 -14t-21.5 13.5t-16.5 41.5zM102 348
q0 -28 4.5 -66t15.5 -75.5t30 -69.5t49 -48q-6 71 -12 128.5t-12 111.5t-12 108.5t-12 119.5q-21 -13 -32 -40.5t-15 -59t-4 -61.5v-48z" />
    <glyph glyph-name="sterling" unicode="&#xa3;" horiz-adv-x="809" 
d="M116 336q0 26 -8 40t-21.5 20.5t-30.5 9t-36 5t-38.5 8.5t-36.5 20q7 21 29.5 29t49.5 9t54 -1.5t44 -2.5q0 15 -1 34t-1.5 39t-1 39.5t0.5 34.5q2 30 14 60.5t32.5 55t47 40t57.5 15.5q35 -9 69 -32t62 -55t46 -70t21 -77q-24 0 -42 11.5t-32.5 29.5t-27 38t-25 38
t-27.5 29.5t-34 11.5q-17 0 -32.5 -9t-27.5 -23t-19 -30.5t-7 -32.5l-4 -143h232q0 -25 -13 -40t-33.5 -23t-46 -10.5t-51.5 -2.5t-49 1.5t-39 1.5l-29 -211q70 -1 120.5 -14.5t87.5 -32.5t63.5 -38.5t48.5 -32t43 -12.5t47.5 19.5t60.5 63.5t83 121q0 1 3.5 1.5t4.5 0.5
q12 0 21 -5.5t16 -14.5t10.5 -19.5t3.5 -20.5q0 -4 -0.5 -10.5t-1.5 -7.5l-166 -178q-55 -21 -101.5 -12.5t-91.5 30t-92 47t-103 39.5q-26 9 -42 -3.5t-24 -33.5t-9.5 -43.5t0.5 -32.5q-2 0 -9.5 -1t-9.5 -1q-9 -4 -20 -3.5t-20.5 5t-15.5 12t-3 17.5z" />
    <glyph glyph-name="yen" unicode="&#xa5;" horiz-adv-x="522" 
d="M418 182q15 -5 18 -16t3 -23q0 -10 -10.5 -17.5t-28.5 -12.5t-42 -8t-50 -4l-1 -142q0 -1 -3 -1.5t-5 -0.5q-12 0 -24 1.5t-21.5 5t-15 10.5t-4.5 18q2 8 1.5 37.5t-1.5 69.5q-42 0 -76 1t-45 1q-13 22 -8 36t22.5 22.5t44.5 12t59 4.5q-1 28 -1.5 55t-2.5 53
q-39 -3 -72.5 -5.5t-47.5 -3.5q-15 7 -18 18.5t1.5 22.5t14.5 20.5t21 13.5q11 1 38 3t59 4q-1 14 -1.5 25t-0.5 16q-30 39 -51.5 67t-38.5 51.5t-30 45.5t-26 47.5t-26.5 58t-31.5 78.5q3 10 9.5 14.5t14 5.5t16.5 0.5t17 -1.5q24 -52 40 -86t34.5 -64t45 -61.5t70.5 -78.5
q52 97 86 156.5t55 92.5t32.5 44.5t19.5 11.5q42 0 42 -41q0 -1 -14 -26t-34.5 -62t-45 -79.5t-45 -79.5t-34.5 -61.5l-14 -24.5l-1 -43q26 2 47 3.5t32 2.5h11q17 0 23 -12.5t6 -26.5q0 -12 -5.5 -19t-14 -10.5t-19 -4.5t-20.5 -2q-8 -1 -24.5 -2t-36.5 -3l-1 -112
q31 0 59.5 0.5t49.5 4.5z" />
    <glyph glyph-name="dieresis" unicode="&#xa8;" horiz-adv-x="406" 
d="M71 712q7 0 21 0.5t28 -2.5t24.5 -10.5t10.5 -22.5q0 -7 -1.5 -15.5t-4.5 -16t-8.5 -12.5t-14.5 -5q-15 0 -25 9t-17 22t-10 27.5t-3 25.5zM213 712q7 0 21 0.5t28 -2.5t24.5 -10.5t10.5 -22.5q0 -7 -1.5 -15.5t-4.5 -16t-8.5 -12.5t-14.5 -5q-15 0 -25 9t-17 22
t-10 27.5t-3 25.5z" />
    <glyph glyph-name="macron" unicode="&#xaf;" horiz-adv-x="412" 
d="M59 612q-15 7 -18 18.5t1.5 22.5t14.5 20.5t21 13.5q10 1 30.5 2.5t46.5 3t54.5 4t55 4t47 3t30.5 2.5h11q17 0 23 -12.5t6 -26.5q0 -12 -5.5 -19t-14 -10.5t-19 -4.5t-20.5 -2t-30.5 -2.5t-47 -3t-55 -4t-54.5 -4t-46.5 -3t-30.5 -2.5z" />
    <glyph glyph-name="acute" unicode="&#xb4;" horiz-adv-x="230" 
d="M206 704q-15 -7 -34 -20.5t-39 -28.5t-39.5 -29.5t-36.5 -23.5q-23 -2 -34.5 14t-7.5 41l143 107q16 5 28 1t18.5 -13t7 -22t-5.5 -26z" />
    <glyph glyph-name="periodcentered" unicode="&#xb7;" horiz-adv-x="164" 
d="M45 333q7 17 22.5 26t31.5 7t27.5 -16t11.5 -44q0 -7 -1.5 -16t-5 -16.5t-9 -13t-14.5 -5.5q-22 1 -36.5 9t-22 20t-8.5 25t4 24z" />
    <glyph glyph-name="cedilla" unicode="&#xb8;" horiz-adv-x="340" 
d="M63 -149q19 24 28.5 29.5t14.5 0.5t9 -18t11.5 -25.5t21.5 -21.5t40 -7q18 4 32.5 13t14.5 18q0 23 -19 38.5t-41.5 29.5t-41 29t-18.5 38q0 33 11.5 46t25 10t25 -18.5t11.5 -37.5q0 -24 20.5 -39.5t45 -29.5t45 -29.5t20.5 -39.5q0 -19 -16 -37.5t-41 -31t-54 -16.5
t-54 5q-22 0 -40 9t-30.5 23t-18 30.5t-2.5 31.5z" />
    <glyph glyph-name="questiondown" unicode="&#xbf;" horiz-adv-x="493" 
d="M328.009 703.005q-0.999023 -18.999 -11.499 -26.999q-10.499 -7.99902 -23.498 -6.49902q-13 1.5 -24.499 11.499t-13.499 27.998q-3 9 6.5 23.499q9.49902 14.499 22.498 20.499q12.999 5.99902 25.999 -3q12.999 -9 17.998 -46.9971zM352.008 440.021
q-86.9951 -54.9961 -142.991 -117.493q-55.9971 -62.4961 -80.9951 -116.992q-24.998 -54.4971 -19.499 -92.9941q5.5 -38.498 40.498 -45.498q34.9971 -6.99902 99.9932 25.999t158.99 119.992q18.999 13.999 30.499 12.5q11.499 -1.5 18.498 -12.5
q-14.999 -43.9971 -44.4971 -79.9951q-29.498 -35.9971 -66.9961 -61.9961q-37.4971 -25.998 -78.9951 -40.9971q-41.4971 -14.999 -79.9951 -17.999q-38.4971 -3 -71.4951 6.99902q-32.998 10 -52.4971 34.498q-19.499 24.499 -21.999 63.9961
q-2.49902 39.498 18.499 95.4941q23.999 60.9971 62.9961 107.494q38.998 46.4971 78.4951 79.4951q39.498 32.998 71.4961 52.4961q31.998 19.499 41.9971 25.499q18.999 0 26.499 -7.5q7.49902 -7.49902 11.499 -30.498z" />
    <glyph glyph-name="Agrave" unicode="&#xc0;" 
d="M340 340q-8 0 -26.5 -2.5t-39.5 -5.5t-40 -6.5t-26 -4.5q-1 0 -3 -3t-6.5 -13.5t-12.5 -31.5t-20 -58.5t-29.5 -94t-41.5 -137.5h-75q9 24 21 70t25.5 95t25.5 92t21 62q-2 6 -8 7.5t-12.5 3.5t-12 7t-6.5 18q0 16 7 26t18 16.5t24.5 10t27.5 5.5q16 58 29.5 95.5t26 71
t25.5 70.5t28 95q4 7 15.5 20.5t26 25t29 16.5t24.5 -5l60 -351q4 3 14.5 6.5t22.5 6.5t23 5t16 1q3 -1 9 -5.5t12 -10.5t11 -12t5 -10q-8 -12 -22 -21t-29.5 -16t-32 -11.5t-29.5 -8.5q18 -88 21.5 -184.5t3.5 -184.5q-29 0 -46 19.5t-26 50t-12 69.5t-4.5 78t-3.5 74.5
t-8 59.5zM305 657q-29 -95 -45 -147.5t-23.5 -77.5t-8.5 -30.5l-1 -5.5l113 19v8q-2 19 -6.5 50.5t-10 65.5t-11 66t-7.5 52zM223 920q-6 13 -5.5 26t7 22t18 13t28.5 -1l143 -107q4 -25 -7.5 -41t-34.5 -14q-17 9 -36.5 23.5t-39.5 29.5t-39 28.5t-34 20.5z" />
    <glyph glyph-name="Aacute" unicode="&#xc1;" 
d="M340 340q-8 0 -26.5 -2.5t-39.5 -5.5t-40 -6.5t-26 -4.5q-1 0 -3 -3t-6.5 -13.5t-12.5 -31.5t-20 -58.5t-29.5 -94t-41.5 -137.5h-75q9 24 21 70t25.5 95t25.5 92t21 62q-2 6 -8 7.5t-12.5 3.5t-12 7t-6.5 18q0 16 7 26t18 16.5t24.5 10t27.5 5.5q16 58 29.5 95.5t26 71
t25.5 70.5t28 95q4 7 15.5 20.5t26 25t29 16.5t24.5 -5l60 -351q4 3 14.5 6.5t22.5 6.5t23 5t16 1q3 -1 9 -5.5t12 -10.5t11 -12t5 -10q-8 -12 -22 -21t-29.5 -16t-32 -11.5t-29.5 -8.5q18 -88 21.5 -184.5t3.5 -184.5q-29 0 -46 19.5t-26 50t-12 69.5t-4.5 78t-3.5 74.5
t-8 59.5zM305 657q-29 -95 -45 -147.5t-23.5 -77.5t-8.5 -30.5l-1 -5.5l113 19v8q-2 19 -6.5 50.5t-10 65.5t-11 66t-7.5 52zM401 898q-15 -7 -34 -20.5t-39 -28.5t-39.5 -29.5t-36.5 -23.5q-23 -2 -34.5 14t-7.5 41l143 107q16 5 28 1t18.5 -13t7 -22t-5.5 -26z" />
    <glyph glyph-name="Acircumflex" unicode="&#xc2;" 
d="M340 340q-8 0 -26.5 -2.5t-39.5 -5.5t-40 -6.5t-26 -4.5q-1 0 -3 -3t-6.5 -13.5t-12.5 -31.5t-20 -58.5t-29.5 -94t-41.5 -137.5h-75q9 24 21 70t25.5 95t25.5 92t21 62q-2 6 -8 7.5t-12.5 3.5t-12 7t-6.5 18q0 16 7 26t18 16.5t24.5 10t27.5 5.5q16 58 29.5 95.5t26 71
t25.5 70.5t28 95q4 7 15.5 20.5t26 25t29 16.5t24.5 -5l60 -351q4 3 14.5 6.5t22.5 6.5t23 5t16 1q3 -1 9 -5.5t12 -10.5t11 -12t5 -10q-8 -12 -22 -21t-29.5 -16t-32 -11.5t-29.5 -8.5q18 -88 21.5 -184.5t3.5 -184.5q-29 0 -46 19.5t-26 50t-12 69.5t-4.5 78t-3.5 74.5
t-8 59.5zM305 657q-29 -95 -45 -147.5t-23.5 -77.5t-8.5 -30.5l-1 -5.5l113 19v8q-2 19 -6.5 50.5t-10 65.5t-11 66t-7.5 52zM256 836q-35 -22 -54 -12.5t-11 51.5l79 102q3 8 12 14.5t20 9.5t21 1t15 -10l96 -122q0 -23 -7 -34t-16.5 -14.5t-21 -1.5t-21.5 5q-17 20 -31 39
t-31 42l-50 -70v0z" />
    <glyph glyph-name="Atilde" unicode="&#xc3;" 
d="M340 340q-8 0 -26.5 -2.5t-39.5 -5.5t-40 -6.5t-26 -4.5q-1 0 -3 -3t-6.5 -13.5t-12.5 -31.5t-20 -58.5t-29.5 -94t-41.5 -137.5h-75q9 24 21 70t25.5 95t25.5 92t21 62q-2 6 -8 7.5t-12.5 3.5t-12 7t-6.5 18q0 16 7 26t18 16.5t24.5 10t27.5 5.5q16 58 29.5 95.5t26 71
t25.5 70.5t28 95q4 7 15.5 20.5t26 25t29 16.5t24.5 -5l60 -351q4 3 14.5 6.5t22.5 6.5t23 5t16 1q3 -1 9 -5.5t12 -10.5t11 -12t5 -10q-8 -12 -22 -21t-29.5 -16t-32 -11.5t-29.5 -8.5q18 -88 21.5 -184.5t3.5 -184.5q-29 0 -46 19.5t-26 50t-12 69.5t-4.5 78t-3.5 74.5
t-8 59.5zM305 657q-29 -95 -45 -147.5t-23.5 -77.5t-8.5 -30.5l-1 -5.5l113 19v8q-2 19 -6.5 50.5t-10 65.5t-11 66t-7.5 52zM107 824q8 22 16 50.5t19 54t28 43.5t43 18q15 0 35 -2.5t45.5 -15t58 -38t72.5 -70.5q31 -15 44.5 -5t17 30t0.5 43t-3 35q5 10 15 15t21 4t20 -9
t13 -24q2 -35 -1.5 -66.5t-17 -54t-38.5 -34.5t-66 -7q-25 3 -44.5 15t-35.5 27.5t-30 33.5t-28.5 32.5t-30 24.5t-34.5 10q-27 -11 -36.5 -29t-11 -36.5t1 -34t-0.5 -21.5q-7 -13 -19 -18.5t-23.5 -3.5t-20 10.5t-9.5 22.5z" />
    <glyph glyph-name="Adieresis" unicode="&#xc4;" 
d="M340 340q-8 0 -26.5 -2.5t-39.5 -5.5t-40 -6.5t-26 -4.5q-1 0 -3 -3t-6.5 -13.5t-12.5 -31.5t-20 -58.5t-29.5 -94t-41.5 -137.5h-75q9 24 21 70t25.5 95t25.5 92t21 62q-2 6 -8 7.5t-12.5 3.5t-12 7t-6.5 18q0 16 7 26t18 16.5t24.5 10t27.5 5.5q16 58 29.5 95.5t26 71
t25.5 70.5t28 95q4 7 15.5 20.5t26 25t29 16.5t24.5 -5l60 -351q4 3 14.5 6.5t22.5 6.5t23 5t16 1q3 -1 9 -5.5t12 -10.5t11 -12t5 -10q-8 -12 -22 -21t-29.5 -16t-32 -11.5t-29.5 -8.5q18 -88 21.5 -184.5t3.5 -184.5q-29 0 -46 19.5t-26 50t-12 69.5t-4.5 78t-3.5 74.5
t-8 59.5zM305 657q-29 -95 -45 -147.5t-23.5 -77.5t-8.5 -30.5l-1 -5.5l113 19v8q-2 19 -6.5 50.5t-10 65.5t-11 66t-7.5 52zM215 922q7 0 21 0.5t28 -2.5t24.5 -10.5t10.5 -22.5q0 -7 -1.5 -15.5t-4.5 -16t-8.5 -12.5t-14.5 -5q-15 0 -25 9t-17 22t-10 27.5t-3 25.5z
M357 922q7 0 21 0.5t28 -2.5t24.5 -10.5t10.5 -22.5q0 -7 -1.5 -15.5t-4.5 -16t-8.5 -12.5t-14.5 -5q-15 0 -25 9t-17 22t-10 27.5t-3 25.5z" />
    <glyph glyph-name="Aring" unicode="&#xc5;" 
d="M340 340q-8 0 -26.5 -2.5t-39.5 -5.5t-40 -6.5t-26 -4.5q-1 0 -3 -3t-6.5 -13.5t-12.5 -31.5t-20 -58.5t-29.5 -94t-41.5 -137.5h-75q9 24 21 70t25.5 95t25.5 92t21 62q-2 6 -8 7.5t-12.5 3.5t-12 7t-6.5 18q0 16 7 26t18 16.5t24.5 10t27.5 5.5q16 58 29.5 95.5t26 71
t25.5 70.5t28 95q4 7 15.5 20.5t26 25t29 16.5t24.5 -5l60 -351q4 3 14.5 6.5t22.5 6.5t23 5t16 1q3 -1 9 -5.5t12 -10.5t11 -12t5 -10q-8 -12 -22 -21t-29.5 -16t-32 -11.5t-29.5 -8.5q18 -88 21.5 -184.5t3.5 -184.5q-29 0 -46 19.5t-26 50t-12 69.5t-4.5 78t-3.5 74.5
t-8 59.5zM305 657q-29 -95 -45 -147.5t-23.5 -77.5t-8.5 -30.5l-1 -5.5l113 19v8q-2 19 -6.5 50.5t-10 65.5t-11 66t-7.5 52zM204 920q0 30 19.5 52t48.5 33q18 7 43.5 -1t49.5 -24t41.5 -35.5t17.5 -36.5q1 -27 -15 -46t-40.5 -29.5t-53.5 -11.5t-53.5 9.5t-41 32.5
t-16.5 57zM284 954q-17 -17 -19 -25.5t-7 -17.5q-5 -11 9 -19t33 -10t37 4t20 23q1 11 -5 19.5t-16.5 14t-24.5 8.5t-27 3z" />
    <glyph glyph-name="AE" unicode="&#xc6;" horiz-adv-x="889" 
d="M366 342q-8 1 -27 1h-40.5t-40.5 -0.5t-26 -1.5q-2 0 -7 -6.5t-20 -38t-43.5 -96t-76.5 -181.5l-75 11q7 16 17.5 41t22 55t23.5 62t23.5 61t21.5 52t17 35q-2 6 -7.5 8.5t-12 5.5t-11.5 8.5t-5 18.5q2 16 10 25t20 14t25.5 6.5t27.5 1.5q15 37 27.5 65t23.5 50.5t22 43
t22 43.5t22.5 50.5t25.5 64.5q5 6 18 18t28.5 21.5t30.5 12.5t24 -8l1 -53q27 6 66 11t82 9.5t87 8t81 5.5t64.5 3.5t37.5 1.5t22 -1t21.5 -4.5t16 -11t6.5 -20.5q0 -20 -19 -30.5t-51 -15t-72.5 -4.5t-83.5 0.5t-85 0.5t-76.5 -4.5t-57.5 -14t-28 -28.5q3 -12 2 -28
t-3 -34.5t-3 -39.5t3 -45q27 -2 62.5 -1.5t73.5 1.5t75.5 2.5t67.5 2.5q0 -31 -9.5 -48t-47.5 -28q-14 -3 -45 -4t-66 -1t-66 -0.5t-45 -1.5q2 -60 2 -126t-3 -119q1 -37 0 -73q23 1 53 0.5t63.5 -1.5t68 -2t66 1t57.5 6.5t44 13.5q20 0 29 -7t9.5 -18.5t-5 -24.5t-14.5 -25
l-376 -38q-27 -15 -41.5 -2t-21 43.5t-7.5 72.5t1 84.5t3.5 81t0.5 62.5zM363 664q-39 -91 -60.5 -141t-31 -74t-11.5 -29.5l-2 -5.5l115 3v3q0 2 0.5 3t0.5 2q0 19 -1.5 51t-3.5 67t-4 68t-2 53z" />
    <glyph glyph-name="Ccedilla" unicode="&#xc7;" horiz-adv-x="531" 
d="M24 354q0 74 25 145.5t63.5 129.5t85.5 96t91.5 43.5t81 -27.5t53.5 -117q-2 0 -9 1t-15.5 2.5t-15.5 3t-9 2.5q-31 51 -64 59.5t-64.5 -12t-59 -62.5t-47.5 -91t-30.5 -97.5t-7.5 -82.5q2 -22 4 -50.5t7.5 -60t15 -63t26 -57.5t40.5 -44.5t59 -24.5q33 0 60 18t52.5 40
t51 40t55.5 18q7 2 12 -1t7.5 -8t1.5 -11t-6 -9q-25 -27 -50 -55t-53 -50.5t-60 -37t-71 -14.5q-42 0 -75.5 18.5t-59 48.5t-43.5 69.5t-29.5 81t-17 83t-5.5 76.5zM142 -149q19 24 28.5 29.5t14.5 0.5t9 -18t11.5 -25.5t21.5 -21.5t40 -7q18 4 32.5 13t14.5 18
q0 23 -19 38.5t-41.5 29.5t-41 29t-18.5 38q0 33 11.5 46t25 10t25 -18.5t11.5 -37.5q0 -24 20.5 -39.5t45 -29.5t45 -29.5t20.5 -39.5q0 -19 -16 -37.5t-41 -31t-54 -16.5t-54 5q-22 0 -40 9t-30.5 23t-18 30.5t-2.5 31.5z" />
    <glyph glyph-name="Egrave" unicode="&#xc8;" horiz-adv-x="509" 
d="M36 713q2 9 33.5 16.5t79 14t103.5 11.5t107 8.5t89.5 5.5t51.5 2q10 0 22 -1t21.5 -4.5t16 -11t6.5 -20.5q0 -20 -19 -30.5t-51 -15t-72.5 -4.5t-83.5 0.5t-85 0.5t-76.5 -4.5t-57.5 -14t-28 -28.5q3 -12 2 -28t-3 -34.5t-3 -39.5t3 -45q27 -2 62.5 -1.5t73.5 1.5
t75.5 2.5t67.5 2.5q0 -31 -9.5 -48t-47.5 -28q-14 -3 -45 -4t-66 -1t-66 -0.5t-45 -1.5q1 -42 2 -88.5t0 -90t-3.5 -80t-7.5 -59.5q22 2 52 1.5t64 -2t70 -2t68.5 0.5t60 5.5t45.5 14.5q20 0 29 -7t9.5 -18.5t-5 -24.5t-14.5 -25l-377 -38q-8 -1 -18.5 4.5t-19.5 14.5
t-15 19t-4 19zM144 894q-6 13 -5.5 26t7 22t18 13t28.5 -1l143 -107q4 -25 -7.5 -41t-34.5 -14q-17 9 -36.5 23.5t-39.5 29.5t-39 28.5t-34 20.5z" />
    <glyph glyph-name="Eacute" unicode="&#xc9;" horiz-adv-x="493" 
d="M36 713q2 9 33.5 16.5t79 14t103.5 11.5t107 8.5t89.5 5.5t51.5 2q10 0 22 -1t21.5 -4.5t16 -11t6.5 -20.5q0 -20 -19 -30.5t-51 -15t-72.5 -4.5t-83.5 0.5t-85 0.5t-76.5 -4.5t-57.5 -14t-28 -28.5q3 -12 2 -28t-3 -34.5t-3 -39.5t3 -45q27 -2 62.5 -1.5t73.5 1.5
t75.5 2.5t67.5 2.5q0 -31 -9.5 -48t-47.5 -28q-14 -3 -45 -4t-66 -1t-66 -0.5t-45 -1.5q1 -42 2 -88.5t0 -90t-3.5 -80t-7.5 -59.5q22 2 52 1.5t64 -2t70 -2t68.5 0.5t60 5.5t45.5 14.5q20 0 29 -7t9.5 -18.5t-5 -24.5t-14.5 -25l-377 -38q-8 -1 -18.5 4.5t-19.5 14.5
t-15 19t-4 19zM339 892q-15 -7 -34 -20.5t-39 -28.5t-39.5 -29.5t-36.5 -23.5q-23 -2 -34.5 14t-7.5 41l143 107q16 5 28 1t18.5 -13t7 -22t-5.5 -26z" />
    <glyph glyph-name="Ecircumflex" unicode="&#xca;" horiz-adv-x="496" 
d="M36 713q2 9 33.5 16.5t79 14t103.5 11.5t107 8.5t89.5 5.5t51.5 2q10 0 22 -1t21.5 -4.5t16 -11t6.5 -20.5q0 -20 -19 -30.5t-51 -15t-72.5 -4.5t-83.5 0.5t-85 0.5t-76.5 -4.5t-57.5 -14t-28 -28.5q3 -12 2 -28t-3 -34.5t-3 -39.5t3 -45q27 -2 62.5 -1.5t73.5 1.5
t75.5 2.5t67.5 2.5q0 -31 -9.5 -48t-47.5 -28q-14 -3 -45 -4t-66 -1t-66 -0.5t-45 -1.5q1 -42 2 -88.5t0 -90t-3.5 -80t-7.5 -59.5q22 2 52 1.5t64 -2t70 -2t68.5 0.5t60 5.5t45.5 14.5q20 0 29 -7t9.5 -18.5t-5 -24.5t-14.5 -25l-377 -38q-8 -1 -18.5 4.5t-19.5 14.5
t-15 19t-4 19zM205 826q-35 -22 -54 -12.5t-11 51.5l79 102q3 8 12 14.5t20 9.5t21 1t15 -10l96 -122q0 -23 -7 -34t-16.5 -14.5t-21 -1.5t-21.5 5q-17 20 -31 39t-31 42l-50 -70v0z" />
    <glyph glyph-name="Edieresis" unicode="&#xcb;" horiz-adv-x="486" 
d="M37 722q2 9 33.5 16.5t79 14t103.5 11.5t107 8.5t89.5 5.5t51.5 2q10 0 22 -1t21.5 -4.5t16 -11t6.5 -20.5q0 -20 -19 -30.5t-51 -15t-72.5 -4.5t-83.5 0.5t-85 0.5t-76.5 -4.5t-57.5 -14t-28 -28.5q3 -12 2 -28t-3 -34.5t-3 -39.5t3 -45q27 -2 62.5 -1.5t73.5 1.5
t75.5 2.5t67.5 2.5q0 -31 -9.5 -48t-47.5 -28q-14 -3 -45 -4t-66 -1t-66 -0.5t-45 -1.5q1 -42 2 -88.5t0 -90t-3.5 -80t-7.5 -59.5q22 2 52 1.5t64 -2t70 -2t68.5 0.5t60 5.5t45.5 14.5q20 0 29 -7t9.5 -18.5t-5 -24.5t-14.5 -25l-377 -38q-8 -1 -18.5 4.5t-19.5 14.5
t-15 19t-4 19zM145.115 842.361q6.81348 0 20.4424 -0.644531q13.6279 -0.644531 27.2568 3.22266q13.6279 3.86621 23.8486 13.5322q10.2217 9.66602 10.2217 28.998q0 9.02246 -1.45996 19.9766q-1.45996 10.9551 -4.38086 20.6211q-2.91992 9.66699 -8.27441 16.1104
q-5.35352 6.44434 -14.1152 6.44434q-14.6016 0 -24.3359 -11.5996q-9.73438 -11.5986 -16.5488 -28.3535q-6.81348 -16.7549 -9.73438 -35.4424q-2.91992 -18.6885 -2.91992 -32.8652zM283.345 842.361q6.81445 0 20.4424 -0.644531q13.6289 -0.644531 27.2568 3.22266
q13.6279 3.86621 23.8496 13.5322q10.2207 9.66602 10.2207 28.998q0 9.02246 -1.45996 19.9766q-1.45996 10.9551 -4.38086 20.6211q-2.91992 9.66699 -8.27344 16.1104q-5.35449 6.44434 -14.1152 6.44434q-14.6016 0 -24.3369 -11.5996
q-9.73438 -11.5986 -16.5479 -28.3535q-6.81445 -16.7549 -9.73438 -35.4424q-2.9209 -18.6885 -2.9209 -32.8652z" />
    <glyph glyph-name="Igrave" unicode="&#xcc;" horiz-adv-x="664" 
d="M241 91q16 69 24 138.5t11.5 140.5t3.5 142.5t-1 144.5q-33 -9 -62 -16.5t-57.5 -13t-59 -8t-65.5 -1.5q-11 8 -15.5 16.5t14.5 22.5q70 20 134.5 40.5t128.5 37t129.5 27t138.5 10.5q11 0 27 -8.5t21 -28.5q-14 -21 -38 -29.5t-51.5 -10.5t-56 -2t-52 -3.5t-40.5 -14.5
t-20 -36q-6 -71 -10.5 -138t-6.5 -133.5t-1.5 -134t3.5 -137.5q20 0 47.5 0.5t58 2t61.5 4.5t57 8h20t25.5 -2t21.5 -8t9 -18q0 -19 -21 -29q-15 -9 -57.5 -16.5t-97 -14.5t-114.5 -12t-111 -9t-86.5 -6.5t-40.5 -2.5q-30 3 -43.5 10.5t-15.5 17t4.5 19t15 17t15.5 11t7 1.5
zM174 877q-6 13 -5.5 26t7 22t18 13t28.5 -1l143 -107q4 -25 -7.5 -41t-34.5 -14q-17 9 -36.5 23.5t-39.5 29.5t-39 28.5t-34 20.5z" />
    <glyph glyph-name="Iacute" unicode="&#xcd;" horiz-adv-x="651" 
d="M244 101q16 69 24 138.5t11.5 140.5t3.5 142.5t-1 144.5q-33 -9 -62 -16.5t-57.5 -13t-59 -8t-65.5 -1.5q-11 8 -15.5 16.5t14.5 22.5q70 20 134.5 40.5t128.5 37t129.5 27t138.5 10.5q11 0 27 -8.5t21 -28.5q-14 -21 -38 -29.5t-51.5 -10.5t-56 -2t-52 -3.5t-40.5 -14.5
t-20 -36q-6 -71 -10.5 -138t-6.5 -133.5t-1.5 -134t3.5 -137.5q20 0 47.5 0.5t58 2t61.5 4.5t57 8h20t25.5 -2t21.5 -8t9 -18q0 -19 -21 -29q-15 -9 -57.5 -16.5t-97 -14.5t-114.5 -12t-111 -9t-86.5 -6.5t-40.5 -2.5q-30 3 -43.5 10.5t-15.5 17t4.5 19t15 17t15.5 11t7 1.5
zM422 860q-15 -7 -34 -20.5t-39 -28.5t-39.5 -29.5t-36.5 -23.5q-23 -2 -34.5 14t-7.5 41l143 107q16 5 28 1t18.5 -13t7 -22t-5.5 -26z" />
    <glyph glyph-name="Icircumflex" unicode="&#xce;" horiz-adv-x="611" 
d="M241 94q16 69 24 138.5t11.5 140.5t3.5 142.5t-1 144.5q-33 -9 -62 -16.5t-57.5 -13t-59 -8t-65.5 -1.5q-11 8 -15.5 16.5t14.5 22.5q70 20 134.5 40.5t128.5 37t129.5 27t138.5 10.5q11 0 27 -8.5t21 -28.5q-14 -21 -38 -29.5t-51.5 -10.5t-56 -2t-52 -3.5t-40.5 -14.5
t-20 -36q-6 -71 -10.5 -138t-6.5 -133.5t-1.5 -134t3.5 -137.5q20 0 47.5 0.5t58 2t61.5 4.5t57 8h20t25.5 -2t21.5 -8t9 -18q0 -19 -21 -29q-15 -9 -57.5 -16.5t-97 -14.5t-114.5 -12t-111 -9t-86.5 -6.5t-40.5 -2.5q-30 3 -43.5 10.5t-15.5 17t4.5 19t15 17t15.5 11t7 1.5
zM245 798q-35 -22 -54 -12.5t-11 51.5l79 102q3 8 12 14.5t20 9.5t21 1t15 -10l96 -122q0 -23 -7 -34t-16.5 -14.5t-21 -1.5t-21.5 5q-17 20 -31 39t-31 42l-50 -70v0z" />
    <glyph glyph-name="Idieresis" unicode="&#xcf;" horiz-adv-x="618" 
d="M247 94q16 69 24 138.5t11.5 140.5t3.5 142.5t-1 144.5q-33 -9 -62 -16.5t-57.5 -13t-59 -8t-65.5 -1.5q-11 8 -15.5 16.5t14.5 22.5q70 20 134.5 40.5t128.5 37t129.5 27t138.5 10.5q11 0 27 -8.5t21 -28.5q-14 -21 -38 -29.5t-51.5 -10.5t-56 -2t-52 -3.5t-40.5 -14.5
t-20 -36q-6 -71 -10.5 -138t-6.5 -133.5t-1.5 -134t3.5 -137.5q20 0 47.5 0.5t58 2t61.5 4.5t57 8h20t25.5 -2t21.5 -8t9 -18q0 -19 -21 -29q-15 -9 -57.5 -16.5t-97 -14.5t-114.5 -12t-111 -9t-86.5 -6.5t-40.5 -2.5q-30 3 -43.5 10.5t-15.5 17t4.5 19t15 17t15.5 11t7 1.5
zM195 867q7 0 21 0.5t28 -2.5t24.5 -10.5t10.5 -22.5q0 -7 -1.5 -15.5t-4.5 -16t-8.5 -12.5t-14.5 -5q-15 0 -25 9t-17 22t-10 27.5t-3 25.5zM337 867q7 0 21 0.5t28 -2.5t24.5 -10.5t10.5 -22.5q0 -7 -1.5 -15.5t-4.5 -16t-8.5 -12.5t-14.5 -5q-15 0 -25 9t-17 22t-10 27.5
t-3 25.5z" />
    <glyph glyph-name="Eth" unicode="&#xd0;" horiz-adv-x="609" 
d="M-39 361q-2 1 -5 5.5t-6 10.5t-5 11t-2 8q0 8 5.5 12t12.5 5.5t14 1t10 -0.5q25 -3 33 -3.5t9.5 -0.5t3 0.5t13.5 -0.5l-5 249q-4 6 -5 15.5t-0.5 20t1.5 20.5t1 16q0 15 13 22.5t32.5 9t43 -0.5t44.5 -5.5t37 -6.5t21 -3q75 0 140 -30.5t113 -83t75.5 -122t27.5 -146.5
q-4 -48 -29 -98t-65 -96t-92 -84.5t-109.5 -61.5t-117.5 -28t-117 15l-8 346q-19 1 -25.5 1h-11.5h-14t-33 2zM117 408l123 -9q15 -2 28 -7.5t20 -13t6.5 -17.5t-10.5 -21q-41 5 -59.5 7t-31 2.5t-27.5 1t-48 2.5l7 -290h19q35 0 76.5 12.5t84 34t82.5 51t71 63.5t49.5 70.5
t18.5 72.5q0 22 -8.5 57.5t-27 74.5t-49.5 76.5t-77.5 65.5t-109 41t-144.5 2z" />
    <glyph glyph-name="Ntilde" unicode="&#xd1;" horiz-adv-x="590" 
d="M38 0q1 156 -0.5 268.5t-2.5 190.5t-0.5 125.5t4.5 73t12.5 34t24.5 8.5q12 0 22 -2.5t15 -18.5q28 -54 64 -127.5t79 -151t90.5 -150.5t97.5 -125l52 608q10 27 23 35t25 7t20.5 -5.5l8.5 -4.5q-5 -14 -8 -29.5t-5.5 -43.5t-6 -74t-9 -120t-14 -181.5t-20.5 -259.5
q-2 -23 -21 -31.5t-36 -8.5q-28 0 -43 15.5t-33 42.5l-273 434v-490q0 -7 -6 -11t-13.5 -6t-15.5 -2.5t-12 -0.5q-2 0 -9.5 0.5t-9.5 0.5zM53 798q8 22 16 50.5t19 54t28 43.5t43 18q15 0 35 -2.5t45.5 -15t58 -38t72.5 -70.5q31 -15 44.5 -5t17 30t0.5 43t-3 35q5 10 15 15
t21 4t20 -9t13 -24q2 -35 -1.5 -66.5t-17 -54t-38.5 -34.5t-66 -7q-25 3 -44.5 15t-35.5 27.5t-30 33.5t-28.5 32.5t-30 24.5t-34.5 10q-27 -11 -36.5 -29t-11 -36.5t1 -34t-0.5 -21.5q-7 -13 -19 -18.5t-23.5 -3.5t-20 10.5t-9.5 22.5z" />
    <glyph glyph-name="Ograve" unicode="&#xd2;" horiz-adv-x="538" 
d="M26 241q0 33 7 84.5t21 109.5t36 116.5t52.5 105t69 76t86.5 29.5q41 0 72 -20t53.5 -53t37.5 -75t24 -85.5t13 -85t4 -72.5q0 -66 -23 -132.5t-65.5 -119.5t-102.5 -86.5t-133 -33.5q-44 0 -73 25.5t-46.5 63t-25 79t-7.5 74.5zM102 240q0 -31 3.5 -61t15 -53
t32.5 -37.5t56 -14.5q47 1 87 23t69.5 61t45.5 92.5t15 117.5q0 29 -1 64t-6 70t-15 68t-28 58.5t-45.5 41t-66.5 15.5q-22 0 -42.5 -27.5t-38.5 -70t-33 -94.5t-25.5 -101.5t-16.5 -90.5t-6 -61zM153 891q-6 13 -5.5 26t7 22t18 13t28.5 -1l143 -107q4 -25 -7.5 -41
t-34.5 -14q-17 9 -36.5 23.5t-39.5 29.5t-39 28.5t-34 20.5z" />
    <glyph glyph-name="Oacute" unicode="&#xd3;" horiz-adv-x="538" 
d="M26 241q0 33 7 84.5t21 109.5t36 116.5t52.5 105t69 76t86.5 29.5q41 0 72 -20t53.5 -53t37.5 -75t24 -85.5t13 -85t4 -72.5q0 -66 -23 -132.5t-65.5 -119.5t-102.5 -86.5t-133 -33.5q-44 0 -73 25.5t-46.5 63t-25 79t-7.5 74.5zM102 240q0 -31 3.5 -61t15 -53
t32.5 -37.5t56 -14.5q47 1 87 23t69.5 61t45.5 92.5t15 117.5q0 29 -1 64t-6 70t-15 68t-28 58.5t-45.5 41t-66.5 15.5q-22 0 -42.5 -27.5t-38.5 -70t-33 -94.5t-25.5 -101.5t-16.5 -90.5t-6 -61zM343 872q-15 -7 -34 -20.5t-39 -28.5t-39.5 -29.5t-36.5 -23.5
q-23 -2 -34.5 14t-7.5 41l143 107q16 5 28 1t18.5 -13t7 -22t-5.5 -26z" />
    <glyph glyph-name="Ocircumflex" unicode="&#xd4;" horiz-adv-x="538" 
d="M26 241q0 33 7 84.5t21 109.5t36 116.5t52.5 105t69 76t86.5 29.5q41 0 72 -20t53.5 -53t37.5 -75t24 -85.5t13 -85t4 -72.5q0 -66 -23 -132.5t-65.5 -119.5t-102.5 -86.5t-133 -33.5q-44 0 -73 25.5t-46.5 63t-25 79t-7.5 74.5zM102 240q0 -31 3.5 -61t15 -53
t32.5 -37.5t56 -14.5q47 1 87 23t69.5 61t45.5 92.5t15 117.5q0 29 -1 64t-6 70t-15 68t-28 58.5t-45.5 41t-66.5 15.5q-22 0 -42.5 -27.5t-38.5 -70t-33 -94.5t-25.5 -101.5t-16.5 -90.5t-6 -61zM230 813q-35 -22 -54 -12.5t-11 51.5l79 102q3 8 12 14.5t20 9.5t21 1
t15 -10l96 -122q0 -23 -7 -34t-16.5 -14.5t-21 -1.5t-21.5 5q-17 20 -31 39t-31 42l-50 -70v0z" />
    <glyph glyph-name="Otilde" unicode="&#xd5;" horiz-adv-x="538" 
d="M26 241q0 33 7 84.5t21 109.5t36 116.5t52.5 105t69 76t86.5 29.5q41 0 72 -20t53.5 -53t37.5 -75t24 -85.5t13 -85t4 -72.5q0 -66 -23 -132.5t-65.5 -119.5t-102.5 -86.5t-133 -33.5q-44 0 -73 25.5t-46.5 63t-25 79t-7.5 74.5zM102 240q0 -31 3.5 -61t15 -53
t32.5 -37.5t56 -14.5q47 1 87 23t69.5 61t45.5 92.5t15 117.5q0 29 -1 64t-6 70t-15 68t-28 58.5t-45.5 41t-66.5 15.5q-22 0 -42.5 -27.5t-38.5 -70t-33 -94.5t-25.5 -101.5t-16.5 -90.5t-6 -61zM78 818q8 22 16 50.5t19 54t28 43.5t43 18q15 0 35 -2.5t45.5 -15t58 -38
t72.5 -70.5q31 -15 44.5 -5t17 30t0.5 43t-3 35q5 10 15 15t21 4t20 -9t13 -24q2 -35 -1.5 -66.5t-17 -54t-38.5 -34.5t-66 -7q-25 3 -44.5 15t-35.5 27.5t-30 33.5t-28.5 32.5t-30 24.5t-34.5 10q-27 -11 -36.5 -29t-11 -36.5t1 -34t-0.5 -21.5q-7 -13 -19 -18.5
t-23.5 -3.5t-20 10.5t-9.5 22.5z" />
    <glyph glyph-name="Odieresis" unicode="&#xd6;" horiz-adv-x="538" 
d="M26 241q0 33 7 84.5t21 109.5t36 116.5t52.5 105t69 76t86.5 29.5q41 0 72 -20t53.5 -53t37.5 -75t24 -85.5t13 -85t4 -72.5q0 -66 -23 -132.5t-65.5 -119.5t-102.5 -86.5t-133 -33.5q-44 0 -73 25.5t-46.5 63t-25 79t-7.5 74.5zM102 240q0 -31 3.5 -61t15 -53
t32.5 -37.5t56 -14.5q47 1 87 23t69.5 61t45.5 92.5t15 117.5q0 29 -1 64t-6 70t-15 68t-28 58.5t-45.5 41t-66.5 15.5q-22 0 -42.5 -27.5t-38.5 -70t-33 -94.5t-25.5 -101.5t-16.5 -90.5t-6 -61zM169 889q7 0 21 0.5t28 -2.5t24.5 -10.5t10.5 -22.5q0 -7 -1.5 -15.5
t-4.5 -16t-8.5 -12.5t-14.5 -5q-15 0 -25 9t-17 22t-10 27.5t-3 25.5zM311 889q7 0 21 0.5t28 -2.5t24.5 -10.5t10.5 -22.5q0 -7 -1.5 -15.5t-4.5 -16t-8.5 -12.5t-14.5 -5q-15 0 -25 9t-17 22t-10 27.5t-3 25.5z" />
    <glyph glyph-name="Oslash" unicode="&#xd8;" horiz-adv-x="538" 
d="M26 241q0 33 7 84.5t21 109.5t36 116.5t52.5 105t69 76t86.5 29.5q41 0 72 -20t53.5 -53t37.5 -75t24 -85.5t13 -85t4 -72.5q0 -66 -23 -132.5t-65.5 -119.5t-102.5 -86.5t-133 -33.5q-44 0 -73 25.5t-46.5 63t-25 79t-7.5 74.5zM102 240q0 -31 3.5 -61t15 -53
t32.5 -37.5t56 -14.5q47 1 87 23t69.5 61t45.5 92.5t15 117.5q0 29 -1 64t-6 70t-15 68t-28 58.5t-45.5 41t-66.5 15.5q-22 0 -42.5 -27.5t-38.5 -70t-33 -94.5t-25.5 -101.5t-16.5 -90.5t-6 -61zM22 30q0 2 0.5 5.5t0.5 4.5l424 732q15 -8 29 -19.5t12 -30.5l-408 -720
q0 -1 -6.5 -2t-9.5 -1q-15 0 -28.5 7t-13.5 24z" />
    <glyph glyph-name="Ugrave" unicode="&#xd9;" horiz-adv-x="512" 
d="M396 94q-80 -68 -138.5 -87.5t-99 -3t-65 63t-38.5 111.5t-19 142.5t-6 155.5t0 151.5t0 129.5q3 10 10.5 11t17 -1.5t19.5 -6.5t18 -5q6 -42 6 -103.5t-1 -131t0 -141t9.5 -131.5t26.5 -103t51.5 -57t84 8.5t124.5 92.5q-4 65 -6.5 138t-0.5 149t12 151.5t31 144.5
q17 0 33 0.5t24 -19.5q-15 -62 -23 -103t-11.5 -76t-3.5 -73.5v-95.5q0 -52 3.5 -103t8 -102t8.5 -102t4 -103q-19 0 -36 7.5t-28.5 21t-16 31.5t1.5 39zM147 901q-6 13 -5.5 26t7 22t18 13t28.5 -1l143 -107q4 -25 -7.5 -41t-34.5 -14q-17 9 -36.5 23.5t-39.5 29.5
t-39 28.5t-34 20.5z" />
    <glyph glyph-name="Uacute" unicode="&#xda;" horiz-adv-x="506" 
d="M396 94q-80 -68 -138.5 -87.5t-99 -3t-65 63t-38.5 111.5t-19 142.5t-6 155.5t0 151.5t0 129.5q3 10 10.5 11t17 -1.5t19.5 -6.5t18 -5q6 -42 6 -103.5t-1 -131t0 -141t9.5 -131.5t26.5 -103t51.5 -57t84 8.5t124.5 92.5q-4 65 -6.5 138t-0.5 149t12 151.5t31 144.5
q17 0 33 0.5t24 -19.5q-15 -62 -23 -103t-11.5 -76t-3.5 -73.5v-95.5q0 -52 3.5 -103t8 -102t8.5 -102t4 -103q-19 0 -36 7.5t-28.5 21t-16 31.5t1.5 39zM345 881q-15 -7 -34 -20.5t-39 -28.5t-39.5 -29.5t-36.5 -23.5q-23 -2 -34.5 14t-7.5 41l143 107q16 5 28 1t18.5 -13
t7 -22t-5.5 -26z" />
    <glyph glyph-name="Ucircumflex" unicode="&#xdb;" horiz-adv-x="512" 
d="M396 94q-80 -68 -138.5 -87.5t-99 -3t-65 63t-38.5 111.5t-19 142.5t-6 155.5t0 151.5t0 129.5q3 10 10.5 11t17 -1.5t19.5 -6.5t18 -5q6 -42 6 -103.5t-1 -131t0 -141t9.5 -131.5t26.5 -103t51.5 -57t84 8.5t124.5 92.5q-4 65 -6.5 138t-0.5 149t12 151.5t31 144.5
q17 0 33 0.5t24 -19.5q-15 -62 -23 -103t-11.5 -76t-3.5 -73.5v-95.5q0 -52 3.5 -103t8 -102t8.5 -102t4 -103q-19 0 -36 7.5t-28.5 21t-16 31.5t1.5 39zM205 796q-35 -22 -54 -12.5t-11 51.5l79 102q3 8 12 14.5t20 9.5t21 1t15 -10l96 -122q0 -23 -7 -34t-16.5 -14.5
t-21 -1.5t-21.5 5q-17 20 -31 39t-31 42l-50 -70v0z" />
    <glyph glyph-name="Udieresis" unicode="&#xdc;" horiz-adv-x="499" 
d="M396 94q-80 -68 -138.5 -87.5t-99 -3t-65 63t-38.5 111.5t-19 142.5t-6 155.5t0 151.5t0 129.5q3 10 10.5 11t17 -1.5t19.5 -6.5t18 -5q6 -42 6 -103.5t-1 -131t0 -141t9.5 -131.5t26.5 -103t51.5 -57t84 8.5t124.5 92.5q-4 65 -6.5 138t-0.5 149t12 151.5t31 144.5
q17 0 33 0.5t24 -19.5q-15 -62 -23 -103t-11.5 -76t-3.5 -73.5v-95.5q0 -52 3.5 -103t8 -102t8.5 -102t4 -103q-19 0 -36 7.5t-28.5 21t-16 31.5t1.5 39zM114 867q7 0 21 0.5t28 -2.5t24.5 -10.5t10.5 -22.5q0 -7 -1.5 -15.5t-4.5 -16t-8.5 -12.5t-14.5 -5q-15 0 -25 9
t-17 22t-10 27.5t-3 25.5zM256 867q7 0 21 0.5t28 -2.5t24.5 -10.5t10.5 -22.5q0 -7 -1.5 -15.5t-4.5 -16t-8.5 -12.5t-14.5 -5q-15 0 -25 9t-17 22t-10 27.5t-3 25.5z" />
    <glyph glyph-name="Yacute" unicode="&#xdd;" horiz-adv-x="577" 
d="M280 -33q-23 0 -36.5 18.5t-11.5 40.5q1 9 8 30.5t16.5 49t20 58.5t19 58.5t14 48.5t4.5 29q-45 58 -84 109.5t-73 104t-64 109.5t-57 125q3 10 9.5 14.5t14 5.5t16.5 0.5t17 -1.5q24 -52 50.5 -105.5t58 -104.5t68.5 -97.5t82 -84.5q42 104 71 174.5t47 116t28 69
t14.5 34t5.5 12t2 1.5q42 0 42 -41q0 -3 -1 -10t-1 -8l-272 -754q0 -1 -3 -1.5t-5 -0.5zM404 899q-15 -7 -34 -20.5t-39 -28.5t-39.5 -29.5t-36.5 -23.5q-23 -2 -34.5 14t-7.5 41l143 107q16 5 28 1t18.5 -13t7 -22t-5.5 -26z" />
    <glyph glyph-name="Thorn" unicode="&#xde;" horiz-adv-x="451" 
d="M35 686q12 13 24 17.5t22 2.5t16.5 -9.5t8.5 -19.5v-29v-35.5t-0.5 -36.5t-0.5 -32q79 44 138.5 45.5t99 -26t61 -78.5t25.5 -111.5t-9 -124t-41 -117t-71 -90.5t-100 -44q-9 0 -36 -2t-56 -2l4 -140q-12 -13 -24 -17.5t-22 -2.5t-17 9.5t-8 19.5q3 8 2 26t-3.5 39.5
t-5 44.5t-2.5 40zM105 410q-3 -41 -3 -85t2.5 -87.5t5.5 -85t6 -77.5h14.5t22.5 -0.5t23 -0.5h15q44 1 77.5 31t53.5 75t26.5 98.5t-1.5 102t-32 85t-64 47.5q-28 0 -53 -5t-45 -16.5t-32.5 -31.5t-15.5 -50z" />
    <glyph glyph-name="germandbls" unicode="&#xdf;" horiz-adv-x="632" 
d="M119 -100q0 -11 -10 -20t-22 -11.5t-22 3.5t-10 25q-3 103 -3 189.5t2 169t4 165.5t2 179q0 49 17 82.5t47 54t71.5 29.5t91.5 8q23 0 46 -4t42 -14.5t30.5 -28.5t11.5 -48q-2 -28 -9.5 -53.5t-18 -47t-21.5 -39t-19 -30.5q30 -19 59.5 -30t57 -21t51.5 -20.5t41.5 -28.5
t27.5 -45.5t10 -70.5q0 -67 -23.5 -121t-64.5 -92.5t-98 -59.5t-123 -22q-9 0 -14 11t-4 24.5t7.5 26t19.5 14.5q49 9 93 23t77 39t52.5 63t19.5 94q0 40 -21 64.5t-52 38t-68 17.5t-68 4q-35 0 -73.5 -8t-69.5 -8q-34 2 -35.5 20t19.5 38q12 4 24.5 6t25.5 6.5t26.5 14.5
t28.5 30.5t32 55t36 88.5q0 25 -16 38t-39 16t-50 -2.5t-50 -18t-38.5 -31t-15.5 -40.5q-9 -87 -12.5 -176.5t-4 -180t0.5 -182.5t1 -183z" />
    <glyph glyph-name="agrave" unicode="&#xe0;" horiz-adv-x="522" 
d="M26 263q-2 20 3.5 53.5t17.5 71.5t30 77t42 70.5t52 51t61 19.5q65 6 105.5 -25.5t66.5 -86.5l-3 -308q0 -22 14 -37.5t34 -25.5t43.5 -14.5t42.5 -4.5q14 1 20 -10t5.5 -24.5t-7 -25.5t-16.5 -13q-44 1 -75 8t-53 21.5t-38 36t-30 50.5q-12 -22 -29.5 -48t-40 -48
t-48 -37t-53.5 -15q-47 0 -75.5 28.5t-43.5 69.5t-20 86.5t-5 79.5zM99 255q0 -17 3 -47t11.5 -60t24 -52t41.5 -22q29 -3 49 15.5t36 54.5t31 87t33 114q12 76 0 119.5t-37.5 59t-58.5 4t-62.5 -47t-50 -92.5t-20.5 -133zM134 756q-6 13 -5.5 26t7 22t18 13t28.5 -1
l143 -107q4 -25 -7.5 -41t-34.5 -14q-17 9 -36.5 23.5t-39.5 29.5t-39 28.5t-34 20.5z" />
    <glyph glyph-name="aacute" unicode="&#xe1;" horiz-adv-x="522" 
d="M26 263q-2 20 3.5 53.5t17.5 71.5t30 77t42 70.5t52 51t61 19.5q65 6 105.5 -25.5t66.5 -86.5l-3 -308q0 -22 14 -37.5t34 -25.5t43.5 -14.5t42.5 -4.5q14 1 20 -10t5.5 -24.5t-7 -25.5t-16.5 -13q-44 1 -75 8t-53 21.5t-38 36t-30 50.5q-12 -22 -29.5 -48t-40 -48
t-48 -37t-53.5 -15q-47 0 -75.5 28.5t-43.5 69.5t-20 86.5t-5 79.5zM99 255q0 -17 3 -47t11.5 -60t24 -52t41.5 -22q29 -3 49 15.5t36 54.5t31 87t33 114q12 76 0 119.5t-37.5 59t-58.5 4t-62.5 -47t-50 -92.5t-20.5 -133zM341 759q-15 -7 -34 -20.5t-39 -28.5t-39.5 -29.5
t-36.5 -23.5q-23 -2 -34.5 14t-7.5 41l143 107q16 5 28 1t18.5 -13t7 -22t-5.5 -26z" />
    <glyph glyph-name="acircumflex" unicode="&#xe2;" horiz-adv-x="522" 
d="M26 263q-2 20 3.5 53.5t17.5 71.5t30 77t42 70.5t52 51t61 19.5q65 6 105.5 -25.5t66.5 -86.5l-3 -308q0 -22 14 -37.5t34 -25.5t43.5 -14.5t42.5 -4.5q14 1 20 -10t5.5 -24.5t-7 -25.5t-16.5 -13q-44 1 -75 8t-53 21.5t-38 36t-30 50.5q-12 -22 -29.5 -48t-40 -48
t-48 -37t-53.5 -15q-47 0 -75.5 28.5t-43.5 69.5t-20 86.5t-5 79.5zM99 255q0 -17 3 -47t11.5 -60t24 -52t41.5 -22q29 -3 49 15.5t36 54.5t31 87t33 114q12 76 0 119.5t-37.5 59t-58.5 4t-62.5 -47t-50 -92.5t-20.5 -133zM193 664q-35 -22 -54 -12.5t-11 51.5l79 102
q3 8 12 14.5t20 9.5t21 1t15 -10l96 -122q0 -23 -7 -34t-16.5 -14.5t-21 -1.5t-21.5 5q-17 20 -31 39t-31 42l-50 -70v0z" />
    <glyph glyph-name="atilde" unicode="&#xe3;" horiz-adv-x="522" 
d="M26 263q-2 20 3.5 53.5t17.5 71.5t30 77t42 70.5t52 51t61 19.5q65 6 105.5 -25.5t66.5 -86.5l-3 -308q0 -22 14 -37.5t34 -25.5t43.5 -14.5t42.5 -4.5q14 1 20 -10t5.5 -24.5t-7 -25.5t-16.5 -13q-44 1 -75 8t-53 21.5t-38 36t-30 50.5q-12 -22 -29.5 -48t-40 -48
t-48 -37t-53.5 -15q-47 0 -75.5 28.5t-43.5 69.5t-20 86.5t-5 79.5zM99 255q0 -17 3 -47t11.5 -60t24 -52t41.5 -22q29 -3 49 15.5t36 54.5t31 87t33 114q12 76 0 119.5t-37.5 59t-58.5 4t-62.5 -47t-50 -92.5t-20.5 -133zM23 696q8 22 16 50.5t19 54t28 43.5t43 18
q15 0 35 -2.5t45.5 -15t58 -38t72.5 -70.5q31 -15 44.5 -5t17 30t0.5 43t-3 35q5 10 15 15t21 4t20 -9t13 -24q2 -35 -1.5 -66.5t-17 -54t-38.5 -34.5t-66 -7q-25 3 -44.5 15t-35.5 27.5t-30 33.5t-28.5 32.5t-30 24.5t-34.5 10q-27 -11 -36.5 -29t-11 -36.5t1 -34
t-0.5 -21.5q-7 -13 -19 -18.5t-23.5 -3.5t-20 10.5t-9.5 22.5z" />
    <glyph glyph-name="adieresis" unicode="&#xe4;" horiz-adv-x="522" 
d="M26 263q-2 20 3.5 53.5t17.5 71.5t30 77t42 70.5t52 51t61 19.5q65 6 105.5 -25.5t66.5 -86.5l-3 -308q0 -22 14 -37.5t34 -25.5t43.5 -14.5t42.5 -4.5q14 1 20 -10t5.5 -24.5t-7 -25.5t-16.5 -13q-44 1 -75 8t-53 21.5t-38 36t-30 50.5q-12 -22 -29.5 -48t-40 -48
t-48 -37t-53.5 -15q-47 0 -75.5 28.5t-43.5 69.5t-20 86.5t-5 79.5zM99 255q0 -17 3 -47t11.5 -60t24 -52t41.5 -22q29 -3 49 15.5t36 54.5t31 87t33 114q12 76 0 119.5t-37.5 59t-58.5 4t-62.5 -47t-50 -92.5t-20.5 -133zM111 712q7 0 21 0.5t28 -2.5t24.5 -10.5
t10.5 -22.5q0 -7 -1.5 -15.5t-4.5 -16t-8.5 -12.5t-14.5 -5q-15 0 -25 9t-17 22t-10 27.5t-3 25.5zM253 712q7 0 21 0.5t28 -2.5t24.5 -10.5t10.5 -22.5q0 -7 -1.5 -15.5t-4.5 -16t-8.5 -12.5t-14.5 -5q-15 0 -25 9t-17 22t-10 27.5t-3 25.5z" />
    <glyph glyph-name="aring" unicode="&#xe5;" horiz-adv-x="522" 
d="M26 263q-2 20 3.5 53.5t17.5 71.5t30 77t42 70.5t52 51t61 19.5q65 6 105.5 -25.5t66.5 -86.5l-3 -308q0 -22 14 -37.5t34 -25.5t43.5 -14.5t42.5 -4.5q14 1 20 -10t5.5 -24.5t-7 -25.5t-16.5 -13q-44 1 -75 8t-53 21.5t-38 36t-30 50.5q-12 -22 -29.5 -48t-40 -48
t-48 -37t-53.5 -15q-47 0 -75.5 28.5t-43.5 69.5t-20 86.5t-5 79.5zM99 255q0 -17 3 -47t11.5 -60t24 -52t41.5 -22q29 -3 49 15.5t36 54.5t31 87t33 114q12 76 0 119.5t-37.5 59t-58.5 4t-62.5 -47t-50 -92.5t-20.5 -133zM131 739q0 30 19.5 52t48.5 33q18 7 43.5 -1
t49.5 -24t41.5 -35.5t17.5 -36.5q1 -27 -15 -46t-40.5 -29.5t-53.5 -11.5t-53.5 9.5t-41 32.5t-16.5 57zM211 773q-17 -17 -19 -25.5t-7 -17.5q-5 -11 9 -19t33 -10t37 4t20 23q1 11 -5 19.5t-16.5 14t-24.5 8.5t-27 3z" />
    <glyph glyph-name="ae" unicode="&#xe6;" horiz-adv-x="722" 
d="M28 272q-2 20 3 54.5t16 74t28 80.5t40 74.5t50.5 54t60.5 20.5q61 5 100 -22.5t65 -76.5q23 36 59.5 55.5t102.5 19.5q46 0 77.5 -21t31.5 -71q0 -55 -21.5 -93t-57 -64.5t-79.5 -43.5t-89 -30q0 -5 -0.5 -19t-0.5 -19q2 -35 9 -61.5t18 -46.5q9 -26 22.5 -42.5t40 -23
t70 -3t112.5 17.5q19 4 27 -2t4.5 -16.5t-18.5 -24.5t-42 -25.5t-65.5 -19.5t-89.5 -7q-50 0 -76 14.5t-40.5 37.5t-22 52.5t-20.5 60.5q-12 -22 -29.5 -48t-40 -48t-48 -37t-53.5 -15q-47 0 -75.5 28.5t-43.5 69.5t-20 86.5t-5 79.5zM101 264q0 -17 3 -47t11.5 -60t24 -52
t41.5 -22q29 -3 49 15.5t36 54.5t31 87t33 114q17 82 7.5 129t-34 63.5t-58.5 4t-65 -50t-54 -97.5t-25 -139zM414 386q0 -8 3.5 -18t15.5 -10q24 0 51 11.5t49.5 29.5t37.5 41.5t15 47.5q0 25 -5 42.5t-33 17.5q-35 0 -60 -13t-41.5 -35.5t-24.5 -52t-8 -61.5z" />
    <glyph glyph-name="ccedilla" unicode="&#xe7;" horiz-adv-x="396" 
d="M27 348q0 34 5.5 76.5t22 79.5t45.5 62t77 25q30 0 56.5 -11t46 -31t31 -47t11.5 -58q-28 0 -44 11t-29 24.5t-25.5 24.5t-32.5 11q-36 0 -54 -18t-26 -44t-8.5 -54.5t-0.5 -50.5t2.5 -51t9.5 -59.5t18 -59.5t28 -52t40.5 -37t54.5 -14q16 0 28 6.5t23.5 15t24 15
t28.5 6.5q0 -24 -12.5 -46t-31.5 -38t-43 -25.5t-46 -9.5q-35 0 -63.5 19t-50.5 49t-38 68t-26.5 77t-15.5 74.5t-5 61.5zM103 -123q19 24 28.5 29.5t14.5 0.5t9 -18t11.5 -25.5t21.5 -21.5t40 -7q18 4 32.5 13t14.5 18q0 23 -19 38.5t-41.5 29.5t-41 29t-18.5 38
q0 33 11.5 46t25 10t25 -18.5t11.5 -37.5q0 -24 20.5 -39.5t45 -29.5t45 -29.5t20.5 -39.5q0 -19 -16 -37.5t-41 -31t-54 -16.5t-54 5q-22 0 -40 9t-30.5 23t-18 30.5t-2.5 31.5z" />
    <glyph glyph-name="egrave" unicode="&#xe8;" horiz-adv-x="412" 
d="M-93 461q0 12 6.5 20.5t15 12t17.5 1.5t15 -10q8 -56 20.5 -80.5t26 -33t25.5 -7.5t19 -2q3 55 14.5 100.5t36 77.5t64.5 49.5t101 16.5q46 0 77.5 -21t31.5 -71q0 -55 -22.5 -90t-59 -58t-81.5 -37t-90 -27q0 -2 1 -10.5t1.5 -18t1.5 -18t1 -10.5q6 -71 28 -109.5
t51.5 -55t63 -16.5t62 6.5t47.5 13t20 2.5q5 -13 1 -28t-20.5 -28t-48.5 -21.5t-82 -9.5q-43 0 -73 13t-51 35.5t-33.5 52t-20.5 62.5t-14 66.5t-12 64.5q-26 -4 -47 5t-37.5 25.5t-28.5 37t-19 40.5t-9 36.5t1 23.5zM122 375q31 -2 67 10.5t66 32t49 42.5t16 43
q-2 18 -15 31.5t-42 13.5q-35 0 -61 -15t-44 -39.5t-27 -55.5t-9 -63zM114 730q-6 13 -5.5 26t7 22t18 13t28.5 -1l143 -107q4 -25 -7.5 -41t-34.5 -14q-17 9 -36.5 23.5t-39.5 29.5t-39 28.5t-34 20.5z" />
    <glyph glyph-name="eacute" unicode="&#xe9;" horiz-adv-x="418" 
d="M-87 461q0 12 6.5 20.5t15 12t17.5 1.5t15 -10q8 -56 20.5 -80.5t26 -33t25.5 -7.5t19 -2q3 55 14.5 100.5t36 77.5t64.5 49.5t101 16.5q46 0 77.5 -21t31.5 -71q0 -55 -22.5 -90t-59 -58t-81.5 -37t-90 -27q0 -2 1 -10.5t1.5 -18t1.5 -18t1 -10.5q6 -71 28 -109.5
t51.5 -55t63 -16.5t62 6.5t47.5 13t20 2.5q5 -13 1 -28t-20.5 -28t-48.5 -21.5t-82 -9.5q-43 0 -73 13t-51 35.5t-33.5 52t-20.5 62.5t-14 66.5t-12 64.5q-26 -4 -47 5t-37.5 25.5t-28.5 37t-19 40.5t-9 36.5t1 23.5zM128 375q31 -2 67 10.5t66 32t49 42.5t16 43
q-2 18 -15 31.5t-42 13.5q-35 0 -61 -15t-44 -39.5t-27 -55.5t-9 -63zM312 717q-15 -7 -34 -20.5t-39 -28.5t-39.5 -29.5t-36.5 -23.5q-23 -2 -34.5 14t-7.5 41l143 107q16 5 28 1t18.5 -13t7 -22t-5.5 -26z" />
    <glyph glyph-name="ecircumflex" unicode="&#xea;" horiz-adv-x="408" 
d="M-97 461q0 12 6.5 20.5t15 12t17.5 1.5t15 -10q8 -56 20.5 -80.5t26 -33t25.5 -7.5t19 -2q3 55 14.5 100.5t36 77.5t64.5 49.5t101 16.5q46 0 77.5 -21t31.5 -71q0 -55 -22.5 -90t-59 -58t-81.5 -37t-90 -27q0 -2 1 -10.5t1.5 -18t1.5 -18t1 -10.5q6 -71 28 -109.5
t51.5 -55t63 -16.5t62 6.5t47.5 13t20 2.5q5 -13 1 -28t-20.5 -28t-48.5 -21.5t-82 -9.5q-43 0 -73 13t-51 35.5t-33.5 52t-20.5 62.5t-14 66.5t-12 64.5q-26 -4 -47 5t-37.5 25.5t-28.5 37t-19 40.5t-9 36.5t1 23.5zM118 375q31 -2 67 10.5t66 32t49 42.5t16 43
q-2 18 -15 31.5t-42 13.5q-35 0 -61 -15t-44 -39.5t-27 -55.5t-9 -63zM158 648q-35 -22 -54 -12.5t-11 51.5l79 102q3 8 12 14.5t20 9.5t21 1t15 -10l96 -122q0 -23 -7 -34t-16.5 -14.5t-21 -1.5t-21.5 5q-17 20 -31 39t-31 42l-50 -70v0z" />
    <glyph glyph-name="edieresis" unicode="&#xeb;" horiz-adv-x="408" 
d="M-97 461q0 12 6.5 20.5t15 12t17.5 1.5t15 -10q8 -56 20.5 -80.5t26 -33t25.5 -7.5t19 -2q3 55 14.5 100.5t36 77.5t64.5 49.5t101 16.5q46 0 77.5 -21t31.5 -71q0 -55 -22.5 -90t-59 -58t-81.5 -37t-90 -27q0 -2 1 -10.5t1.5 -18t1.5 -18t1 -10.5q6 -71 28 -109.5
t51.5 -55t63 -16.5t62 6.5t47.5 13t20 2.5q5 -13 1 -28t-20.5 -28t-48.5 -21.5t-82 -9.5q-43 0 -73 13t-51 35.5t-33.5 52t-20.5 62.5t-14 66.5t-12 64.5q-26 -4 -47 5t-37.5 25.5t-28.5 37t-19 40.5t-9 36.5t1 23.5zM118 375q31 -2 67 10.5t66 32t49 42.5t16 43
q-2 18 -15 31.5t-42 13.5q-35 0 -61 -15t-44 -39.5t-27 -55.5t-9 -63zM96 728q7 0 21 0.5t28 -2.5t24.5 -10.5t10.5 -22.5q0 -7 -1.5 -15.5t-4.5 -16t-8.5 -12.5t-14.5 -5q-15 0 -25 9t-17 22t-10 27.5t-3 25.5zM238 728q7 0 21 0.5t28 -2.5t24.5 -10.5t10.5 -22.5
q0 -7 -1.5 -15.5t-4.5 -16t-8.5 -12.5t-14.5 -5q-15 0 -25 9t-17 22t-10 27.5t-3 25.5z" />
    <glyph glyph-name="igrave" unicode="&#xec;" horiz-adv-x="151" 
d="M40 538q-1 10 5.5 14.5t16 5.5t19.5 0t16 -1q15 -52 22.5 -122.5t11 -145t3.5 -145.5v-125h-77zM-12 704q-6 13 -5.5 26t7 22t18 13t28.5 -1l143 -107q4 -25 -7.5 -41t-34.5 -14q-17 9 -36.5 23.5t-39.5 29.5t-39 28.5t-34 20.5z" />
    <glyph glyph-name="iacute" unicode="&#xed;" horiz-adv-x="151" 
d="M43 548q-1 10 5.5 14.5t16 5.5t19.5 0t16 -1q15 -52 22 -124t10 -148.5t2.5 -149t-0.5 -126.5h-77zM166 727q-15 -7 -34 -20.5t-39 -28.5t-39.5 -29.5t-36.5 -23.5q-23 -2 -34.5 14t-7.5 41l143 107q16 5 28 1t18.5 -13t7 -22t-5.5 -26z" />
    <glyph glyph-name="icircumflex" unicode="&#xee;" horiz-adv-x="151" 
d="M33 535q-1 10 5.5 14.5t16 5.5t19.5 0t16 -1q15 -52 23.5 -122t13 -144t6 -144.5t1.5 -124.5h-77zM12 635q-35 -22 -54 -12.5t-11 51.5l79 102q3 8 12 14.5t20 9.5t21 1t15 -10l96 -122q0 -23 -7 -34t-16.5 -14.5t-21 -1.5t-21.5 5q-17 20 -31 39t-31 42z" />
    <glyph glyph-name="idieresis" unicode="&#xef;" horiz-adv-x="151" 
d="M46 545q-1 10 5.5 14.5t16 5.5t19.5 0t16 -1q15 -52 21.5 -123.5t9 -147.5t1.5 -148t-1 -126h-77zM-33 718q7 0 21 0.5t28 -2.5t24.5 -10.5t10.5 -22.5q0 -7 -1.5 -15.5t-4.5 -16t-8.5 -12.5t-14.5 -5q-15 0 -25 9t-17 22t-10 27.5t-3 25.5zM109 718q7 0 21 0.5t28 -2.5
t24.5 -10.5t10.5 -22.5q0 -7 -1.5 -15.5t-4.5 -16t-8.5 -12.5t-14.5 -5q-15 0 -25 9t-17 22t-10 27.5t-3 25.5z" />
    <glyph glyph-name="ntilde" unicode="&#xf1;" horiz-adv-x="528" 
d="M24 572q-1 11 8 15.5t22 6t25.5 0t19.5 -2.5q-1 -7 -1 -23.5t1 -38.5t3.5 -45.5t6.5 -43.5q19 16 44.5 39t54 44t59 35.5t59.5 14.5q33 0 56 -17t39 -43t24.5 -56t12.5 -55q1 -5 1.5 -28.5t1 -57.5t1 -74t2 -77.5t3 -69.5t3.5 -49v-11q0 -17 -12 -22.5t-26 -5.5
q-12 0 -22.5 2t-15.5 18q-1 12 -1.5 41t-1.5 67t-1.5 79.5t-1.5 79.5t-2.5 67t-3.5 41q-2 14 -7 31t-14 31.5t-22 24.5t-31 10q-29 0 -58 -20t-55 -46t-46.5 -51t-30.5 -36q0 -30 -1 -68t-2.5 -78t-2.5 -79t0 -70q0 -10 -0.5 -19.5t-4 -18t-11.5 -14.5t-23 -10q-8 -2 -22 5
t-15 14l-12 564v0zM15 654q8 22 16 50.5t19 54t28 43.5t43 18q15 0 35 -2.5t45.5 -15t58 -38t72.5 -70.5q31 -15 44.5 -5t17 30t0.5 43t-3 35q5 10 15 15t21 4t20 -9t13 -24q2 -35 -1.5 -66.5t-17 -54t-38.5 -34.5t-66 -7q-25 3 -44.5 15t-35.5 27.5t-30 33.5t-28.5 32.5
t-30 24.5t-34.5 10q-27 -11 -36.5 -29t-11 -36.5t1 -34t-0.5 -21.5q-7 -13 -19 -18.5t-23.5 -3.5t-20 10.5t-9.5 22.5z" />
    <glyph glyph-name="ograve" unicode="&#xf2;" horiz-adv-x="415" 
d="M17 179q-5 25 -3.5 67t9 89.5t22.5 95.5t38 85.5t55 58.5t73 15q61 0 99 -17.5t59.5 -49t31 -74.5t12.5 -94q5 -33 2 -73.5t-14 -81.5t-30 -78.5t-45.5 -66t-61 -44.5t-76.5 -12q-41 0 -73 13.5t-53.5 37.5t-33 57t-11.5 72zM87 213q0 -26 3.5 -50.5t14 -44.5t29 -32
t48.5 -12q40 0 70.5 32t51.5 77t31.5 92t10.5 77q0 49 -11.5 83t-28.5 55t-37.5 30.5t-38.5 11.5q-23 0 -43 -18t-36.5 -46.5t-29 -64t-20.5 -71t-11.5 -67t-2.5 -52.5zM119 739q-6 13 -5.5 26t7 22t18 13t28.5 -1l143 -107q4 -25 -7.5 -41t-34.5 -14q-17 9 -36.5 23.5
t-39.5 29.5t-39 28.5t-34 20.5z" />
    <glyph glyph-name="oacute" unicode="&#xf3;" horiz-adv-x="415" 
d="M17 179q-5 25 -3.5 67t9 89.5t22.5 95.5t38 85.5t55 58.5t73 15q61 0 99 -17.5t59.5 -49t31 -74.5t12.5 -94q5 -33 2 -73.5t-14 -81.5t-30 -78.5t-45.5 -66t-61 -44.5t-76.5 -12q-41 0 -73 13.5t-53.5 37.5t-33 57t-11.5 72zM87 213q0 -26 3.5 -50.5t14 -44.5t29 -32
t48.5 -12q40 0 70.5 32t51.5 77t31.5 92t10.5 77q0 49 -11.5 83t-28.5 55t-37.5 30.5t-38.5 11.5q-23 0 -43 -18t-36.5 -46.5t-29 -64t-20.5 -71t-11.5 -67t-2.5 -52.5zM304 727q-15 -7 -34 -20.5t-39 -28.5t-39.5 -29.5t-36.5 -23.5q-23 -2 -34.5 14t-7.5 41l143 107
q16 5 28 1t18.5 -13t7 -22t-5.5 -26z" />
    <glyph glyph-name="ocircumflex" unicode="&#xf4;" horiz-adv-x="415" 
d="M17 179q-5 25 -3.5 67t9 89.5t22.5 95.5t38 85.5t55 58.5t73 15q61 0 99 -17.5t59.5 -49t31 -74.5t12.5 -94q5 -33 2 -73.5t-14 -81.5t-30 -78.5t-45.5 -66t-61 -44.5t-76.5 -12q-41 0 -73 13.5t-53.5 37.5t-33 57t-11.5 72zM87 213q0 -26 3.5 -50.5t14 -44.5t29 -32
t48.5 -12q40 0 70.5 32t51.5 77t31.5 92t10.5 77q0 49 -11.5 83t-28.5 55t-37.5 30.5t-38.5 11.5q-23 0 -43 -18t-36.5 -46.5t-29 -64t-20.5 -71t-11.5 -67t-2.5 -52.5zM134 645q-35 -22 -54 -12.5t-11 51.5l79 102q3 8 12 14.5t20 9.5t21 1t15 -10l96 -122q0 -23 -7 -34
t-16.5 -14.5t-21 -1.5t-21.5 5q-17 20 -31 39t-31 42l-50 -70v0z" />
    <glyph glyph-name="otilde" unicode="&#xf5;" horiz-adv-x="415" 
d="M17 179q-5 25 -3.5 67t9 89.5t22.5 95.5t38 85.5t55 58.5t73 15q61 0 99 -17.5t59.5 -49t31 -74.5t12.5 -94q5 -33 2 -73.5t-14 -81.5t-30 -78.5t-45.5 -66t-61 -44.5t-76.5 -12q-41 0 -73 13.5t-53.5 37.5t-33 57t-11.5 72zM87 213q0 -26 3.5 -50.5t14 -44.5t29 -32
t48.5 -12q40 0 70.5 32t51.5 77t31.5 92t10.5 77q0 49 -11.5 83t-28.5 55t-37.5 30.5t-38.5 11.5q-23 0 -43 -18t-36.5 -46.5t-29 -64t-20.5 -71t-11.5 -67t-2.5 -52.5zM8 638q8 22 16 50.5t19 54t28 43.5t43 18q15 0 35 -2.5t45.5 -15t58 -38t72.5 -70.5q31 -15 44.5 -5
t17 30t0.5 43t-3 35q5 10 15 15t21 4t20 -9t13 -24q2 -35 -1.5 -66.5t-17 -54t-38.5 -34.5t-66 -7q-25 3 -44.5 15t-35.5 27.5t-30 33.5t-28.5 32.5t-30 24.5t-34.5 10q-27 -11 -36.5 -29t-11 -36.5t1 -34t-0.5 -21.5q-7 -13 -19 -18.5t-23.5 -3.5t-20 10.5t-9.5 22.5z" />
    <glyph glyph-name="odieresis" unicode="&#xf6;" horiz-adv-x="415" 
d="M17 179q-5 25 -3.5 67t9 89.5t22.5 95.5t38 85.5t55 58.5t73 15q61 0 99 -17.5t59.5 -49t31 -74.5t12.5 -94q5 -33 2 -73.5t-14 -81.5t-30 -78.5t-45.5 -66t-61 -44.5t-76.5 -12q-41 0 -73 13.5t-53.5 37.5t-33 57t-11.5 72zM87 213q0 -26 3.5 -50.5t14 -44.5t29 -32
t48.5 -12q40 0 70.5 32t51.5 77t31.5 92t10.5 77q0 49 -11.5 83t-28.5 55t-37.5 30.5t-38.5 11.5q-23 0 -43 -18t-36.5 -46.5t-29 -64t-20.5 -71t-11.5 -67t-2.5 -52.5zM97 728q7 0 21 0.5t28 -2.5t24.5 -10.5t10.5 -22.5q0 -7 -1.5 -15.5t-4.5 -16t-8.5 -12.5t-14.5 -5
q-15 0 -25 9t-17 22t-10 27.5t-3 25.5zM239 728q7 0 21 0.5t28 -2.5t24.5 -10.5t10.5 -22.5q0 -7 -1.5 -15.5t-4.5 -16t-8.5 -12.5t-14.5 -5q-15 0 -25 9t-17 22t-10 27.5t-3 25.5z" />
    <glyph glyph-name="divide" unicode="&#xf7;" horiz-adv-x="380" 
d="M28 281q-15 7 -18 18.5t1.5 22.5t14.5 20.5t21 13.5q10 1 30.5 2.5t46.5 3t54.5 4t55 4t47 3t30.5 2.5h11q17 0 23 -12.5t6 -26.5q0 -12 -5.5 -19t-14 -10.5t-19 -4.5t-20.5 -2t-30.5 -2.5t-47 -3t-55 -4t-54.5 -4t-46.5 -3t-30.5 -2.5zM147 148q11 23 24 31.5t34 8.5
q17 0 26.5 -7.5t9.5 -32.5q0 -39 -27 -39q-19 0 -38 11.5t-29 27.5zM146 478q0 18 15 33t33 15q15 0 22.5 -10t10 -24t2.5 -28v-21h-21.5t-27.5 2.5t-24 10t-10 22.5z" />
    <glyph glyph-name="oslash" unicode="&#xf8;" horiz-adv-x="415" 
d="M17 179q-5 25 -3.5 67t9 89.5t22.5 95.5t38 85.5t55 58.5t73 15q61 0 99 -17.5t59.5 -49t31 -74.5t12.5 -94q5 -33 2 -73.5t-14 -81.5t-30 -78.5t-45.5 -66t-61 -44.5t-76.5 -12q-41 0 -73 13.5t-53.5 37.5t-33 57t-11.5 72zM87 213q0 -26 3.5 -50.5t14 -44.5t29 -32
t48.5 -12q40 0 70.5 32t51.5 77t31.5 92t10.5 77q0 49 -11.5 83t-28.5 55t-37.5 30.5t-38.5 11.5q-23 0 -43 -18t-36.5 -46.5t-29 -64t-20.5 -71t-11.5 -67t-2.5 -52.5zM-3.2793 -5.5498q0 1.74707 0.419922 4.80273q0.419922 3.05664 0.419922 3.92969l356.197 639.204
q12.6016 -6.98535 24.3633 -17.0273q11.7607 -10.042 10.0801 -26.6338l-342.756 -628.726q0 -0.873047 -5.45996 -1.74609q-5.46094 -0.874023 -7.98145 -0.874023q-12.6006 0 -23.9424 6.11328q-11.3408 6.1123 -11.3408 20.957z" />
    <glyph glyph-name="ugrave" unicode="&#xf9;" horiz-adv-x="457" 
d="M217 0q-49 3 -83.5 35t-57 81.5t-34 110t-14 120t2.5 112.5t16 88q2 0 9.5 1t9.5 1q12 0 22 -2.5t15 -18.5q-8 -102 0.5 -197.5t41.5 -190.5q21 -42 44 -52.5t45.5 2t43.5 43.5t39 72t31.5 87.5t21 89.5t8 79t-8.5 55q0 2 -3 10.5t-6 18t-6 18t-3 10.5q0 11 10 15t18 4
q30 -13 46 -44t19.5 -74.5t-3.5 -94.5t-22 -102.5t-37 -100t-48.5 -86.5t-56.5 -62.5t-60 -27.5zM91 704q-6 13 -5.5 26t7 22t18 13t28.5 -1l143 -107q4 -25 -7.5 -41t-34.5 -14q-17 9 -36.5 23.5t-39.5 29.5t-39 28.5t-34 20.5z" />
    <glyph glyph-name="uacute" unicode="&#xfa;" horiz-adv-x="467" 
d="M217 0q-49 3 -83.5 35t-57 81.5t-34 110t-14 120t2.5 112.5t16 88q2 0 9.5 1t9.5 1q12 0 22 -2.5t15 -18.5q-8 -102 0.5 -197.5t41.5 -190.5q21 -42 44 -52.5t45.5 2t43.5 43.5t39 72t31.5 87.5t21 89.5t8 79t-8.5 55q0 2 -3 10.5t-6 18t-6 18t-3 10.5q0 11 10 15t18 4
q30 -13 46 -44t19.5 -74.5t-3.5 -94.5t-22 -102.5t-37 -100t-48.5 -86.5t-56.5 -62.5t-60 -27.5zM288 704q-15 -7 -34 -20.5t-39 -28.5t-39.5 -29.5t-36.5 -23.5q-23 -2 -34.5 14t-7.5 41l143 107q16 5 28 1t18.5 -13t7 -22t-5.5 -26z" />
    <glyph glyph-name="ucircumflex" unicode="&#xfb;" horiz-adv-x="461" 
d="M217 0q-49 3 -83.5 35t-57 81.5t-34 110t-14 120t2.5 112.5t16 88q2 0 9.5 1t9.5 1q12 0 22 -2.5t15 -18.5q-8 -102 0.5 -197.5t41.5 -190.5q21 -42 44 -52.5t45.5 2t43.5 43.5t39 72t31.5 87.5t21 89.5t8 79t-8.5 55q0 2 -3 10.5t-6 18t-6 18t-3 10.5q0 11 10 15t18 4
q30 -13 46 -44t19.5 -74.5t-3.5 -94.5t-22 -102.5t-37 -100t-48.5 -86.5t-56.5 -62.5t-60 -27.5zM160 619q-35 -22 -54 -12.5t-11 51.5l79 102q3 8 12 14.5t20 9.5t21 1t15 -10l96 -122q0 -23 -7 -34t-16.5 -14.5t-21 -1.5t-21.5 5q-17 20 -31 39t-31 42l-50 -70v0z" />
    <glyph glyph-name="udieresis" unicode="&#xfc;" horiz-adv-x="467" 
d="M217 0q-49 3 -83.5 35t-57 81.5t-34 110t-14 120t2.5 112.5t16 88q2 0 9.5 1t9.5 1q12 0 22 -2.5t15 -18.5q-8 -102 0.5 -197.5t41.5 -190.5q21 -42 44 -52.5t45.5 2t43.5 43.5t39 72t31.5 87.5t21 89.5t8 79t-8.5 55q0 2 -3 10.5t-6 18t-6 18t-3 10.5q0 11 10 15t18 4
q30 -13 46 -44t19.5 -74.5t-3.5 -94.5t-22 -102.5t-37 -100t-48.5 -86.5t-56.5 -62.5t-60 -27.5zM100 712q7 0 21 0.5t28 -2.5t24.5 -10.5t10.5 -22.5q0 -7 -1.5 -15.5t-4.5 -16t-8.5 -12.5t-14.5 -5q-15 0 -25 9t-17 22t-10 27.5t-3 25.5zM242 712q7 0 21 0.5t28 -2.5
t24.5 -10.5t10.5 -22.5q0 -7 -1.5 -15.5t-4.5 -16t-8.5 -12.5t-14.5 -5q-15 0 -25 9t-17 22t-10 27.5t-3 25.5z" />
    <glyph glyph-name="yacute" unicode="&#xfd;" horiz-adv-x="551" 
d="M143 -239q18 69 47.5 146.5t58.5 150.5q-27 59 -51 107.5t-49 101t-53.5 115.5t-64.5 152q0 16 4 31.5t25 15.5q11 0 16.5 -4.5t11.5 -15.5l198 -380l169 396q5 11 12 15.5t17 4.5q13 -1 20 -9t9.5 -20t2 -24.5t-3.5 -22.5l-294 -760q-8 -14 -21 -20.5t-25 -6t-20.5 7.5
t-8.5 19zM376 701q-15 -7 -34 -20.5t-39 -28.5t-39.5 -29.5t-36.5 -23.5q-23 -2 -34.5 14t-7.5 41l143 107q16 5 28 1t18.5 -13t7 -22t-5.5 -26z" />
    <glyph glyph-name="thorn" unicode="&#xfe;" horiz-adv-x="448" 
d="M22 750q12 13 24 17.5t22 2.5t16.5 -9.5t8.5 -19.5v-44.5t-1 -49.5q79 44 138.5 45.5t99 -26t61 -78.5t25.5 -111.5t-9 -124t-41 -117t-71 -90.5t-100 -44q-9 0 -36 -2t-56 -2l-6 -100q-12 -13 -24 -17.5t-22 -2.5t-17 9.5t-8 19.5q7 16 4 45.5t-3 64.5zM92 513
q-3 -41 -3 -85t2.5 -87.5t5.5 -85t6 -77.5h14.5t22.5 -0.5t23 -0.5h15q44 1 77.5 31t53.5 75t26.5 98.5t-1.5 102t-32 85t-64 47.5q-28 0 -53 -5t-45 -16.5t-32.5 -31.5t-15.5 -50z" />
    <glyph glyph-name="ydieresis" unicode="&#xff;" horiz-adv-x="532" 
d="M125 -239q18 69 47.5 146.5t58.5 150.5q-27 59 -51 107.5t-49 101t-53.5 115.5t-64.5 152q0 16 4 31.5t25 15.5q11 0 16.5 -4.5t11.5 -15.5l198 -380l169 396q5 11 12 15.5t17 4.5q13 -1 20 -9t9.5 -20t2 -24.5t-3.5 -22.5l-294 -760q-8 -14 -21 -20.5t-25 -6t-20.5 7.5
t-8.5 19zM95 712q7 0 21 0.5t28 -2.5t24.5 -10.5t10.5 -22.5q0 -7 -1.5 -15.5t-4.5 -16t-8.5 -12.5t-14.5 -5q-15 0 -25 9t-17 22t-10 27.5t-3 25.5zM237 712q7 0 21 0.5t28 -2.5t24.5 -10.5t10.5 -22.5q0 -7 -1.5 -15.5t-4.5 -16t-8.5 -12.5t-14.5 -5q-15 0 -25 9t-17 22
t-10 27.5t-3 25.5z" />
    <glyph glyph-name="Amacron" unicode="&#x100;" 
d="M340 340q-8 0 -26.5 -2.5t-39.5 -5.5t-40 -6.5t-26 -4.5q-1 0 -3 -3t-6.5 -13.5t-12.5 -31.5t-20 -58.5t-29.5 -94t-41.5 -137.5h-75q9 24 21 70t25.5 95t25.5 92t21 62q-2 6 -8 7.5t-12.5 3.5t-12 7t-6.5 18q0 16 7 26t18 16.5t24.5 10t27.5 5.5q16 58 29.5 95.5t26 71
t25.5 70.5t28 95q4 7 15.5 20.5t26 25t29 16.5t24.5 -5l60 -351q4 3 14.5 6.5t22.5 6.5t23 5t16 1q3 -1 9 -5.5t12 -10.5t11 -12t5 -10q-8 -12 -22 -21t-29.5 -16t-32 -11.5t-29.5 -8.5q18 -88 21.5 -184.5t3.5 -184.5q-29 0 -46 19.5t-26 50t-12 69.5t-4.5 78t-3.5 74.5
t-8 59.5zM305 657q-29 -95 -45 -147.5t-23.5 -77.5t-8.5 -30.5l-1 -5.5l113 19v8q-2 19 -6.5 50.5t-10 65.5t-11 66t-7.5 52zM167 819q-15 7 -18 18.5t1.5 22.5t14.5 20.5t21 13.5q10 1 30.5 2.5t46.5 3t54.5 4t55 4t47 3t30.5 2.5h11q17 0 23 -12.5t6 -26.5q0 -12 -5.5 -19
t-14 -10.5t-19 -4.5t-20.5 -2t-30.5 -2.5t-47 -3t-55 -4t-54.5 -4t-46.5 -3t-30.5 -2.5z" />
    <glyph glyph-name="amacron" unicode="&#x101;" horiz-adv-x="522" 
d="M26 263q-2 20 3.5 53.5t17.5 71.5t30 77t42 70.5t52 51t61 19.5q65 6 105.5 -25.5t66.5 -86.5l-3 -308q0 -22 14 -37.5t34 -25.5t43.5 -14.5t42.5 -4.5q14 1 20 -10t5.5 -24.5t-7 -25.5t-16.5 -13q-44 1 -75 8t-53 21.5t-38 36t-30 50.5q-12 -22 -29.5 -48t-40 -48
t-48 -37t-53.5 -15q-47 0 -75.5 28.5t-43.5 69.5t-20 86.5t-5 79.5zM99 255q0 -17 3 -47t11.5 -60t24 -52t41.5 -22q29 -3 49 15.5t36 54.5t31 87t33 114q12 76 0 119.5t-37.5 59t-58.5 4t-62.5 -47t-50 -92.5t-20.5 -133zM77 612q-15 7 -18 18.5t1.5 22.5t14.5 20.5
t21 13.5q10 1 30.5 2.5t46.5 3t54.5 4t55 4t47 3t30.5 2.5h11q17 0 23 -12.5t6 -26.5q0 -12 -5.5 -19t-14 -10.5t-19 -4.5t-20.5 -2t-30.5 -2.5t-47 -3t-55 -4t-54.5 -4t-46.5 -3t-30.5 -2.5z" />
    <glyph glyph-name="Abreve" unicode="&#x102;" 
d="M340 340q-8 0 -26.5 -2.5t-39.5 -5.5t-40 -6.5t-26 -4.5q-1 0 -3 -3t-6.5 -13.5t-12.5 -31.5t-20 -58.5t-29.5 -94t-41.5 -137.5h-75q9 24 21 70t25.5 95t25.5 92t21 62q-2 6 -8 7.5t-12.5 3.5t-12 7t-6.5 18q0 16 7 26t18 16.5t24.5 10t27.5 5.5q16 58 29.5 95.5t26 71
t25.5 70.5t28 95q4 7 15.5 20.5t26 25t29 16.5t24.5 -5l60 -351q4 3 14.5 6.5t22.5 6.5t23 5t16 1q3 -1 9 -5.5t12 -10.5t11 -12t5 -10q-8 -12 -22 -21t-29.5 -16t-32 -11.5t-29.5 -8.5q18 -88 21.5 -184.5t3.5 -184.5q-29 0 -46 19.5t-26 50t-12 69.5t-4.5 78t-3.5 74.5
t-8 59.5zM305 657q-29 -95 -45 -147.5t-23.5 -77.5t-8.5 -30.5l-1 -5.5l113 19v8q-2 19 -6.5 50.5t-10 65.5t-11 66t-7.5 52zM138 958q3 23 20.5 22t35.5 -10q20 -37 43.5 -54t48 -21t48.5 2.5t44 16t34.5 19t20.5 12.5q9 5 22.5 7.5t25.5 0t18.5 -11t2.5 -24.5
q-49 -44 -94 -62.5t-84.5 -20t-72 11t-56.5 30.5t-38.5 37.5t-18.5 33.5q-1 3 -0.5 5.5t0.5 5.5z" />
    <glyph glyph-name="abreve" unicode="&#x103;" horiz-adv-x="522" 
d="M26 263q-2 20 3.5 53.5t17.5 71.5t30 77t42 70.5t52 51t61 19.5q65 6 105.5 -25.5t66.5 -86.5l-3 -308q0 -22 14 -37.5t34 -25.5t43.5 -14.5t42.5 -4.5q14 1 20 -10t5.5 -24.5t-7 -25.5t-16.5 -13q-44 1 -75 8t-53 21.5t-38 36t-30 50.5q-12 -22 -29.5 -48t-40 -48
t-48 -37t-53.5 -15q-47 0 -75.5 28.5t-43.5 69.5t-20 86.5t-5 79.5zM99 255q0 -17 3 -47t11.5 -60t24 -52t41.5 -22q29 -3 49 15.5t36 54.5t31 87t33 114q12 76 0 119.5t-37.5 59t-58.5 4t-62.5 -47t-50 -92.5t-20.5 -133zM90 771q3 23 20.5 22t35.5 -10q20 -37 43.5 -54
t48 -21t48.5 2.5t44 16t34.5 19t20.5 12.5q9 5 22.5 7.5t25.5 0t18.5 -11t2.5 -24.5q-49 -44 -94 -62.5t-84.5 -20t-72 11t-56.5 30.5t-38.5 37.5t-18.5 33.5q-1 3 -0.5 5.5t0.5 5.5z" />
    <glyph glyph-name="Aogonek" unicode="&#x104;" 
d="M340 340q-8 0 -26.5 -2.5t-39.5 -5.5t-40 -6.5t-26 -4.5q-1 0 -3 -3t-6.5 -13.5t-12.5 -31.5t-20 -58.5t-29.5 -94t-41.5 -137.5h-75q9 24 21 70t25.5 95t25.5 92t21 62q-2 6 -8 7.5t-12.5 3.5t-12 7t-6.5 18q0 16 7 26t18 16.5t24.5 10t27.5 5.5q16 58 29.5 95.5t26 71
t25.5 70.5t28 95q4 7 15.5 20.5t26 25t29 16.5t24.5 -5l60 -351q4 3 14.5 6.5t22.5 6.5t23 5t16 1q3 -1 9 -5.5t12 -10.5t11 -12t5 -10q-8 -12 -22 -21t-29.5 -16t-32 -11.5t-29.5 -8.5q18 -88 21.5 -184.5t3.5 -184.5q-29 0 -46 19.5t-26 50t-12 69.5t-4.5 78t-3.5 74.5
t-8 59.5zM305 657q-29 -95 -45 -147.5t-23.5 -77.5t-8.5 -30.5l-1 -5.5l113 19v8q-2 19 -6.5 50.5t-10 65.5t-11 66t-7.5 52zM508 -115q22 -24 19 -36.5t-19 -17t-39.5 -4.5h-42.5q-38 0 -60.5 15.5t-34.5 37.5t-16 47t-4 44q0 34 22 55.5t55 34.5q10 5 16 0t8.5 -14
t1.5 -19.5t-3 -18.5t-5 -10t-5 6q-25 -30 -29 -52t5 -37.5t27.5 -24t38.5 -12t38 -2t27 7.5z" />
    <glyph glyph-name="aogonek" unicode="&#x105;" horiz-adv-x="522" 
d="M26 263q-2 20 3.5 53.5t17.5 71.5t30 77t42 70.5t52 51t61 19.5q65 6 105.5 -25.5t66.5 -86.5l-3 -308q0 -22 14 -37.5t34 -25.5t43.5 -14.5t42.5 -4.5q14 1 20 -10t5.5 -24.5t-7 -25.5t-16.5 -13q-44 1 -75 8t-53 21.5t-38 36t-30 50.5q-12 -22 -29.5 -48t-40 -48
t-48 -37t-53.5 -15q-47 0 -75.5 28.5t-43.5 69.5t-20 86.5t-5 79.5zM99 255q0 -17 3 -47t11.5 -60t24 -52t41.5 -22q29 -3 49 15.5t36 54.5t31 87t33 114q12 76 0 119.5t-37.5 59t-58.5 4t-62.5 -47t-50 -92.5t-20.5 -133zM555 -76q22 -24 19 -36.5t-19 -17t-39.5 -4.5
h-42.5q-38 0 -60.5 15.5t-34.5 37.5t-16 47t-4 44q0 34 22 55.5t55 34.5q10 5 16 0t8.5 -14t1.5 -19.5t-3 -18.5t-5 -10t-5 6q-25 -30 -29 -52t5 -37.5t27.5 -24t38.5 -12t38 -2t27 7.5z" />
    <glyph glyph-name="Cacute" unicode="&#x106;" horiz-adv-x="503" 
d="M24 354q0 74 25 145.5t63.5 129.5t85.5 96t91.5 43.5t81 -27.5t53.5 -117q-2 0 -9 1t-15.5 2.5t-15.5 3t-9 2.5q-31 51 -64 59.5t-64.5 -12t-59 -62.5t-47.5 -91t-30.5 -97.5t-7.5 -82.5q2 -22 4 -50.5t7.5 -60t15 -63t26 -57.5t40.5 -44.5t59 -24.5q33 0 60 18t52.5 40
t51 40t55.5 18q7 2 12 -1t7.5 -8t1.5 -11t-6 -9q-25 -27 -50 -55t-53 -50.5t-60 -37t-71 -14.5q-42 0 -75.5 18.5t-59 48.5t-43.5 69.5t-29.5 81t-17 83t-5.5 76.5zM353 877q-15 -7 -34 -20.5t-39 -28.5t-39.5 -29.5t-36.5 -23.5q-23 -2 -34.5 14t-7.5 41l143 107q16 5 28 1
t18.5 -13t7 -22t-5.5 -26z" />
    <glyph glyph-name="cacute" unicode="&#x107;" horiz-adv-x="396" 
d="M27 348q0 34 5.5 76.5t22 79.5t45.5 62t77 25q30 0 56.5 -11t46 -31t31 -47t11.5 -58q-28 0 -44 11t-29 24.5t-25.5 24.5t-32.5 11q-36 0 -54 -18t-26 -44t-8.5 -54.5t-0.5 -50.5t2.5 -51t9.5 -59.5t18 -59.5t28 -52t40.5 -37t54.5 -14q16 0 28 6.5t23.5 15t24 15
t28.5 6.5q0 -24 -12.5 -46t-31.5 -38t-43 -25.5t-46 -9.5q-35 0 -63.5 19t-50.5 49t-38 68t-26.5 77t-15.5 74.5t-5 61.5zM236 704q-15 -7 -34 -20.5t-39 -28.5t-39.5 -29.5t-36.5 -23.5q-23 -2 -34.5 14t-7.5 41l143 107q16 5 28 1t18.5 -13t7 -22t-5.5 -26z" />
    <glyph glyph-name="Ccircumflex" unicode="&#x108;" horiz-adv-x="519" 
d="M24 354q0 74 25 145.5t63.5 129.5t85.5 96t91.5 43.5t81 -27.5t53.5 -117q-2 0 -9 1t-15.5 2.5t-15.5 3t-9 2.5q-31 51 -64 59.5t-64.5 -12t-59 -62.5t-47.5 -91t-30.5 -97.5t-7.5 -82.5q2 -22 4 -50.5t7.5 -60t15 -63t26 -57.5t40.5 -44.5t59 -24.5q33 0 60 18t52.5 40
t51 40t55.5 18q7 2 12 -1t7.5 -8t1.5 -11t-6 -9q-25 -27 -50 -55t-53 -50.5t-60 -37t-71 -14.5q-42 0 -75.5 18.5t-59 48.5t-43.5 69.5t-29.5 81t-17 83t-5.5 76.5zM224 805q-35 -22 -54 -12.5t-11 51.5l79 102q3 8 12 14.5t20 9.5t21 1t15 -10l96 -122q0 -23 -7 -34
t-16.5 -14.5t-21 -1.5t-21.5 5q-17 20 -31 39t-31 42l-50 -70v0z" />
    <glyph glyph-name="ccircumflex" unicode="&#x109;" horiz-adv-x="396" 
d="M27 348q0 34 5.5 76.5t22 79.5t45.5 62t77 25q30 0 56.5 -11t46 -31t31 -47t11.5 -58q-28 0 -44 11t-29 24.5t-25.5 24.5t-32.5 11q-36 0 -54 -18t-26 -44t-8.5 -54.5t-0.5 -50.5t2.5 -51t9.5 -59.5t18 -59.5t28 -52t40.5 -37t54.5 -14q16 0 28 6.5t23.5 15t24 15
t28.5 6.5q0 -24 -12.5 -46t-31.5 -38t-43 -25.5t-46 -9.5q-35 0 -63.5 19t-50.5 49t-38 68t-26.5 77t-15.5 74.5t-5 61.5zM137 645q-35 -22 -54 -12.5t-11 51.5l79 102q3 8 12 14.5t20 9.5t21 1t15 -10l96 -122q0 -23 -7 -34t-16.5 -14.5t-21 -1.5t-21.5 5q-17 20 -31 39
t-31 42l-50 -70v0z" />
    <glyph glyph-name="Cdotaccent" unicode="&#x10a;" horiz-adv-x="503" 
d="M24 354q0 74 25 145.5t63.5 129.5t85.5 96t91.5 43.5t81 -27.5t53.5 -117q-2 0 -9 1t-15.5 2.5t-15.5 3t-9 2.5q-31 51 -64 59.5t-64.5 -12t-59 -62.5t-47.5 -91t-30.5 -97.5t-7.5 -82.5q2 -22 4 -50.5t7.5 -60t15 -63t26 -57.5t40.5 -44.5t59 -24.5q33 0 60 18t52.5 40
t51 40t55.5 18q7 2 12 -1t7.5 -8t1.5 -11t-6 -9q-25 -27 -50 -55t-53 -50.5t-60 -37t-71 -14.5q-42 0 -75.5 18.5t-59 48.5t-43.5 69.5t-29.5 81t-17 83t-5.5 76.5zM224 890q7 0 21 0.5t28 -2.5t24.5 -10.5t10.5 -22.5q0 -7 -1.5 -15.5t-4.5 -16t-8.5 -12.5t-14.5 -5
q-15 0 -25 9t-17 22t-10 27.5t-3 25.5z" />
    <glyph glyph-name="cdotaccent" unicode="&#x10b;" horiz-adv-x="367" 
d="M27 348q0 34 5.5 76.5t22 79.5t45.5 62t77 25q30 0 56.5 -11t46 -31t31 -47t11.5 -58q-28 0 -44 11t-29 24.5t-25.5 24.5t-32.5 11q-36 0 -54 -18t-26 -44t-8.5 -54.5t-0.5 -50.5t2.5 -51t9.5 -59.5t18 -59.5t28 -52t40.5 -37t54.5 -14q16 0 28 6.5t23.5 15t24 15
t28.5 6.5q0 -24 -12.5 -46t-31.5 -38t-43 -25.5t-46 -9.5q-35 0 -63.5 19t-50.5 49t-38 68t-26.5 77t-15.5 74.5t-5 61.5zM149 700q7 0 21 0.5t28 -2.5t24.5 -10.5t10.5 -22.5q0 -7 -1.5 -15.5t-4.5 -16t-8.5 -12.5t-14.5 -5q-15 0 -25 9t-17 22t-10 27.5t-3 25.5z" />
    <glyph glyph-name="Ccaron" unicode="&#x10c;" horiz-adv-x="512" 
d="M24 354q0 74 25 145.5t63.5 129.5t85.5 96t91.5 43.5t81 -27.5t53.5 -117q-2 0 -9 1t-15.5 2.5t-15.5 3t-9 2.5q-31 51 -64 59.5t-64.5 -12t-59 -62.5t-47.5 -91t-30.5 -97.5t-7.5 -82.5q2 -22 4 -50.5t7.5 -60t15 -63t26 -57.5t40.5 -44.5t59 -24.5q33 0 60 18t52.5 40
t51 40t55.5 18q7 2 12 -1t7.5 -8t1.5 -11t-6 -9q-25 -27 -50 -55t-53 -50.5t-60 -37t-71 -14.5q-42 0 -75.5 18.5t-59 48.5t-43.5 69.5t-29.5 81t-17 83t-5.5 76.5zM229 879q17 23 31 42t31 39q10 3 21.5 5t21 -1.5t16.5 -14.5t7 -34l-96 -122q-5 -8 -15 -10t-21 1t-20 9.5
t-12 14.5l-79 102q-8 42 11 51.5t54 -12.5z" />
    <glyph glyph-name="ccaron" unicode="&#x10d;" horiz-adv-x="396" 
d="M27 348q0 34 5.5 76.5t22 79.5t45.5 62t77 25q30 0 56.5 -11t46 -31t31 -47t11.5 -58q-28 0 -44 11t-29 24.5t-25.5 24.5t-32.5 11q-36 0 -54 -18t-26 -44t-8.5 -54.5t-0.5 -50.5t2.5 -51t9.5 -59.5t18 -59.5t28 -52t40.5 -37t54.5 -14q16 0 28 6.5t23.5 15t24 15
t28.5 6.5q0 -24 -12.5 -46t-31.5 -38t-43 -25.5t-46 -9.5q-35 0 -63.5 19t-50.5 49t-38 68t-26.5 77t-15.5 74.5t-5 61.5zM185 734q17 23 31 42t31 39q10 3 21.5 5t21 -1.5t16.5 -14.5t7 -34l-96 -122q-5 -8 -15 -10t-21 1t-20 9.5t-12 14.5l-79 102q-8 42 11 51.5t54 -12.5
z" />
    <glyph glyph-name="Dcaron" unicode="&#x10e;" horiz-adv-x="619" 
d="M57 19q-4 168 -5.5 285.5t-1.5 196t0.5 123.5t1 68.5t1.5 31.5t1 13q0 17 13 26t33 13t44 3.5t46 -2.5t38 -4t21 -2q78 -8 143.5 -34.5t113 -72.5t74 -111t26.5 -149q-4 -52 -30 -107t-67.5 -105t-95 -91.5t-113.5 -67t-122 -31t-121 16.5zM132 75h19q36 0 79.5 13.5
t87.5 37t85 55.5t73 69t51.5 76.5t19.5 79.5q0 24 -7.5 59t-26 72t-49 71.5t-77 59.5t-110.5 35.5t-149 -1.5zM204 904q17 23 31 42t31 39q10 3 21.5 5t21 -1.5t16.5 -14.5t7 -34l-96 -122q-5 -8 -15 -10t-21 1t-20 9.5t-12 14.5l-79 102q-8 42 11 51.5t54 -12.5z" />
    <glyph glyph-name="dcaron" unicode="&#x10f;" horiz-adv-x="541" 
d="M18 292q0 39 9.5 90t31 97.5t55.5 78.5t83 32q18 0 36 -4.5t35 -11.5t30.5 -16t22.5 -19q0 45 -0.5 76.5t0.5 57t3 48.5t5 52q6 5 18.5 8.5t25.5 2.5t22.5 -7.5t10.5 -20.5q-7 -16 -10.5 -55.5t-5 -93t-1 -116.5t2 -126.5t4.5 -123t6 -106.5t6.5 -76.5t5.5 -32.5
q0 -17 -12.5 -22.5t-26.5 -5.5q-23 0 -31.5 21.5t-3.5 55.5q-10 -13 -25.5 -26t-33.5 -24t-37 -18t-36 -7q-51 0 -87.5 30.5t-59 75.5t-33 95.5t-10.5 90.5zM93 298q0 -27 2.5 -65.5t14 -73.5t34.5 -59.5t64 -24.5q40 3 65 37.5t36.5 83.5t10 105t-13.5 103.5t-34.5 77.5
t-53.5 28q-38 0 -62 -23.5t-38 -56.5t-19.5 -69.5t-5.5 -62.5zM442 527q15 23 20.5 43t3 39.5t-13 40t-26.5 44.5q0 7 8 11.5t18 5t19.5 -2t14.5 -9.5q22 -28 31.5 -55t8.5 -51.5t-10.5 -44.5t-26.5 -33q-24 -7 -35.5 -2t-11.5 14z" />
    <glyph glyph-name="Dcroat" unicode="&#x110;" horiz-adv-x="642" 
d="M57 19q-4 168 -5.5 285.5t-1.5 196t0.5 123.5t1 68.5t1.5 31.5t1 13q0 17 13 26t33 13t44 3.5t46 -2.5t38 -4t21 -2q78 -8 143.5 -34.5t113 -72.5t74 -111t26.5 -149q-4 -52 -30 -107t-67.5 -105t-95 -91.5t-113.5 -67t-122 -31t-121 16.5zM132 75h19q36 0 79.5 13.5
t87.5 37t85 55.5t73 69t51.5 76.5t19.5 79.5q0 24 -7.5 59t-26 72t-49 71.5t-77 59.5t-110.5 35.5t-149 -1.5zM-40 292q-15 7 -18 18.5t1.5 22.5t14.5 20.5t21 13.5q10 1 30.5 2.5t46.5 3t54.5 4t55 4t47 3t30.5 2.5h11q17 0 23 -12.5t6 -26.5q0 -12 -5.5 -19t-14 -10.5
t-19 -4.5t-20.5 -2t-30.5 -2.5t-47 -3t-55 -4t-54.5 -4t-46.5 -3t-30.5 -2.5z" />
    <glyph glyph-name="dcroat" unicode="&#x111;" horiz-adv-x="462" 
d="M18 292q0 39 9.5 90t31 97.5t55.5 78.5t83 32q18 0 36 -4.5t35 -11.5t30.5 -16t22.5 -19q0 45 -0.5 76.5t0.5 57t3 48.5t5 52q6 5 18.5 8.5t25.5 2.5t22.5 -7.5t10.5 -20.5q-7 -16 -10.5 -55.5t-5 -93t-1 -116.5t2 -126.5t4.5 -123t6 -106.5t6.5 -76.5t5.5 -32.5
q0 -17 -12.5 -22.5t-26.5 -5.5q-23 0 -31.5 21.5t-3.5 55.5q-10 -13 -25.5 -26t-33.5 -24t-37 -18t-36 -7q-51 0 -87.5 30.5t-59 75.5t-33 95.5t-10.5 90.5zM93 298q0 -27 2.5 -65.5t14 -73.5t34.5 -59.5t64 -24.5q40 3 65 37.5t36.5 83.5t10 105t-13.5 103.5t-34.5 77.5
t-53.5 28q-38 0 -62 -23.5t-38 -56.5t-19.5 -69.5t-5.5 -62.5zM218.481 645.812q-1.25488 1.1123 -3.4502 7.22852q-2.19531 6.11719 -4.07715 12.7891q-1.88184 6.67285 -3.13672 12.79q-1.25391 6.11621 -1.25391 9.45312q0 10.0088 3.44922 14.457
q3.4502 4.44824 8.15527 6.11719q4.7041 1.66797 9.09473 1.66797h6.89941l171.869 -25.5791q10.0361 -3.33594 18.1904 -6.67285q8.1543 -3.33594 14.4268 -10.0088q6.27344 -6.67285 9.72266 -18.9062q3.4502 -12.2334 3.4502 -32.251q-31.9902 6.67285 -52.376 10.5645
q-20.3857 3.89258 -34.8125 5.56055q-14.4277 1.66895 -26.3457 2.22461t-26.9717 1.66797q-15.0547 1.1123 -37.0088 2.78027q-21.9531 1.66797 -55.8252 6.11719z" />
    <glyph glyph-name="Emacron" unicode="&#x112;" 
d="M36 713q2 9 33.5 16.5t79 14t103.5 11.5t107 8.5t89.5 5.5t51.5 2q10 0 22 -1t21.5 -4.5t16 -11t6.5 -20.5q0 -20 -19 -30.5t-51 -15t-72.5 -4.5t-83.5 0.5t-85 0.5t-76.5 -4.5t-57.5 -14t-28 -28.5q3 -12 2 -28t-3 -34.5t-3 -39.5t3 -45q27 -2 62.5 -1.5t73.5 1.5
t75.5 2.5t67.5 2.5q0 -31 -9.5 -48t-47.5 -28q-14 -3 -45 -4t-66 -1t-66 -0.5t-45 -1.5q1 -42 2 -88.5t0 -90t-3.5 -80t-7.5 -59.5q22 2 52 1.5t64 -2t70 -2t68.5 0.5t60 5.5t45.5 14.5q20 0 29 -7t9.5 -18.5t-5 -24.5t-14.5 -25l-377 -38q-8 -1 -18.5 4.5t-19.5 14.5
t-15 19t-4 19zM72 786q-15 7 -18 18.5t1.5 22.5t14.5 20.5t21 13.5q10 1 30.5 2.5t46.5 3t54.5 4t55 4t47 3t30.5 2.5h11q17 0 23 -12.5t6 -26.5q0 -12 -5.5 -19t-14 -10.5t-19 -4.5t-20.5 -2t-30.5 -2.5t-47 -3t-55 -4t-54.5 -4t-46.5 -3t-30.5 -2.5z" />
    <glyph glyph-name="emacron" unicode="&#x113;" horiz-adv-x="428" 
d="M-77 461q0 12 6.5 20.5t15 12t17.5 1.5t15 -10q8 -56 20.5 -80.5t26 -33t25.5 -7.5t19 -2q3 55 14.5 100.5t36 77.5t64.5 49.5t101 16.5q46 0 77.5 -21t31.5 -71q0 -55 -22.5 -90t-59 -58t-81.5 -37t-90 -27q0 -2 1 -10.5t1.5 -18t1.5 -18t1 -10.5q6 -71 28 -109.5
t51.5 -55t63 -16.5t62 6.5t47.5 13t20 2.5q5 -13 1 -28t-20.5 -28t-48.5 -21.5t-82 -9.5q-43 0 -73 13t-51 35.5t-33.5 52t-20.5 62.5t-14 66.5t-12 64.5q-26 -4 -47 5t-37.5 25.5t-28.5 37t-19 40.5t-9 36.5t1 23.5zM138 375q31 -2 67 10.5t66 32t49 42.5t16 43
q-2 18 -15 31.5t-42 13.5q-35 0 -61 -15t-44 -39.5t-27 -55.5t-9 -63zM63 628q-15 7 -18 18.5t1.5 22.5t14.5 20.5t21 13.5q10 1 30.5 2.5t46.5 3t54.5 4t55 4t47 3t30.5 2.5h11q17 0 23 -12.5t6 -26.5q0 -12 -5.5 -19t-14 -10.5t-19 -4.5t-20.5 -2t-30.5 -2.5t-47 -3
t-55 -4t-54.5 -4t-46.5 -3t-30.5 -2.5z" />
    <glyph glyph-name="Ebreve" unicode="&#x114;" horiz-adv-x="490" 
d="M36 713q2 9 33.5 16.5t79 14t103.5 11.5t107 8.5t89.5 5.5t51.5 2q10 0 22 -1t21.5 -4.5t16 -11t6.5 -20.5q0 -20 -19 -30.5t-51 -15t-72.5 -4.5t-83.5 0.5t-85 0.5t-76.5 -4.5t-57.5 -14t-28 -28.5q3 -12 2 -28t-3 -34.5t-3 -39.5t3 -45q27 -2 62.5 -1.5t73.5 1.5
t75.5 2.5t67.5 2.5q0 -31 -9.5 -48t-47.5 -28q-14 -3 -45 -4t-66 -1t-66 -0.5t-45 -1.5q1 -42 2 -88.5t0 -90t-3.5 -80t-7.5 -59.5q22 2 52 1.5t64 -2t70 -2t68.5 0.5t60 5.5t45.5 14.5q20 0 29 -7t9.5 -18.5t-5 -24.5t-14.5 -25l-377 -38q-8 -1 -18.5 4.5t-19.5 14.5
t-15 19t-4 19zM50 909q3 23 20.5 22t35.5 -10q20 -37 43.5 -54t48 -21t48.5 2.5t44 16t34.5 19t20.5 12.5q9 5 22.5 7.5t25.5 0t18.5 -11t2.5 -24.5q-49 -44 -94 -62.5t-84.5 -20t-72 11t-56.5 30.5t-38.5 37.5t-18.5 33.5q-1 3 -0.5 5.5t0.5 5.5z" />
    <glyph glyph-name="ebreve" unicode="&#x115;" horiz-adv-x="434" 
d="M-71 461q0 12 6.5 20.5t15 12t17.5 1.5t15 -10q8 -56 20.5 -80.5t26 -33t25.5 -7.5t19 -2q3 55 14.5 100.5t36 77.5t64.5 49.5t101 16.5q46 0 77.5 -21t31.5 -71q0 -55 -22.5 -90t-59 -58t-81.5 -37t-90 -27q0 -2 1 -10.5t1.5 -18t1.5 -18t1 -10.5q6 -71 28 -109.5
t51.5 -55t63 -16.5t62 6.5t47.5 13t20 2.5q5 -13 1 -28t-20.5 -28t-48.5 -21.5t-82 -9.5q-43 0 -73 13t-51 35.5t-33.5 52t-20.5 62.5t-14 66.5t-12 64.5q-26 -4 -47 5t-37.5 25.5t-28.5 37t-19 40.5t-9 36.5t1 23.5zM144 375q31 -2 67 10.5t66 32t49 42.5t16 43
q-2 18 -15 31.5t-42 13.5q-35 0 -61 -15t-44 -39.5t-27 -55.5t-9 -63zM27 762q3 23 20.5 22t35.5 -10q20 -37 43.5 -54t48 -21t48.5 2.5t44 16t34.5 19t20.5 12.5q9 5 22.5 7.5t25.5 0t18.5 -11t2.5 -24.5q-49 -44 -94 -62.5t-84.5 -20t-72 11t-56.5 30.5t-38.5 37.5
t-18.5 33.5q-1 3 -0.5 5.5t0.5 5.5z" />
    <glyph glyph-name="Edotaccent" unicode="&#x116;" horiz-adv-x="480" 
d="M36 713q2 9 33.5 16.5t79 14t103.5 11.5t107 8.5t89.5 5.5t51.5 2q10 0 22 -1t21.5 -4.5t16 -11t6.5 -20.5q0 -20 -19 -30.5t-51 -15t-72.5 -4.5t-83.5 0.5t-85 0.5t-76.5 -4.5t-57.5 -14t-28 -28.5q3 -12 2 -28t-3 -34.5t-3 -39.5t3 -45q27 -2 62.5 -1.5t73.5 1.5
t75.5 2.5t67.5 2.5q0 -31 -9.5 -48t-47.5 -28q-14 -3 -45 -4t-66 -1t-66 -0.5t-45 -1.5q1 -42 2 -88.5t0 -90t-3.5 -80t-7.5 -59.5q22 2 52 1.5t64 -2t70 -2t68.5 0.5t60 5.5t45.5 14.5q20 0 29 -7t9.5 -18.5t-5 -24.5t-14.5 -25l-377 -38q-8 -1 -18.5 4.5t-19.5 14.5
t-15 19t-4 19zM197 877q7 0 21 0.5t28 -2.5t24.5 -10.5t10.5 -22.5q0 -7 -1.5 -15.5t-4.5 -16t-8.5 -12.5t-14.5 -5q-15 0 -25 9t-17 22t-10 27.5t-3 25.5z" />
    <glyph glyph-name="edotaccent" unicode="&#x117;" horiz-adv-x="386" 
d="M-119 461q0 12 6.5 20.5t15 12t17.5 1.5t15 -10q8 -56 20.5 -80.5t26 -33t25.5 -7.5t19 -2q3 55 14.5 100.5t36 77.5t64.5 49.5t101 16.5q46 0 77.5 -21t31.5 -71q0 -55 -22.5 -90t-59 -58t-81.5 -37t-90 -27q0 -2 1 -10.5t1.5 -18t1.5 -18t1 -10.5q6 -71 28 -109.5
t51.5 -55t63 -16.5t62 6.5t47.5 13t20 2.5q5 -13 1 -28t-20.5 -28t-48.5 -21.5t-82 -9.5q-43 0 -73 13t-51 35.5t-33.5 52t-20.5 62.5t-14 66.5t-12 64.5q-26 -4 -47 5t-37.5 25.5t-28.5 37t-19 40.5t-9 36.5t1 23.5zM96 375q31 -2 67 10.5t66 32t49 42.5t16 43
q-2 18 -15 31.5t-42 13.5q-35 0 -61 -15t-44 -39.5t-27 -55.5t-9 -63zM150 716q7 0 21 0.5t28 -2.5t24.5 -10.5t10.5 -22.5q0 -7 -1.5 -15.5t-4.5 -16t-8.5 -12.5t-14.5 -5q-15 0 -25 9t-17 22t-10 27.5t-3 25.5z" />
    <glyph glyph-name="Eogonek" unicode="&#x118;" horiz-adv-x="506" 
d="M36 713q2 9 33.5 16.5t79 14t103.5 11.5t107 8.5t89.5 5.5t51.5 2q10 0 22 -1t21.5 -4.5t16 -11t6.5 -20.5q0 -20 -19 -30.5t-51 -15t-72.5 -4.5t-83.5 0.5t-85 0.5t-76.5 -4.5t-57.5 -14t-28 -28.5q3 -12 2 -28t-3 -34.5t-3 -39.5t3 -45q27 -2 62.5 -1.5t73.5 1.5
t75.5 2.5t67.5 2.5q0 -31 -9.5 -48t-47.5 -28q-14 -3 -45 -4t-66 -1t-66 -0.5t-45 -1.5q1 -42 2 -88.5t0 -90t-3.5 -80t-7.5 -59.5q22 2 52 1.5t64 -2t70 -2t68.5 0.5t60 5.5t45.5 14.5q20 0 29 -7t9.5 -18.5t-5 -24.5t-14.5 -25l-377 -38q-8 -1 -18.5 4.5t-19.5 14.5
t-15 19t-4 19zM372 -89q22 -24 19 -36.5t-19 -17t-39.5 -4.5h-42.5q-38 0 -60.5 15.5t-34.5 37.5t-16 47t-4 44q0 34 22 55.5t55 34.5q10 5 16 0t8.5 -14t1.5 -19.5t-3 -18.5t-5 -10t-5 6q-25 -30 -29 -52t5 -37.5t27.5 -24t38.5 -12t38 -2t27 7.5z" />
    <glyph glyph-name="eogonek" unicode="&#x119;" horiz-adv-x="408" 
d="M-97 461q0 12 6.5 20.5t15 12t17.5 1.5t15 -10q8 -56 20.5 -80.5t26 -33t25.5 -7.5t19 -2q3 55 14.5 100.5t36 77.5t64.5 49.5t101 16.5q46 0 77.5 -21t31.5 -71q0 -55 -22.5 -90t-59 -58t-81.5 -37t-90 -27q0 -2 1 -10.5t1.5 -18t1.5 -18t1 -10.5q6 -71 28 -109.5
t51.5 -55t63 -16.5t62 6.5t47.5 13t20 2.5q5 -13 1 -28t-20.5 -28t-48.5 -21.5t-82 -9.5q-43 0 -73 13t-51 35.5t-33.5 52t-20.5 62.5t-14 66.5t-12 64.5q-26 -4 -47 5t-37.5 25.5t-28.5 37t-19 40.5t-9 36.5t1 23.5zM118 375q31 -2 67 10.5t66 32t49 42.5t16 43
q-2 18 -15 31.5t-42 13.5q-35 0 -61 -15t-44 -39.5t-27 -55.5t-9 -63zM446 -108q22 -24 19 -36.5t-19 -17t-39.5 -4.5h-42.5q-38 0 -60.5 15.5t-34.5 37.5t-16 47t-4 44q0 34 22 55.5t55 34.5q10 5 16 0t8.5 -14t1.5 -19.5t-3 -18.5t-5 -10t-5 6q-25 -30 -29 -52t5 -37.5
t27.5 -24t38.5 -12t38 -2t27 7.5z" />
    <glyph glyph-name="Ecaron" unicode="&#x11a;" horiz-adv-x="496" 
d="M36 713q2 9 33.5 16.5t79 14t103.5 11.5t107 8.5t89.5 5.5t51.5 2q10 0 22 -1t21.5 -4.5t16 -11t6.5 -20.5q0 -20 -19 -30.5t-51 -15t-72.5 -4.5t-83.5 0.5t-85 0.5t-76.5 -4.5t-57.5 -14t-28 -28.5q3 -12 2 -28t-3 -34.5t-3 -39.5t3 -45q27 -2 62.5 -1.5t73.5 1.5
t75.5 2.5t67.5 2.5q0 -31 -9.5 -48t-47.5 -28q-14 -3 -45 -4t-66 -1t-66 -0.5t-45 -1.5q1 -42 2 -88.5t0 -90t-3.5 -80t-7.5 -59.5q22 2 52 1.5t64 -2t70 -2t68.5 0.5t60 5.5t45.5 14.5q20 0 29 -7t9.5 -18.5t-5 -24.5t-14.5 -25l-377 -38q-8 -1 -18.5 4.5t-19.5 14.5
t-15 19t-4 19zM221 896q17 23 31 42t31 39q10 3 21.5 5t21 -1.5t16.5 -14.5t7 -34l-96 -122q-5 -8 -15 -10t-21 1t-20 9.5t-12 14.5l-79 102q-8 42 11 51.5t54 -12.5z" />
    <glyph glyph-name="ecaron" unicode="&#x11b;" horiz-adv-x="405" 
d="M-100 461q0 12 6.5 20.5t15 12t17.5 1.5t15 -10q8 -56 20.5 -80.5t26 -33t25.5 -7.5t19 -2q3 55 14.5 100.5t36 77.5t64.5 49.5t101 16.5q46 0 77.5 -21t31.5 -71q0 -55 -22.5 -90t-59 -58t-81.5 -37t-90 -27q0 -2 1 -10.5t1.5 -18t1.5 -18t1 -10.5q6 -71 28 -109.5
t51.5 -55t63 -16.5t62 6.5t47.5 13t20 2.5q5 -13 1 -28t-20.5 -28t-48.5 -21.5t-82 -9.5q-43 0 -73 13t-51 35.5t-33.5 52t-20.5 62.5t-14 66.5t-12 64.5q-26 -4 -47 5t-37.5 25.5t-28.5 37t-19 40.5t-9 36.5t1 23.5zM115 375q31 -2 67 10.5t66 32t49 42.5t16 43
q-2 18 -15 31.5t-42 13.5q-35 0 -61 -15t-44 -39.5t-27 -55.5t-9 -63zM189 743q17 23 31 42t31 39q10 3 21.5 5t21 -1.5t16.5 -14.5t7 -34l-96 -122q-5 -8 -15 -10t-21 1t-20 9.5t-12 14.5l-79 102q-8 42 11 51.5t54 -12.5z" />
    <glyph glyph-name="Gcircumflex" unicode="&#x11c;" horiz-adv-x="596" 
d="M496 49q-23 -15 -48 -23t-51 -11.5t-53 -4t-53 -0.5q-53 0 -101.5 18.5t-85.5 52t-58.5 80.5t-21.5 105q-7 48 1.5 107t31 119t57 114.5t79.5 93.5t98 57.5t113 6.5q28 -9 43 -22t17.5 -25.5t-8 -22t-34.5 -11.5q-2 0 -26 2t-59 -4t-75.5 -24.5t-76.5 -60.5
q-26 -26 -43 -61.5t-26.5 -75.5t-13.5 -81t-4 -77q0 -53 10 -96.5t34 -74t63 -47.5t97 -17q30 0 65 2.5t64 13t48.5 32.5t19.5 61v33t-3.5 33.5t-13.5 26t-31 10.5q-25 0 -49 -6.5t-47 -14t-47 -14t-49 -6.5q-22 0 -35 7.5t-11 31.5q20 6 60.5 18.5t85.5 25.5t85.5 23
t60.5 10q12 0 27.5 -1.5t19.5 -19.5q7 -42 12.5 -90t8.5 -97.5t2.5 -98t-4.5 -91.5q-22 -14 -35.5 -13t-21.5 14t-12 37t-6 56zM286 814q-35 -22 -54 -12.5t-11 51.5l79 102q3 8 12 14.5t20 9.5t21 1t15 -10l96 -122q0 -23 -7 -34t-16.5 -14.5t-21 -1.5t-21.5 5
q-17 20 -31 39t-31 42l-50 -70v0z" />
    <glyph glyph-name="gcircumflex" unicode="&#x11d;" horiz-adv-x="393" 
d="M83 -190q-4 12 -1 24.5t10.5 22t18 14t19.5 1.5q28 -35 53 -43.5t45.5 1.5t36 34.5t25.5 55t13 63.5t-1 60q-17 -27 -52 -43t-69 -13q-50 0 -81.5 22.5t-49.5 58t-24.5 80t-6.5 88.5q0 18 5 58t16 88t28.5 96t43.5 81q25 33 57.5 41t66 0.5t66.5 -26t60 -39.5
q5 -8 10 -41.5t9.5 -84t6 -113.5t-0.5 -129.5t-10 -131.5t-22.5 -120.5t-37.5 -96t-56 -58t-77 -7.5t-101 57zM93 234q0 -22 1.5 -49.5t9 -52t24.5 -41.5t49 -17q17 0 39 7.5t41 20t32 30t13 38.5v296q-35 40 -63 53.5t-49.5 7t-37.5 -28.5t-27 -52t-18 -64t-10.5 -64
t-4 -53t0.5 -31zM174 648q-35 -22 -54 -12.5t-11 51.5l79 102q3 8 12 14.5t20 9.5t21 1t15 -10l96 -122q0 -23 -7 -34t-16.5 -14.5t-21 -1.5t-21.5 5q-17 20 -31 39t-31 42l-50 -70v0z" />
    <glyph glyph-name="Gbreve" unicode="&#x11e;" horiz-adv-x="593" 
d="M496 49q-23 -15 -48 -23t-51 -11.5t-53 -4t-53 -0.5q-53 0 -101.5 18.5t-85.5 52t-58.5 80.5t-21.5 105q-7 48 1.5 107t31 119t57 114.5t79.5 93.5t98 57.5t113 6.5q28 -9 43 -22t17.5 -25.5t-8 -22t-34.5 -11.5q-2 0 -26 2t-59 -4t-75.5 -24.5t-76.5 -60.5
q-26 -26 -43 -61.5t-26.5 -75.5t-13.5 -81t-4 -77q0 -53 10 -96.5t34 -74t63 -47.5t97 -17q30 0 65 2.5t64 13t48.5 32.5t19.5 61v33t-3.5 33.5t-13.5 26t-31 10.5q-25 0 -49 -6.5t-47 -14t-47 -14t-49 -6.5q-22 0 -35 7.5t-11 31.5q20 6 60.5 18.5t85.5 25.5t85.5 23
t60.5 10q12 0 27.5 -1.5t19.5 -19.5q7 -42 12.5 -90t8.5 -97.5t2.5 -98t-4.5 -91.5q-22 -14 -35.5 -13t-21.5 14t-12 37t-6 56zM132 924q3 23 20.5 22t35.5 -10q20 -37 43.5 -54t48 -21t48.5 2.5t44 16t34.5 19t20.5 12.5q9 5 22.5 7.5t25.5 0t18.5 -11t2.5 -24.5
q-49 -44 -94 -62.5t-84.5 -20t-72 11t-56.5 30.5t-38.5 37.5t-18.5 33.5q-1 3 -0.5 5.5t0.5 5.5z" />
    <glyph glyph-name="gbreve" unicode="&#x11f;" horiz-adv-x="406" 
d="M83 -190q-4 12 -1 24.5t10.5 22t18 14t19.5 1.5q28 -35 53 -43.5t45.5 1.5t36 34.5t25.5 55t13 63.5t-1 60q-17 -27 -52 -43t-69 -13q-50 0 -81.5 22.5t-49.5 58t-24.5 80t-6.5 88.5q0 18 5 58t16 88t28.5 96t43.5 81q25 33 57.5 41t66 0.5t66.5 -26t60 -39.5
q5 -8 10 -41.5t9.5 -84t6 -113.5t-0.5 -129.5t-10 -131.5t-22.5 -120.5t-37.5 -96t-56 -58t-77 -7.5t-101 57zM93 234q0 -22 1.5 -49.5t9 -52t24.5 -41.5t49 -17q17 0 39 7.5t41 20t32 30t13 38.5v296q-35 40 -63 53.5t-49.5 7t-37.5 -28.5t-27 -52t-18 -64t-10.5 -64
t-4 -53t0.5 -31zM3 774q3 23 20.5 22t35.5 -10q20 -37 43.5 -54t48 -21t48.5 2.5t44 16t34.5 19t20.5 12.5q9 5 22.5 7.5t25.5 0t18.5 -11t2.5 -24.5q-49 -44 -94 -62.5t-84.5 -20t-72 11t-56.5 30.5t-38.5 37.5t-18.5 33.5q-1 3 -0.5 5.5t0.5 5.5z" />
    <glyph glyph-name="Gdotaccent" unicode="&#x120;" horiz-adv-x="599" 
d="M496 49q-23 -15 -48 -23t-51 -11.5t-53 -4t-53 -0.5q-53 0 -101.5 18.5t-85.5 52t-58.5 80.5t-21.5 105q-7 48 1.5 107t31 119t57 114.5t79.5 93.5t98 57.5t113 6.5q28 -9 43 -22t17.5 -25.5t-8 -22t-34.5 -11.5q-2 0 -26 2t-59 -4t-75.5 -24.5t-76.5 -60.5
q-26 -26 -43 -61.5t-26.5 -75.5t-13.5 -81t-4 -77q0 -53 10 -96.5t34 -74t63 -47.5t97 -17q30 0 65 2.5t64 13t48.5 32.5t19.5 61v33t-3.5 33.5t-13.5 26t-31 10.5q-25 0 -49 -6.5t-47 -14t-47 -14t-49 -6.5q-22 0 -35 7.5t-11 31.5q20 6 60.5 18.5t85.5 25.5t85.5 23
t60.5 10q12 0 27.5 -1.5t19.5 -19.5q7 -42 12.5 -90t8.5 -97.5t2.5 -98t-4.5 -91.5q-22 -14 -35.5 -13t-21.5 14t-12 37t-6 56zM264 894q7 0 21 0.5t28 -2.5t24.5 -10.5t10.5 -22.5q0 -7 -1.5 -15.5t-4.5 -16t-8.5 -12.5t-14.5 -5q-15 0 -25 9t-17 22t-10 27.5t-3 25.5z" />
    <glyph glyph-name="gdotaccent" unicode="&#x121;" horiz-adv-x="406" 
d="M83 -190q-4 12 -1 24.5t10.5 22t18 14t19.5 1.5q28 -35 53 -43.5t45.5 1.5t36 34.5t25.5 55t13 63.5t-1 60q-17 -27 -52 -43t-69 -13q-50 0 -81.5 22.5t-49.5 58t-24.5 80t-6.5 88.5q0 18 5 58t16 88t28.5 96t43.5 81q25 33 57.5 41t66 0.5t66.5 -26t60 -39.5
q5 -8 10 -41.5t9.5 -84t6 -113.5t-0.5 -129.5t-10 -131.5t-22.5 -120.5t-37.5 -96t-56 -58t-77 -7.5t-101 57zM93 234q0 -22 1.5 -49.5t9 -52t24.5 -41.5t49 -17q17 0 39 7.5t41 20t32 30t13 38.5v296q-35 40 -63 53.5t-49.5 7t-37.5 -28.5t-27 -52t-18 -64t-10.5 -64
t-4 -53t0.5 -31zM144 722q7 0 21 0.5t28 -2.5t24.5 -10.5t10.5 -22.5q0 -7 -1.5 -15.5t-4.5 -16t-8.5 -12.5t-14.5 -5q-15 0 -25 9t-17 22t-10 27.5t-3 25.5z" />
    <glyph glyph-name="Gcommaaccent" unicode="&#x122;" horiz-adv-x="596" 
d="M496 49q-23 -15 -48 -23t-51 -11.5t-53 -4t-53 -0.5q-53 0 -101.5 18.5t-85.5 52t-58.5 80.5t-21.5 105q-7 48 1.5 107t31 119t57 114.5t79.5 93.5t98 57.5t113 6.5q28 -9 43 -22t17.5 -25.5t-8 -22t-34.5 -11.5q-2 0 -26 2t-59 -4t-75.5 -24.5t-76.5 -60.5
q-26 -26 -43 -61.5t-26.5 -75.5t-13.5 -81t-4 -77q0 -53 10 -96.5t34 -74t63 -47.5t97 -17q30 0 65 2.5t64 13t48.5 32.5t19.5 61v33t-3.5 33.5t-13.5 26t-31 10.5q-25 0 -49 -6.5t-47 -14t-47 -14t-49 -6.5q-22 0 -35 7.5t-11 31.5q20 6 60.5 18.5t85.5 25.5t85.5 23
t60.5 10q12 0 27.5 -1.5t19.5 -19.5q7 -42 12.5 -90t8.5 -97.5t2.5 -98t-4.5 -91.5q-22 -14 -35.5 -13t-21.5 14t-12 37t-6 56zM229 -235q20 28 22.5 61.5t3 64t5.5 54t30 30.5q20 0 32.5 -29t13 -67t-13 -74.5t-45.5 -52.5q-15 -5 -29 -1t-19 14z" />
    <glyph glyph-name="gcommaaccent" unicode="&#x123;" horiz-adv-x="416" 
d="M83 -190q-4 12 -1 24.5t10.5 22t18 14t19.5 1.5q28 -35 53 -43.5t45.5 1.5t36 34.5t25.5 55t13 63.5t-1 60q-17 -27 -52 -43t-69 -13q-50 0 -81.5 22.5t-49.5 58t-24.5 80t-6.5 88.5q0 18 5 58t16 88t28.5 96t43.5 81q25 33 57.5 41t66 0.5t66.5 -26t60 -39.5
q5 -8 10 -41.5t9.5 -84t6 -113.5t-0.5 -129.5t-10 -131.5t-22.5 -120.5t-37.5 -96t-56 -58t-77 -7.5t-101 57zM93 234q0 -22 1.5 -49.5t9 -52t24.5 -41.5t49 -17q17 0 39 7.5t41 20t32 30t13 38.5v296q-35 40 -63 53.5t-49.5 7t-37.5 -28.5t-27 -52t-18 -64t-10.5 -64
t-4 -53t0.5 -31zM244 685q0 -10 -12 -15t-37 2q-18 14 -28.5 35t-11.5 46.5t9 54t33 57.5q5 7 15.5 10t21 2.5t19 -5t8.5 -12.5q-18 -25 -28.5 -46.5t-13.5 -42t3 -41.5t22 -45z" />
    <glyph glyph-name="Hcircumflex" unicode="&#x124;" horiz-adv-x="522" 
d="M386 104q0 25 1 61.5t2.5 75.5t2.5 76t1 63q-2 0 -7.5 0.5t-7.5 0.5q-65 -8 -130 -11.5t-134 -14.5l-9 -292q16 -5 18 -15t2 -22q0 -39 -37 -39q-5 0 -15 0.5t-19.5 3t-16.5 6.5t-7 10l28 770q2 0 9.5 1t9.5 1q4 0 10.5 -0.5t12.5 -2.5t10 -6t4 -12v-321h227q22 0 36 12
t22 30t12 37.5t5 34.5q1 8 2.5 24t3 36.5t4 43t4 43t3 36.5t2.5 24q2 0 9.5 1t9.5 1q39 0 39 -37q0 -79 -6.5 -169t-13 -182.5t-11 -183t-0.5 -169.5q-2 -2 -7 -5.5t-11 -6.5t-11.5 -5t-8.5 -2q-12 0 -19.5 14t-11.5 32t-5.5 35t-1.5 23zM196 805q-35 -22 -54 -12.5
t-11 51.5l79 102q3 8 12 14.5t20 9.5t21 1t15 -10l96 -122q0 -23 -7 -34t-16.5 -14.5t-21 -1.5t-21.5 5q-17 20 -31 39t-31 42l-50 -70v0z" />
    <glyph glyph-name="hcircumflex" unicode="&#x125;" horiz-adv-x="496" 
d="M378 38q1 16 1 56v85v85.5t-1 56.5q-9 75 -35.5 109t-65 39.5t-84.5 -11.5t-94 -44l2 -388q-6 -8 -14 -15t-18 -9t-20 2.5t-20 19.5l-5 730q0 11 10 14.5t22.5 2t23.5 -7t14 -12.5l-3 -263q12 4 40 17.5t64.5 25t77 15.5t76.5 -11q35 -18 56.5 -53t33.5 -78.5t16.5 -91.5
t4.5 -93t-2.5 -83t-4.5 -61l38 -37q-4 -17 -20.5 -26.5t-35 -10.5t-35.5 8t-22 29zM205 791q-35 -22 -54 -12.5t-11 51.5l79 102q3 8 12 14.5t20 9.5t21 1t15 -10l96 -122q0 -23 -7 -34t-16.5 -14.5t-21 -1.5t-21.5 5q-17 20 -31 39t-31 42l-50 -70v0z" />
    <glyph glyph-name="Hbar" unicode="&#x126;" horiz-adv-x="511" 
d="M386 104q0 25 1 61.5t2.5 75.5t2.5 76t1 63q-2 0 -7.5 0.5t-7.5 0.5q-65 -8 -130 -11.5t-134 -14.5l-9 -292q16 -5 18 -15t2 -22q0 -39 -37 -39q-5 0 -15 0.5t-19.5 3t-16.5 6.5t-7 10l28 770q2 0 9.5 1t9.5 1q4 0 10.5 -0.5t12.5 -2.5t10 -6t4 -12v-321h227q22 0 36 12
t22 30t12 37.5t5 34.5q1 8 2.5 24t3 36.5t4 43t4 43t3 36.5t2.5 24q2 0 9.5 1t9.5 1q39 0 39 -37q0 -79 -6.5 -169t-13 -182.5t-11 -183t-0.5 -169.5q-2 -2 -7 -5.5t-11 -6.5t-11.5 -5t-8.5 -2q-12 0 -19.5 14t-11.5 32t-5.5 35t-1.5 23zM38.0176 591.464
q-24.1562 6.77637 -28.9883 17.9102q-4.83105 11.1328 2.41602 21.7812q7.24707 10.6494 23.3516 19.8457t33.8203 13.0693q16.1045 0.967773 49.1191 2.41992t74.8867 2.9043q41.873 1.45215 87.7715 3.87207t88.5762 3.87207q42.6768 1.45215 75.6914 2.9043
q33.0156 1.45215 49.1201 2.4209h17.7148q27.3779 0 37.041 -12.1016q9.66309 -12.1006 9.66309 -25.6543q0 -11.6162 -8.85742 -18.3936q-8.8584 -6.77637 -22.5469 -10.1641q-13.6895 -3.38867 -30.5996 -4.35645q-16.9092 -0.967773 -33.0146 -1.93652
q-16.1045 -0.967773 -49.1191 -2.41992t-75.6924 -2.9043t-88.5762 -3.87207q-45.8984 -2.4209 -87.7705 -3.87305t-74.8867 -2.90332q-33.0146 -1.45215 -49.1201 -2.4209z" />
    <glyph glyph-name="hbar" unicode="&#x127;" horiz-adv-x="496" 
d="M378 38q1 16 1 56v85v85.5t-1 56.5q-9 75 -35.5 109t-65 39.5t-84.5 -11.5t-94 -44l2 -388q-6 -8 -14 -15t-18 -9t-20 2.5t-20 19.5l-5 730q0 11 10 14.5t22.5 2t23.5 -7t14 -12.5l-3 -263q12 4 40 17.5t64.5 25t77 15.5t76.5 -11q35 -18 56.5 -53t33.5 -78.5t16.5 -91.5
t4.5 -93t-2.5 -83t-4.5 -61l38 -37q-4 -17 -20.5 -26.5t-35 -10.5t-35.5 8t-22 29zM-60 574q-15 7 -18 18.5t1.5 22.5t14.5 20.5t21 13.5q10 1 30.5 2.5t46.5 3t54.5 4t55 4t47 3t30.5 2.5h11q17 0 23 -12.5t6 -26.5q0 -12 -5.5 -19t-14 -10.5t-19 -4.5t-20.5 -2t-30.5 -2.5
t-47 -3t-55 -4t-54.5 -4t-46.5 -3t-30.5 -2.5z" />
    <glyph glyph-name="Itilde" unicode="&#x128;" horiz-adv-x="667" 
d="M247 97q16 69 24 138.5t11.5 140.5t3.5 142.5t-1 144.5q-33 -9 -62 -16.5t-57.5 -13t-59 -8t-65.5 -1.5q-11 8 -15.5 16.5t14.5 22.5q70 20 134.5 40.5t128.5 37t129.5 27t138.5 10.5q11 0 27 -8.5t21 -28.5q-14 -21 -38 -29.5t-51.5 -10.5t-56 -2t-52 -3.5t-40.5 -14.5
t-20 -36q-6 -71 -10.5 -138t-6.5 -133.5t-1.5 -134t3.5 -137.5q20 0 47.5 0.5t58 2t61.5 4.5t57 8h20t25.5 -2t21.5 -8t9 -18q0 -19 -21 -29q-15 -9 -57.5 -16.5t-97 -14.5t-114.5 -12t-111 -9t-86.5 -6.5t-40.5 -2.5q-30 3 -43.5 10.5t-15.5 17t4.5 19t15 17t15.5 11t7 1.5
zM71 847q8 22 16 50.5t19 54t28 43.5t43 18q15 0 35 -2.5t45.5 -15t58 -38t72.5 -70.5q31 -15 44.5 -5t17 30t0.5 43t-3 35q5 10 15 15t21 4t20 -9t13 -24q2 -35 -1.5 -66.5t-17 -54t-38.5 -34.5t-66 -7q-25 3 -44.5 15t-35.5 27.5t-30 33.5t-28.5 32.5t-30 24.5t-34.5 10
q-27 -11 -36.5 -29t-11 -36.5t1 -34t-0.5 -21.5q-7 -13 -19 -18.5t-23.5 -3.5t-20 10.5t-9.5 22.5z" />
    <glyph glyph-name="itilde" unicode="&#x129;" horiz-adv-x="151" 
d="M43 561q-1 10 5.5 14.5t16 5.5t19.5 0t16 -1q10 -35 15.5 -81.5t8 -99t2.5 -108t-1 -108.5t-2 -100t-1 -83h-77zM-129 654q8 22 16 50.5t19 54t28 43.5t43 18q15 0 35 -2.5t45.5 -15t58 -38t72.5 -70.5q31 -15 44.5 -5t17 30t0.5 43t-3 35q5 10 15 15t21 4t20 -9t13 -24
q2 -35 -1.5 -66.5t-17 -54t-38.5 -34.5t-66 -7q-25 3 -44.5 15t-35.5 27.5t-30 33.5t-28.5 32.5t-30 24.5t-34.5 10q-27 -11 -36.5 -29t-11 -36.5t1 -34t-0.5 -21.5q-7 -13 -19 -18.5t-23.5 -3.5t-20 10.5t-9.5 22.5z" />
    <glyph glyph-name="Imacron" unicode="&#x12a;" horiz-adv-x="655" 
d="M245 94q16 69 24 138.5t11.5 140.5t3.5 142.5t-1 144.5q-33 -9 -62 -16.5t-57.5 -13t-59 -8t-65.5 -1.5q-11 8 -15.5 16.5t14.5 22.5q70 20 134.5 40.5t128.5 37t129.5 27t138.5 10.5q11 0 27 -8.5t21 -28.5q-14 -21 -38 -29.5t-51.5 -10.5t-56 -2t-52 -3.5t-40.5 -14.5
t-20 -36q-6 -71 -10.5 -138t-6.5 -133.5t-1.5 -134t3.5 -137.5q20 0 47.5 0.5t58 2t61.5 4.5t57 8h20t25.5 -2t21.5 -8t9 -18q0 -19 -21 -29q-15 -9 -57.5 -16.5t-97 -14.5t-114.5 -12t-111 -9t-86.5 -6.5t-40.5 -2.5q-30 3 -43.5 10.5t-15.5 17t4.5 19t15 17t15.5 11t7 1.5
zM185 796q-15 7 -18 18.5t1.5 22.5t14.5 20.5t21 13.5q10 1 30.5 2.5t46.5 3t54.5 4t55 4t47 3t30.5 2.5h11q17 0 23 -12.5t6 -26.5q0 -12 -5.5 -19t-14 -10.5t-19 -4.5t-20.5 -2t-30.5 -2.5t-47 -3t-55 -4t-54.5 -4t-46.5 -3t-30.5 -2.5z" />
    <glyph glyph-name="imacron" unicode="&#x12b;" horiz-adv-x="151" 
d="M36 548q-1 10 5.5 14.5t16 5.5t19.5 0t16 -1q15 -52 23.5 -124t12 -148.5t4.5 -149t1 -126.5h-77zM-108 612q-15 7 -18 18.5t1.5 22.5t14.5 20.5t21 13.5q10 1 30.5 2.5t46.5 3t54.5 4t55 4t47 3t30.5 2.5h11q17 0 23 -12.5t6 -26.5q0 -12 -5.5 -19t-14 -10.5t-19 -4.5
t-20.5 -2t-30.5 -2.5t-47 -3t-55 -4t-54.5 -4t-46.5 -3t-30.5 -2.5z" />
    <glyph glyph-name="Ibreve" unicode="&#x12c;" horiz-adv-x="654" 
d="M232 97q16 69 24 138.5t11.5 140.5t3.5 142.5t-1 144.5q-33 -9 -62 -16.5t-57.5 -13t-59 -8t-65.5 -1.5q-11 8 -15.5 16.5t14.5 22.5q70 20 134.5 40.5t128.5 37t129.5 27t138.5 10.5q11 0 27 -8.5t21 -28.5q-14 -21 -38 -29.5t-51.5 -10.5t-56 -2t-52 -3.5t-40.5 -14.5
t-20 -36q-6 -71 -10.5 -138t-6.5 -133.5t-1.5 -134t3.5 -137.5q20 0 47.5 0.5t58 2t61.5 4.5t57 8h20t25.5 -2t21.5 -8t9 -18q0 -19 -21 -29q-15 -9 -57.5 -16.5t-97 -14.5t-114.5 -12t-111 -9t-86.5 -6.5t-40.5 -2.5q-30 3 -43.5 10.5t-15.5 17t4.5 19t15 17t15.5 11t7 1.5
zM165 897q3 23 20.5 22t35.5 -10q20 -37 43.5 -54t48 -21t48.5 2.5t44 16t34.5 19t20.5 12.5q9 5 22.5 7.5t25.5 0t18.5 -11t2.5 -24.5q-49 -44 -94 -62.5t-84.5 -20t-72 11t-56.5 30.5t-38.5 37.5t-18.5 33.5q-1 3 -0.5 5.5t0.5 5.5z" />
    <glyph glyph-name="ibreve" unicode="&#x12d;" horiz-adv-x="151" 
d="M37 561q-1 10 5.5 14.5t16 5.5t19.5 0t16 -1q15 -52 23 -126t12 -153t4.5 -153.5t0.5 -128.5q0 -9 -8.5 -13.5t-20.5 -4.5t-25.5 4.5t-22.5 13.5l-20 542v0zM-110 739q3 23 20.5 22t35.5 -10q20 -37 43.5 -54t48 -21t48.5 2.5t44 16t34.5 19t20.5 12.5q9 5 22.5 7.5
t25.5 0t18.5 -11t2.5 -24.5q-49 -44 -94 -62.5t-84.5 -20t-72 11t-56.5 30.5t-38.5 37.5t-18.5 33.5q-1 3 -0.5 5.5t0.5 5.5z" />
    <glyph glyph-name="Iogonek" unicode="&#x12e;" horiz-adv-x="651" 
d="M238 85q16 69 24 138.5t11.5 140.5t3.5 142.5t-1 144.5q-33 -9 -62 -16.5t-57.5 -13t-59 -8t-65.5 -1.5q-11 8 -15.5 16.5t14.5 22.5q70 20 134.5 40.5t128.5 37t129.5 27t138.5 10.5q11 0 27 -8.5t21 -28.5q-14 -21 -38 -29.5t-51.5 -10.5t-56 -2t-52 -3.5t-40.5 -14.5
t-20 -36q-6 -71 -10.5 -138t-6.5 -133.5t-1.5 -134t3.5 -137.5q20 0 47.5 0.5t58 2t61.5 4.5t57 8h20t25.5 -2t21.5 -8t9 -18q0 -19 -21 -29q-15 -9 -57.5 -16.5t-97 -14.5t-114.5 -12t-111 -9t-86.5 -6.5t-40.5 -2.5q-30 3 -43.5 10.5t-15.5 17t4.5 19t15 17t15.5 11t7 1.5
zM603 -85q22 -24 19 -36.5t-19 -17t-39.5 -4.5h-42.5q-38 0 -60.5 15.5t-34.5 37.5t-16 47t-4 44q0 34 22 55.5t55 34.5q10 5 16 0t8.5 -14t1.5 -19.5t-3 -18.5t-5 -10t-5 6q-25 -30 -29 -52t5 -37.5t27.5 -24t38.5 -12t38 -2t27 7.5z" />
    <glyph glyph-name="iogonek" unicode="&#x12f;" horiz-adv-x="151" 
d="M36 551q4 15 14 23t21 10t19.5 -2t10.5 -12q1 -58 0.5 -127t-1 -141t1 -142.5t7.5 -132.5q-2 -12 -11 -21t-20.5 -12t-23 2t-18.5 21v534zM73 764q21 0 30 -10t9 -29q0 -15 -10.5 -24t-24.5 -13.5t-28 -6t-21 -1.5q0 15 0.5 30t4.5 27t13 19.5t27 7.5zM176 -104
q22 -24 19 -36.5t-19 -17t-39.5 -4.5h-42.5q-38 0 -60.5 15.5t-34.5 37.5t-16 47t-4 44q0 34 22 55.5t55 34.5q10 5 16 0t8.5 -14t1.5 -19.5t-3 -18.5t-5 -10t-5 6q-25 -30 -29 -52t5 -37.5t27.5 -24t38.5 -12t38 -2t27 7.5z" />
    <glyph glyph-name="Idotaccent" unicode="&#x130;" horiz-adv-x="657" 
d="M241 94q16 69 24 138.5t11.5 140.5t3.5 142.5t-1 144.5q-33 -9 -62 -16.5t-57.5 -13t-59 -8t-65.5 -1.5q-11 8 -15.5 16.5t14.5 22.5q70 20 134.5 40.5t128.5 37t129.5 27t138.5 10.5q11 0 27 -8.5t21 -28.5q-14 -21 -38 -29.5t-51.5 -10.5t-56 -2t-52 -3.5t-40.5 -14.5
t-20 -36q-6 -71 -10.5 -138t-6.5 -133.5t-1.5 -134t3.5 -137.5q20 0 47.5 0.5t58 2t61.5 4.5t57 8h20t25.5 -2t21.5 -8t9 -18q0 -19 -21 -29q-15 -9 -57.5 -16.5t-97 -14.5t-114.5 -12t-111 -9t-86.5 -6.5t-40.5 -2.5q-30 3 -43.5 10.5t-15.5 17t4.5 19t15 17t15.5 11t7 1.5
zM241 877q7 0 21 0.5t28 -2.5t24.5 -10.5t10.5 -22.5q0 -7 -1.5 -15.5t-4.5 -16t-8.5 -12.5t-14.5 -5q-15 0 -25 9t-17 22t-10 27.5t-3 25.5z" />
    <glyph glyph-name="dotlessi" unicode="&#x131;" horiz-adv-x="151" 
d="M37 561q-1 10 5.5 14.5t16 5.5t19.5 0t16 -1q15 -52 23 -126t12 -153t4.5 -153.5t0.5 -128.5q0 -9 -8.5 -13.5t-20.5 -4.5t-25.5 4.5t-22.5 13.5l-20 542v0z" />
    <glyph glyph-name="Jcircumflex" unicode="&#x134;" horiz-adv-x="465" 
d="M89 99q32 -16 60.5 -17.5t54.5 15.5q15 21 24.5 65t15.5 99.5t8.5 117.5t3 119.5t-0.5 104.5t-1 73q-8 6 -35 8.5t-59.5 4.5t-62 5t-41.5 10q0 13 1 25.5t5 22.5t13 16.5t24 6.5q14 -4 49.5 -7.5t82 -6t99 -4.5t101.5 -2.5t90 0.5t64 4q11 -5 15.5 -11.5t4.5 -16.5
q0 -5 -2.5 -12t-6 -14t-8.5 -12.5t-11 -6.5l-250 -7q-13 -46 -15 -114.5t-1.5 -144.5t-1.5 -150.5t-15 -133t-42.5 -92.5t-84.5 -28q-78 2 -116 20t-43.5 36.5t17 29t64.5 -2.5zM236 815q-35 -22 -54 -12.5t-11 51.5l79 102q3 8 12 14.5t20 9.5t21 1t15 -10l96 -122
q0 -23 -7 -34t-16.5 -14.5t-21 -1.5t-21.5 5q-17 20 -31 39t-31 42l-50 -70v0z" />
    <glyph glyph-name="jcircumflex" unicode="&#x135;" horiz-adv-x="190" 
d="M-47 -198q42 -6 69 -4t42.5 15.5t20 39.5t1.5 68q0 69 -9 136.5t-20 135t-20 134.5t-9 135q0 3 1 9.5t6 12.5t17 8.5t33 -1.5q25 -70 39.5 -145.5t22 -152.5t10 -154.5t4.5 -152.5q0 -36 -3 -64.5t-14 -47.5t-34.5 -29t-63.5 -10q-17 0 -33 2.5t-29 9.5t-21.5 20t-9.5 35
zM28 613q-35 -22 -54 -12.5t-11 51.5l79 102q3 8 12 14.5t20 9.5t21 1t15 -10l96 -122q0 -23 -7 -34t-16.5 -14.5t-21 -1.5t-21.5 5q-17 20 -31 39t-31 42z" />
    <glyph glyph-name="Kcommaaccent" unicode="&#x136;" horiz-adv-x="505" 
d="M68 3q2 -5 -6 -10.5t-19 -7t-21 2.5t-12 19q4 61 9 115t8.5 106.5t6 107.5t1.5 119t-6 140t-14 171q7 14 19.5 17.5t25 1.5t21.5 -8t9 -11l10 -341q39 8 80 44.5t79 88t69.5 110t50.5 111.5q17 18 33.5 10t21.5 -35q-7 -36 -28 -77.5t-49.5 -82.5t-61.5 -80t-64.5 -70
t-58.5 -52.5t-44 -27.5q37 -33 85.5 -72.5t96.5 -82.5t89.5 -88t64.5 -87q2 -11 -2 -21.5t-12.5 -15.5t-20 -3.5t-23.5 13.5q-30 32 -66.5 74.5t-77 85.5t-82.5 81t-84 61l-28 -306v0zM120 -220q20 28 22.5 61.5t3 64t5.5 54t30 30.5q20 0 32.5 -29t13 -67t-13 -74.5
t-45.5 -52.5q-15 -5 -29 -1t-19 14z" />
    <glyph glyph-name="kcommaaccent" unicode="&#x137;" horiz-adv-x="496" 
d="M10 43q14 85 17.5 176t3 181.5t-3.5 178.5t-1 168q0 14 8.5 21t19.5 8.5t21 -3t12 -14.5q5 -128 10.5 -201t10 -109t7.5 -45t4 -9q24 23 38 36.5t26 24.5t25.5 23.5t36 33.5t58.5 54.5t92 86.5q8 7 16 4t12 -13t2 -25t-14 -31l-270 -282q36 -46 82.5 -85.5t89.5 -68.5
t75 -47t40 -21q25 -6 32.5 -16t5 -20t-11.5 -16.5t-17 -5.5q-44 1 -93 22t-94 53t-83.5 71.5t-61.5 77.5q0 -4 0.5 -20.5t0 -40t-2 -50.5t-6 -52.5t-11.5 -46t-18 -29.5q-23 -20 -36.5 -9.5t-21.5 40.5zM93 -220q20 28 22.5 61.5t3 64t5.5 54t30 30.5q20 0 32.5 -29t13 -67
t-13 -74.5t-45.5 -52.5q-15 -5 -29 -1t-19 14z" />
    <glyph glyph-name="Lacute" unicode="&#x139;" horiz-adv-x="384" 
d="M28 57q5 79 7.5 166t2.5 174t-2.5 170.5t-8.5 156.5q-2 14 9.5 26.5t27 17.5t29.5 -0.5t19 -26.5q7 -45 7 -117t-3 -159.5t-8.5 -186t-10.5 -197.5l238 1q15 1 24.5 -10.5t12 -26t-2.5 -28t-20 -17.5q-28 11 -66 12.5t-78 0t-77 -3.5t-63.5 0.5t-37.5 13t1 34.5zM359 864
q-15 -7 -34 -20.5t-39 -28.5t-39.5 -29.5t-36.5 -23.5q-23 -2 -34.5 14t-7.5 41l143 107q16 5 28 1t18.5 -13t7 -22t-5.5 -26z" />
    <glyph glyph-name="lacute" unicode="&#x13a;" horiz-adv-x="155" 
d="M40 14q2 69 0 159t-5 187l-6 194t-3 181q-2 11 7 21.5t20.5 15t22.5 0t13 -22.5q5 -158 8.5 -274.5t6 -199t4.5 -134.5t3.5 -82t2.5 -42t3 -13q-12 -10 -25.5 -13.5t-25 -2t-19 8t-7.5 17.5zM186 905q-15 -7 -34 -20.5t-39 -28.5t-39.5 -29.5t-36.5 -23.5
q-23 -2 -34.5 14t-7.5 41l143 107q16 5 28 1t18.5 -13t7 -22t-5.5 -26z" />
    <glyph glyph-name="Lcommaaccent" unicode="&#x13b;" horiz-adv-x="384" 
d="M28 57q5 79 7.5 166t2.5 174t-2.5 170.5t-8.5 156.5q-2 14 9.5 26.5t27 17.5t29.5 -0.5t19 -26.5q7 -45 7 -117t-3 -159.5t-8.5 -186t-10.5 -197.5l238 1q15 1 24.5 -10.5t12 -26t-2.5 -28t-20 -17.5q-28 11 -66 12.5t-78 0t-77 -3.5t-63.5 0.5t-37.5 13t1 34.5zM86 -217
q20 28 22.5 61.5t3 64t5.5 54t30 30.5q20 0 32.5 -29t13 -67t-13 -74.5t-45.5 -52.5q-15 -5 -29 -1t-19 14z" />
    <glyph glyph-name="lcommaaccent" unicode="&#x13c;" horiz-adv-x="151" 
d="M40 14q2 69 0 159t-5 187l-6 194t-3 181q-2 11 7 21.5t20.5 15t22.5 0t13 -22.5q5 -158 8.5 -274.5t6 -199t4.5 -134.5t3.5 -82t2.5 -42t3 -13q-12 -10 -25.5 -13.5t-25 -2t-19 8t-7.5 17.5zM22 -235q20 28 22.5 61.5t3 64t5.5 54t30 30.5q20 0 32.5 -29t13 -67
t-13 -74.5t-45.5 -52.5q-15 -5 -29 -1t-19 14z" />
    <glyph glyph-name="Lcaron" unicode="&#x13d;" horiz-adv-x="384" 
d="M28 57q5 79 7.5 166t2.5 174t-2.5 170.5t-8.5 156.5q-2 14 9.5 26.5t27 17.5t29.5 -0.5t19 -26.5q7 -45 7 -117t-3 -159.5t-8.5 -186t-10.5 -197.5l238 1q15 1 24.5 -10.5t12 -26t-2.5 -28t-20 -17.5q-28 11 -66 12.5t-78 0t-77 -3.5t-63.5 0.5t-37.5 13t1 34.5zM192 531
q15 23 20.5 43t3 39.5t-13 40t-26.5 44.5q0 7 8 11.5t18 5t19.5 -2t14.5 -9.5q22 -28 31.5 -55t8.5 -51.5t-10.5 -44.5t-26.5 -33q-24 -7 -35.5 -2t-11.5 14z" />
    <glyph glyph-name="lcaron" unicode="&#x13e;" horiz-adv-x="245" 
d="M40 14q2 69 0 159t-5 187l-6 194t-3 181q-2 11 7 21.5t20.5 15t22.5 0t13 -22.5q5 -158 8.5 -274.5t6 -199t4.5 -134.5t3.5 -82t2.5 -42t3 -13q-12 -10 -25.5 -13.5t-25 -2t-19 8t-7.5 17.5zM140 526q15 23 20.5 43t3 39.5t-13 40t-26.5 44.5q0 7 8 11.5t18 5t19.5 -2
t14.5 -9.5q22 -28 31.5 -55t8.5 -51.5t-10.5 -44.5t-26.5 -33q-24 -7 -35.5 -2t-11.5 14z" />
    <glyph glyph-name="Ldot" unicode="&#x13f;" horiz-adv-x="384" 
d="M28 57q5 79 7.5 166t2.5 174t-2.5 170.5t-8.5 156.5q-2 14 9.5 26.5t27 17.5t29.5 -0.5t19 -26.5q7 -45 7 -117t-3 -159.5t-8.5 -186t-10.5 -197.5l238 1q15 1 24.5 -10.5t12 -26t-2.5 -28t-20 -17.5q-28 11 -66 12.5t-78 0t-77 -3.5t-63.5 0.5t-37.5 13t1 34.5zM141 382
q7 17 22.5 26t31.5 7t27.5 -16t11.5 -44q0 -7 -1.5 -16t-5 -16.5t-9 -13t-14.5 -5.5q-22 1 -36.5 9t-22 20t-8.5 25t4 24z" />
    <glyph glyph-name="ldot" unicode="&#x140;" horiz-adv-x="255" 
d="M40 14q2 69 0 159t-5 187l-6 194t-3 181q-2 11 7 21.5t20.5 15t22.5 0t13 -22.5q5 -158 8.5 -274.5t6 -199t4.5 -134.5t3.5 -82t2.5 -42t3 -13q-12 -10 -25.5 -13.5t-25 -2t-19 8t-7.5 17.5zM141 420q7 17 22.5 26t31.5 7t27.5 -16t11.5 -44q0 -7 -1.5 -16t-5 -16.5
t-9 -13t-14.5 -5.5q-22 1 -36.5 9t-22 20t-8.5 25t4 24z" />
    <glyph glyph-name="Lslash" unicode="&#x141;" horiz-adv-x="425" 
d="M31 295q-13 1 -18 9t-3.5 17t9.5 17t21 11l199 84q2 0 13.5 0.5t21.5 -2.5t12.5 -12.5t-12.5 -30.5zM77 75q5 79 7.5 166t2.5 174t-2.5 170.5t-8.5 156.5q-2 14 9.5 26.5t27 17.5t29.5 -0.5t19 -26.5q7 -45 7 -117t-3 -159.5t-8.5 -186t-10.5 -197.5l238 1
q15 1 24.5 -10.5t12 -26t-2.5 -28t-20 -17.5q-28 11 -66 12.5t-78 0t-77 -3.5t-63.5 0.5t-37.5 13t1 34.5z" />
    <glyph glyph-name="lslash" unicode="&#x142;" horiz-adv-x="271" 
d="M10 292q-13 1 -18 9t-3.5 17t9.5 17t21 11l199 84q2 0 13.5 0.5t21.5 -2.5t12.5 -12.5t-12.5 -30.5zM79 14q2 69 0 159t-5 187l-6 194t-3 181q-2 11 7 21.5t20.5 15t22.5 0t13 -22.5q5 -158 8.5 -274.5t6 -199t4.5 -134.5t3.5 -82t2.5 -42t3 -13q-12 -10 -25.5 -13.5
t-25 -2t-19 8t-7.5 17.5z" />
    <glyph glyph-name="Nacute" unicode="&#x143;" horiz-adv-x="632" 
d="M38 0q1 156 -0.5 268.5t-2.5 190.5t-0.5 125.5t4.5 73t12.5 34t24.5 8.5q12 0 22 -2.5t15 -18.5q28 -54 64 -127.5t79 -151t90.5 -150.5t97.5 -125l52 608q10 27 23 35t25 7t20.5 -5.5l8.5 -4.5q-5 -14 -8 -29.5t-5.5 -43.5t-6 -74t-9 -120t-14 -181.5t-20.5 -259.5
q-2 -23 -21 -31.5t-36 -8.5q-28 0 -43 15.5t-33 42.5l-273 434v-490q0 -7 -6 -11t-13.5 -6t-15.5 -2.5t-12 -0.5q-2 0 -9.5 0.5t-9.5 0.5zM383 842q-15 -7 -34 -20.5t-39 -28.5t-39.5 -29.5t-36.5 -23.5q-23 -2 -34.5 14t-7.5 41l143 107q16 5 28 1t18.5 -13t7 -22t-5.5 -26
z" />
    <glyph glyph-name="nacute" unicode="&#x144;" horiz-adv-x="486" 
d="M24 572q-1 11 8 15.5t22 6t25.5 0t19.5 -2.5q-1 -7 -1 -23.5t1 -38.5t3.5 -45.5t6.5 -43.5q19 16 44.5 39t54 44t59 35.5t59.5 14.5q33 0 56 -17t39 -43t24.5 -56t12.5 -55q1 -5 1.5 -28.5t1 -57.5t1 -74t2 -77.5t3 -69.5t3.5 -49v-11q0 -17 -12 -22.5t-26 -5.5
q-12 0 -22.5 2t-15.5 18q-1 12 -1.5 41t-1.5 67t-1.5 79.5t-1.5 79.5t-2.5 67t-3.5 41q-2 14 -7 31t-14 31.5t-22 24.5t-31 10q-29 0 -58 -20t-55 -46t-46.5 -51t-30.5 -36q0 -30 -1 -68t-2.5 -78t-2.5 -79t0 -70q0 -10 -0.5 -19.5t-4 -18t-11.5 -14.5t-23 -10q-8 -2 -22 5
t-15 14l-12 564v0zM367 716q-15 -7 -34 -20.5t-39 -28.5t-39.5 -29.5t-36.5 -23.5q-23 -2 -34.5 14t-7.5 41l143 107q16 5 28 1t18.5 -13t7 -22t-5.5 -26z" />
    <glyph glyph-name="Ncommaaccent" unicode="&#x145;" horiz-adv-x="632" 
d="M38 0q1 156 -0.5 268.5t-2.5 190.5t-0.5 125.5t4.5 73t12.5 34t24.5 8.5q12 0 22 -2.5t15 -18.5q28 -54 64 -127.5t79 -151t90.5 -150.5t97.5 -125l52 608q10 27 23 35t25 7t20.5 -5.5l8.5 -4.5q-5 -14 -8 -29.5t-5.5 -43.5t-6 -74t-9 -120t-14 -181.5t-20.5 -259.5
q-2 -23 -21 -31.5t-36 -8.5q-28 0 -43 15.5t-33 42.5l-273 434v-490q0 -7 -6 -11t-13.5 -6t-15.5 -2.5t-12 -0.5q-2 0 -9.5 0.5t-9.5 0.5zM161 -220q20 28 22.5 61.5t3 64t5.5 54t30 30.5q20 0 32.5 -29t13 -67t-13 -74.5t-45.5 -52.5q-15 -5 -29 -1t-19 14z" />
    <glyph glyph-name="ncommaaccent" unicode="&#x146;" horiz-adv-x="490" 
d="M24 572q-1 11 8 15.5t22 6t25.5 0t19.5 -2.5q-1 -7 -1 -23.5t1 -38.5t3.5 -45.5t6.5 -43.5q19 16 44.5 39t54 44t59 35.5t59.5 14.5q33 0 56 -17t39 -43t24.5 -56t12.5 -55q1 -5 1.5 -28.5t1 -57.5t1 -74t2 -77.5t3 -69.5t3.5 -49v-11q0 -17 -12 -22.5t-26 -5.5
q-12 0 -22.5 2t-15.5 18q-1 12 -1.5 41t-1.5 67t-1.5 79.5t-1.5 79.5t-2.5 67t-3.5 41q-2 14 -7 31t-14 31.5t-22 24.5t-31 10q-29 0 -58 -20t-55 -46t-46.5 -51t-30.5 -36q0 -30 -1 -68t-2.5 -78t-2.5 -79t0 -70q0 -10 -0.5 -19.5t-4 -18t-11.5 -14.5t-23 -10q-8 -2 -22 5
t-15 14l-12 564v0zM155 -208q20 28 22.5 61.5t3 64t5.5 54t30 30.5q20 0 32.5 -29t13 -67t-13 -74.5t-45.5 -52.5q-15 -5 -29 -1t-19 14z" />
    <glyph glyph-name="Ncaron" unicode="&#x147;" horiz-adv-x="632" 
d="M38 0q1 156 -0.5 268.5t-2.5 190.5t-0.5 125.5t4.5 73t12.5 34t24.5 8.5q12 0 22 -2.5t15 -18.5q28 -54 64 -127.5t79 -151t90.5 -150.5t97.5 -125l52 608q10 27 23 35t25 7t20.5 -5.5l8.5 -4.5q-5 -14 -8 -29.5t-5.5 -43.5t-6 -74t-9 -120t-14 -181.5t-20.5 -259.5
q-2 -23 -21 -31.5t-36 -8.5q-28 0 -43 15.5t-33 42.5l-273 434v-490q0 -7 -6 -11t-13.5 -6t-15.5 -2.5t-12 -0.5q-2 0 -9.5 0.5t-9.5 0.5zM267 811q17 23 31 42t31 39q10 3 21.5 5t21 -1.5t16.5 -14.5t7 -34l-96 -122q-5 -8 -15 -10t-21 1t-20 9.5t-12 14.5l-79 102
q-8 42 11 51.5t54 -12.5z" />
    <glyph glyph-name="ncaron" unicode="&#x148;" horiz-adv-x="486" 
d="M24 572q-1 11 8 15.5t22 6t25.5 0t19.5 -2.5q-1 -7 -1 -23.5t1 -38.5t3.5 -45.5t6.5 -43.5q19 16 44.5 39t54 44t59 35.5t59.5 14.5q33 0 56 -17t39 -43t24.5 -56t12.5 -55q1 -5 1.5 -28.5t1 -57.5t1 -74t2 -77.5t3 -69.5t3.5 -49v-11q0 -17 -12 -22.5t-26 -5.5
q-12 0 -22.5 2t-15.5 18q-1 12 -1.5 41t-1.5 67t-1.5 79.5t-1.5 79.5t-2.5 67t-3.5 41q-2 14 -7 31t-14 31.5t-22 24.5t-31 10q-29 0 -58 -20t-55 -46t-46.5 -51t-30.5 -36q0 -30 -1 -68t-2.5 -78t-2.5 -79t0 -70q0 -10 -0.5 -19.5t-4 -18t-11.5 -14.5t-23 -10q-8 -2 -22 5
t-15 14l-12 564v0zM257 714q17 23 31 42t31 39q10 3 21.5 5t21 -1.5t16.5 -14.5t7 -34l-96 -122q-5 -8 -15 -10t-21 1t-20 9.5t-12 14.5l-79 102q-8 42 11 51.5t54 -12.5z" />
    <glyph glyph-name="napostrophe" unicode="&#x149;" horiz-adv-x="496" 
d="M24 572q-1 11 8 15.5t22 6t25.5 0t19.5 -2.5q-1 -7 -1 -23.5t1 -38.5t3.5 -45.5t6.5 -43.5q19 16 44.5 39t54 44t59 35.5t59.5 14.5q33 0 56 -17t39 -43t24.5 -56t12.5 -55q1 -5 1.5 -28.5t1 -57.5t1 -74t2 -77.5t3 -69.5t3.5 -49v-11q0 -17 -12 -22.5t-26 -5.5
q-12 0 -22.5 2t-15.5 18q-1 12 -1.5 41t-1.5 67t-1.5 79.5t-1.5 79.5t-2.5 67t-3.5 41q-2 14 -7 31t-14 31.5t-22 24.5t-31 10q-29 0 -58 -20t-55 -46t-46.5 -51t-30.5 -36q0 -30 -1 -68t-2.5 -78t-2.5 -79t0 -70q0 -10 -0.5 -19.5t-4 -18t-11.5 -14.5t-23 -10q-8 -2 -22 5
t-15 14l-12 564v0zM177 -242q20 28 22.5 61.5t3 64t5.5 54t30 30.5q20 0 32.5 -29t13 -67t-13 -74.5t-45.5 -52.5q-15 -5 -29 -1t-19 14z" />
    <glyph glyph-name="Omacron" unicode="&#x14c;" horiz-adv-x="538" 
d="M26 241q0 33 7 84.5t21 109.5t36 116.5t52.5 105t69 76t86.5 29.5q41 0 72 -20t53.5 -53t37.5 -75t24 -85.5t13 -85t4 -72.5q0 -66 -23 -132.5t-65.5 -119.5t-102.5 -86.5t-133 -33.5q-44 0 -73 25.5t-46.5 63t-25 79t-7.5 74.5zM102 240q0 -31 3.5 -61t15 -53
t32.5 -37.5t56 -14.5q47 1 87 23t69.5 61t45.5 92.5t15 117.5q0 29 -1 64t-6 70t-15 68t-28 58.5t-45.5 41t-66.5 15.5q-22 0 -42.5 -27.5t-38.5 -70t-33 -94.5t-25.5 -101.5t-16.5 -90.5t-6 -61zM136 798q-15 7 -18 18.5t1.5 22.5t14.5 20.5t21 13.5q10 1 30.5 2.5t46.5 3
t54.5 4t55 4t47 3t30.5 2.5h11q17 0 23 -12.5t6 -26.5q0 -12 -5.5 -19t-14 -10.5t-19 -4.5t-20.5 -2t-30.5 -2.5t-47 -3t-55 -4t-54.5 -4t-46.5 -3t-30.5 -2.5z" />
    <glyph glyph-name="omacron" unicode="&#x14d;" horiz-adv-x="428" 
d="M17 179q-5 25 -3.5 67t9 89.5t22.5 95.5t38 85.5t55 58.5t73 15q61 0 99 -17.5t59.5 -49t31 -74.5t12.5 -94q5 -33 2 -73.5t-14 -81.5t-30 -78.5t-45.5 -66t-61 -44.5t-76.5 -12q-41 0 -73 13.5t-53.5 37.5t-33 57t-11.5 72zM87 213q0 -26 3.5 -50.5t14 -44.5t29 -32
t48.5 -12q40 0 70.5 32t51.5 77t31.5 92t10.5 77q0 49 -11.5 83t-28.5 55t-37.5 30.5t-38.5 11.5q-23 0 -43 -18t-36.5 -46.5t-29 -64t-20.5 -71t-11.5 -67t-2.5 -52.5zM65 618q-15 7 -18 18.5t1.5 22.5t14.5 20.5t21 13.5q10 1 30.5 2.5t46.5 3t54.5 4t55 4t47 3t30.5 2.5
h11q17 0 23 -12.5t6 -26.5q0 -12 -5.5 -19t-14 -10.5t-19 -4.5t-20.5 -2t-30.5 -2.5t-47 -3t-55 -4t-54.5 -4t-46.5 -3t-30.5 -2.5z" />
    <glyph glyph-name="Obreve" unicode="&#x14e;" horiz-adv-x="538" 
d="M26 241q0 33 7 84.5t21 109.5t36 116.5t52.5 105t69 76t86.5 29.5q41 0 72 -20t53.5 -53t37.5 -75t24 -85.5t13 -85t4 -72.5q0 -66 -23 -132.5t-65.5 -119.5t-102.5 -86.5t-133 -33.5q-44 0 -73 25.5t-46.5 63t-25 79t-7.5 74.5zM102 240q0 -31 3.5 -61t15 -53
t32.5 -37.5t56 -14.5q47 1 87 23t69.5 61t45.5 92.5t15 117.5q0 29 -1 64t-6 70t-15 68t-28 58.5t-45.5 41t-66.5 15.5q-22 0 -42.5 -27.5t-38.5 -70t-33 -94.5t-25.5 -101.5t-16.5 -90.5t-6 -61zM104 936q3 23 20.5 22t35.5 -10q20 -37 43.5 -54t48 -21t48.5 2.5t44 16
t34.5 19t20.5 12.5q9 5 22.5 7.5t25.5 0t18.5 -11t2.5 -24.5q-49 -44 -94 -62.5t-84.5 -20t-72 11t-56.5 30.5t-38.5 37.5t-18.5 33.5q-1 3 -0.5 5.5t0.5 5.5z" />
    <glyph glyph-name="obreve" unicode="&#x14f;" horiz-adv-x="435" 
d="M17 179q-5 25 -3.5 67t9 89.5t22.5 95.5t38 85.5t55 58.5t73 15q61 0 99 -17.5t59.5 -49t31 -74.5t12.5 -94q5 -33 2 -73.5t-14 -81.5t-30 -78.5t-45.5 -66t-61 -44.5t-76.5 -12q-41 0 -73 13.5t-53.5 37.5t-33 57t-11.5 72zM87 213q0 -26 3.5 -50.5t14 -44.5t29 -32
t48.5 -12q40 0 70.5 32t51.5 77t31.5 92t10.5 77q0 49 -11.5 83t-28.5 55t-37.5 30.5t-38.5 11.5q-23 0 -43 -18t-36.5 -46.5t-29 -64t-20.5 -71t-11.5 -67t-2.5 -52.5zM39 787q3 23 20.5 22t35.5 -10q20 -37 43.5 -54t48 -21t48.5 2.5t44 16t34.5 19t20.5 12.5
q9 5 22.5 7.5t25.5 0t18.5 -11t2.5 -24.5q-49 -44 -94 -62.5t-84.5 -20t-72 11t-56.5 30.5t-38.5 37.5t-18.5 33.5q-1 3 -0.5 5.5t0.5 5.5z" />
    <glyph glyph-name="Ohungarumlaut" unicode="&#x150;" horiz-adv-x="520" 
d="M26 241q0 33 7 84.5t21 109.5t36 116.5t52.5 105t69 76t86.5 29.5q41 0 72 -20t53.5 -53t37.5 -75t24 -85.5t13 -85t4 -72.5q0 -66 -23 -132.5t-65.5 -119.5t-102.5 -86.5t-133 -33.5q-44 0 -73 25.5t-46.5 63t-25 79t-7.5 74.5zM102 240q0 -31 3.5 -61t15 -53
t32.5 -37.5t56 -14.5q47 1 87 23t69.5 61t45.5 92.5t15 117.5q0 29 -1 64t-6 70t-15 68t-28 58.5t-45.5 41t-66.5 15.5q-22 0 -42.5 -27.5t-38.5 -70t-33 -94.5t-25.5 -101.5t-16.5 -90.5t-6 -61zM330 904q-15 -7 -34 -20.5t-39 -28.5t-39.5 -29.5t-36.5 -23.5
q-23 -2 -34.5 14t-7.5 41l143 107q16 5 28 1t18.5 -13t7 -22t-5.5 -26zM484 899q-15 -7 -34 -20.5t-39 -28.5t-39.5 -29.5t-36.5 -23.5q-23 -2 -34.5 14t-7.5 41l143 107q16 5 28 1t18.5 -13t7 -22t-5.5 -26z" />
    <glyph glyph-name="ohungarumlaut" unicode="&#x151;" horiz-adv-x="425" 
d="M17 179q-5 25 -3.5 67t9 89.5t22.5 95.5t38 85.5t55 58.5t73 15q61 0 99 -17.5t59.5 -49t31 -74.5t12.5 -94q5 -33 2 -73.5t-14 -81.5t-30 -78.5t-45.5 -66t-61 -44.5t-76.5 -12q-41 0 -73 13.5t-53.5 37.5t-33 57t-11.5 72zM87 213q0 -26 3.5 -50.5t14 -44.5t29 -32
t48.5 -12q40 0 70.5 32t51.5 77t31.5 92t10.5 77q0 49 -11.5 83t-28.5 55t-37.5 30.5t-38.5 11.5q-23 0 -43 -18t-36.5 -46.5t-29 -64t-20.5 -71t-11.5 -67t-2.5 -52.5zM257 740q-15 -7 -34 -20.5t-39 -28.5t-39.5 -29.5t-36.5 -23.5q-23 -2 -34.5 14t-7.5 41l143 107
q16 5 28 1t18.5 -13t7 -22t-5.5 -26zM411 735q-15 -7 -34 -20.5t-39 -28.5t-39.5 -29.5t-36.5 -23.5q-23 -2 -34.5 14t-7.5 41l143 107q16 5 28 1t18.5 -13t7 -22t-5.5 -26z" />
    <glyph glyph-name="OE" unicode="&#x152;" horiz-adv-x="948" 
d="M23 229q0 33 7 84.5t21 109.5t36 116.5t52.5 105t69 76t86.5 29.5q41 0 72 -20t53.5 -53t37.5 -75t24 -85.5t13 -85t4 -72.5q0 -66 -23 -132.5t-65.5 -119.5t-102.5 -86.5t-133 -33.5q-44 0 -73 25.5t-46.5 63t-25 79t-7.5 74.5zM99 228q0 -31 3.5 -61t15 -53t32.5 -37.5
t56 -14.5q47 1 87 23t69.5 61t45.5 92.5t15 117.5q0 29 -1 64t-6 70t-15 68t-28 58.5t-45.5 41t-66.5 15.5q-22 0 -42.5 -27.5t-38.5 -70t-33 -94.5t-25.5 -101.5t-16.5 -90.5t-6 -61zM445 713q2 9 33.5 16.5t79 14t103.5 11.5t107 8.5t89.5 5.5t51.5 2q10 0 22 -1
t21.5 -4.5t16 -11t6.5 -20.5q0 -20 -19 -30.5t-51 -15t-72.5 -4.5t-83.5 0.5t-85 0.5t-76.5 -4.5t-57.5 -14t-28 -28.5q3 -12 2 -28t-3 -34.5t-3 -39.5t3 -45q27 -2 62.5 -1.5t73.5 1.5t75.5 2.5t67.5 2.5q0 -31 -9.5 -48t-47.5 -28q-14 -3 -45 -4t-66 -1t-66 -0.5t-45 -1.5
q1 -42 2 -88.5t0 -90t-3.5 -80t-7.5 -59.5q22 2 52 1.5t64 -2t70 -2t68.5 0.5t60 5.5t45.5 14.5q20 0 29 -7t9.5 -18.5t-5 -24.5t-14.5 -25l-377 -38q-8 -1 -18.5 4.5t-19.5 14.5t-15 19t-4 19z" />
    <glyph glyph-name="oe" unicode="&#x153;" horiz-adv-x="747" 
d="M50 189q-5 25 -4 65.5t8.5 86.5t22 92t37.5 81.5t54.5 55t72.5 13.5q74 0 114.5 -27t57.5 -73q11 24 25.5 42.5t35 31t48.5 19.5t66 7q46 0 77.5 -21t31.5 -71q0 -55 -21.5 -93t-57 -64.5t-79.5 -43.5t-89 -30q0 -5 -0.5 -19t-0.5 -19q6 -71 28 -109.5t51.5 -55t63 -16.5
t62 6.5t47.5 13t20 2.5q5 -13 1 -28t-20.5 -28t-48.5 -21.5t-82 -9.5q-42 0 -71.5 12.5t-50 33.5t-33.5 49t-21 60q-28 -52 -73.5 -84.5t-110.5 -27.5q-82 0 -121.5 45.5t-39.5 124.5zM125 226q0 -26 1 -49.5t8.5 -42t24 -29.5t46.5 -11q32 0 58.5 18.5t47.5 47t35 62.5
t22 66l6 66q0 2 0.5 3.5t0.5 3.5q-2 45 -13.5 75.5t-28.5 49.5t-36.5 28t-36.5 11q-23 0 -43.5 -19.5t-37 -49t-28.5 -65t-19 -68.5t-9 -59.5t2 -37.5zM449 363q0 -8 3.5 -18t15.5 -10q24 0 51 11.5t49.5 29.5t37.5 41.5t15 47.5q0 25 -5 42.5t-33 17.5q-35 0 -60 -13
t-41.5 -35.5t-24.5 -52t-8 -61.5z" />
    <glyph glyph-name="Racute" unicode="&#x154;" horiz-adv-x="564" 
d="M105 483q0 16 -0.5 38t-2.5 44.5t-6 43t-11 33.5q-19 -9 -34 -7.5t-23.5 8t-9.5 17t10 19.5q19 30 57 53t85 36t98.5 15.5t98 -7t82.5 -33t53 -61.5q0 -38 -15 -71.5t-40.5 -63t-57.5 -54.5t-65.5 -46t-66.5 -38.5t-59 -31.5q0 -5 18 -19t46.5 -32.5t63 -39t66.5 -39
t57.5 -33.5t37.5 -21q40 -19 54.5 -29.5t14.5 -17t-9 -12t-16 -14.5q-57 0 -101.5 15.5t-84.5 39.5t-79.5 52.5t-86.5 55.5q-4 -27 -6 -62.5t-4.5 -71t-7 -68t-13.5 -54.5t-25 -29t-41 8zM179 453q36 9 79 29t80.5 48.5t62.5 64.5t25 79q-17 28 -48 39.5t-66.5 11.5
t-71 -8.5t-61.5 -18.5v-245zM355 910q-15 -7 -34 -20.5t-39 -28.5t-39.5 -29.5t-36.5 -23.5q-23 -2 -34.5 14t-7.5 41l143 107q16 5 28 1t18.5 -13t7 -22t-5.5 -26z" />
    <glyph glyph-name="racute" unicode="&#x155;" horiz-adv-x="409" 
d="M47 19q2 51 1 121t-4.5 144t-9.5 144.5t-13 122.5q0 17 12.5 23.5t26.5 6.5q10 0 17 -4.5t12.5 -10.5t11 -13t14.5 -12q15 17 39.5 27.5t53 15t58.5 4t55.5 -6t43.5 -15.5t24 -23q-12 -27 -24.5 -33.5t-28.5 -4.5t-38 6.5t-54 -1.5q-46 -1 -73 -30t-41 -74.5t-18 -102
t-2 -112t6 -105.5t6 -82q-8 -8 -19.5 -13.5t-22.5 -4.5t-20.5 8.5t-12.5 24.5zM283 713q-15 -7 -34 -20.5t-39 -28.5t-39.5 -29.5t-36.5 -23.5q-23 -2 -34.5 14t-7.5 41l143 107q16 5 28 1t18.5 -13t7 -22t-5.5 -26z" />
    <glyph glyph-name="Rcommaaccent" unicode="&#x156;" horiz-adv-x="564" 
d="M105 483q0 16 -0.5 38t-2.5 44.5t-6 43t-11 33.5q-19 -9 -34 -7.5t-23.5 8t-9.5 17t10 19.5q19 30 57 53t85 36t98.5 15.5t98 -7t82.5 -33t53 -61.5q0 -38 -15 -71.5t-40.5 -63t-57.5 -54.5t-65.5 -46t-66.5 -38.5t-59 -31.5q0 -5 18 -19t46.5 -32.5t63 -39t66.5 -39
t57.5 -33.5t37.5 -21q40 -19 54.5 -29.5t14.5 -17t-9 -12t-16 -14.5q-57 0 -101.5 15.5t-84.5 39.5t-79.5 52.5t-86.5 55.5q-4 -27 -6 -62.5t-4.5 -71t-7 -68t-13.5 -54.5t-25 -29t-41 8zM179 453q36 9 79 29t80.5 48.5t62.5 64.5t25 79q-17 28 -48 39.5t-66.5 11.5
t-71 -8.5t-61.5 -18.5v-245zM151 -220q20 28 22.5 61.5t3 64t5.5 54t30 30.5q20 0 32.5 -29t13 -67t-13 -74.5t-45.5 -52.5q-15 -5 -29 -1t-19 14z" />
    <glyph glyph-name="rcommaaccent" unicode="&#x157;" horiz-adv-x="406" 
d="M47 19q2 51 1 121t-4.5 144t-9.5 144.5t-13 122.5q0 17 12.5 23.5t26.5 6.5q10 0 17 -4.5t12.5 -10.5t11 -13t14.5 -12q15 17 39.5 27.5t53 15t58.5 4t55.5 -6t43.5 -15.5t24 -23q-12 -27 -24.5 -33.5t-28.5 -4.5t-38 6.5t-54 -1.5q-46 -1 -73 -30t-41 -74.5t-18 -102
t-2 -112t6 -105.5t6 -82q-8 -8 -19.5 -13.5t-22.5 -4.5t-20.5 8.5t-12.5 24.5zM142 -207q20 28 22.5 61.5t3 64t5.5 54t30 30.5q20 0 32.5 -29t13 -67t-13 -74.5t-45.5 -52.5q-15 -5 -29 -1t-19 14z" />
    <glyph glyph-name="Rcaron" unicode="&#x158;" horiz-adv-x="573" 
d="M105 483q0 16 -0.5 38t-2.5 44.5t-6 43t-11 33.5q-19 -9 -34 -7.5t-23.5 8t-9.5 17t10 19.5q19 30 57 53t85 36t98.5 15.5t98 -7t82.5 -33t53 -61.5q0 -38 -15 -71.5t-40.5 -63t-57.5 -54.5t-65.5 -46t-66.5 -38.5t-59 -31.5q0 -5 18 -19t46.5 -32.5t63 -39t66.5 -39
t57.5 -33.5t37.5 -21q40 -19 54.5 -29.5t14.5 -17t-9 -12t-16 -14.5q-57 0 -101.5 15.5t-84.5 39.5t-79.5 52.5t-86.5 55.5q-4 -27 -6 -62.5t-4.5 -71t-7 -68t-13.5 -54.5t-25 -29t-41 8zM179 453q36 9 79 29t80.5 48.5t62.5 64.5t25 79q-17 28 -48 39.5t-66.5 11.5
t-71 -8.5t-61.5 -18.5v-245zM203 933q17 23 31 42t31 39q10 3 21.5 5t21 -1.5t16.5 -14.5t7 -34l-96 -122q-5 -8 -15 -10t-21 1t-20 9.5t-12 14.5l-79 102q-8 42 11 51.5t54 -12.5z" />
    <glyph glyph-name="rcaron" unicode="&#x159;" horiz-adv-x="399" 
d="M47 19q2 51 1 121t-4.5 144t-9.5 144.5t-13 122.5q0 17 12.5 23.5t26.5 6.5q10 0 17 -4.5t12.5 -10.5t11 -13t14.5 -12q15 17 39.5 27.5t53 15t58.5 4t55.5 -6t43.5 -15.5t24 -23q-12 -27 -24.5 -33.5t-28.5 -4.5t-38 6.5t-54 -1.5q-46 -1 -73 -30t-41 -74.5t-18 -102
t-2 -112t6 -105.5t6 -82q-8 -8 -19.5 -13.5t-22.5 -4.5t-20.5 8.5t-12.5 24.5zM163 718q17 23 31 42t31 39q10 3 21.5 5t21 -1.5t16.5 -14.5t7 -34l-96 -122q-5 -8 -15 -10t-21 1t-20 9.5t-12 14.5l-79 102q-8 42 11 51.5t54 -12.5z" />
    <glyph glyph-name="Sacute" unicode="&#x15a;" horiz-adv-x="475" 
d="M36 212q0 20 3.5 38t12.5 31.5t24 21t39 7.5q0 -15 -3.5 -29t-7.5 -27.5t-7.5 -28t-3.5 -29.5q0 -29 13.5 -55t35.5 -43.5t49 -24.5t53 1q57 12 81.5 33.5t25.5 50.5t-17 64t-45 74t-58.5 81t-58 84t-44 83t-15.5 79q0 43 30.5 71t74 44t91 22.5t81.5 6.5q14 0 25.5 -6
t11.5 -23t-17.5 -23.5t-44.5 -9.5t-57.5 -6t-57.5 -12t-44.5 -27.5t-17.5 -53.5q0 -10 4 -24.5t24 -49.5t62 -98.5t118 -169.5q24 -46 25 -92.5t-19.5 -84t-60.5 -62t-97 -25.5q-45 -5 -84.5 13t-68 49.5t-43.5 71.5t-12 78zM314 860q-15 -7 -34 -20.5t-39 -28.5
t-39.5 -29.5t-36.5 -23.5q-23 -2 -34.5 14t-7.5 41l143 107q16 5 28 1t18.5 -13t7 -22t-5.5 -26z" />
    <glyph glyph-name="sacute" unicode="&#x15b;" horiz-adv-x="303" 
d="M6 119q12 36 20.5 45t15 2.5t14 -23.5t19 -33.5t28 -27.5t42.5 -5q17 8 29 22t10 27q-6 32 -28 61.5t-47 58.5t-47 58t-28 61q-5 23 -2 58.5t14.5 69.5t31 59.5t48.5 29.5q47 -2 81 -12t52 -23.5t19 -29.5t-18 -30q-39 7 -71 9t-53 -8t-29 -36.5t2 -77.5q7 -33 30.5 -62
t50.5 -57.5t50.5 -58t30.5 -62.5q5 -27 -6.5 -50t-33 -40.5t-50 -29t-56.5 -15.5q-22 -3 -43 7t-37.5 28t-27 40.5t-11.5 44.5zM247 704q-15 -7 -34 -20.5t-39 -28.5t-39.5 -29.5t-36.5 -23.5q-23 -2 -34.5 14t-7.5 41l143 107q16 5 28 1t18.5 -13t7 -22t-5.5 -26z" />
    <glyph glyph-name="Scircumflex" unicode="&#x15c;" horiz-adv-x="451" 
d="M36 212q0 20 3.5 38t12.5 31.5t24 21t39 7.5q0 -15 -3.5 -29t-7.5 -27.5t-7.5 -28t-3.5 -29.5q0 -29 13.5 -55t35.5 -43.5t49 -24.5t53 1q57 12 81.5 33.5t25.5 50.5t-17 64t-45 74t-58.5 81t-58 84t-44 83t-15.5 79q0 43 30.5 71t74 44t91 22.5t81.5 6.5q14 0 25.5 -6
t11.5 -23t-17.5 -23.5t-44.5 -9.5t-57.5 -6t-57.5 -12t-44.5 -27.5t-17.5 -53.5q0 -10 4 -24.5t24 -49.5t62 -98.5t118 -169.5q24 -46 25 -92.5t-19.5 -84t-60.5 -62t-97 -25.5q-45 -5 -84.5 13t-68 49.5t-43.5 71.5t-12 78zM174 809q-35 -22 -54 -12.5t-11 51.5l79 102
q3 8 12 14.5t20 9.5t21 1t15 -10l96 -122q0 -23 -7 -34t-16.5 -14.5t-21 -1.5t-21.5 5q-17 20 -31 39t-31 42l-50 -70v0z" />
    <glyph glyph-name="scircumflex" unicode="&#x15d;" horiz-adv-x="287" 
d="M6 119q12 36 20.5 45t15 2.5t14 -23.5t19 -33.5t28 -27.5t42.5 -5q17 8 29 22t10 27q-6 32 -28 61.5t-47 58.5t-47 58t-28 61q-5 23 -2 58.5t14.5 69.5t31 59.5t48.5 29.5q47 -2 81 -12t52 -23.5t19 -29.5t-18 -30q-39 7 -71 9t-53 -8t-29 -36.5t2 -77.5q7 -33 30.5 -62
t50.5 -57.5t50.5 -58t30.5 -62.5q5 -27 -6.5 -50t-33 -40.5t-50 -29t-56.5 -15.5q-22 -3 -43 7t-37.5 28t-27 40.5t-11.5 44.5zM78 632q-35 -22 -54 -12.5t-11 51.5l79 102q3 8 12 14.5t20 9.5t21 1t15 -10l96 -122q0 -23 -7 -34t-16.5 -14.5t-21 -1.5t-21.5 5
q-17 20 -31 39t-31 42l-50 -70v0z" />
    <glyph glyph-name="Scedilla" unicode="&#x15e;" horiz-adv-x="451" 
d="M36 212q0 20 3.5 38t12.5 31.5t24 21t39 7.5q0 -15 -3.5 -29t-7.5 -27.5t-7.5 -28t-3.5 -29.5q0 -29 13.5 -55t35.5 -43.5t49 -24.5t53 1q57 12 81.5 33.5t25.5 50.5t-17 64t-45 74t-58.5 81t-58 84t-44 83t-15.5 79q0 43 30.5 71t74 44t91 22.5t81.5 6.5q14 0 25.5 -6
t11.5 -23t-17.5 -23.5t-44.5 -9.5t-57.5 -6t-57.5 -12t-44.5 -27.5t-17.5 -53.5q0 -10 4 -24.5t24 -49.5t62 -98.5t118 -169.5q24 -46 25 -92.5t-19.5 -84t-60.5 -62t-97 -25.5q-45 -5 -84.5 13t-68 49.5t-43.5 71.5t-12 78zM114 -149q19 24 28.5 29.5t14.5 0.5t9 -18
t11.5 -25.5t21.5 -21.5t40 -7q18 4 32.5 13t14.5 18q0 23 -19 38.5t-41.5 29.5t-41 29t-18.5 38q0 33 11.5 46t25 10t25 -18.5t11.5 -37.5q0 -24 20.5 -39.5t45 -29.5t45 -29.5t20.5 -39.5q0 -19 -16 -37.5t-41 -31t-54 -16.5t-54 5q-22 0 -40 9t-30.5 23t-18 30.5
t-2.5 31.5z" />
    <glyph glyph-name="scedilla" unicode="&#x15f;" horiz-adv-x="306" 
d="M6 119q12 36 20.5 45t15 2.5t14 -23.5t19 -33.5t28 -27.5t42.5 -5q17 8 29 22t10 27q-6 32 -28 61.5t-47 58.5t-47 58t-28 61q-5 23 -2 58.5t14.5 69.5t31 59.5t48.5 29.5q47 -2 81 -12t52 -23.5t19 -29.5t-18 -30q-39 7 -71 9t-53 -8t-29 -36.5t2 -77.5q7 -33 30.5 -62
t50.5 -57.5t50.5 -58t30.5 -62.5q5 -27 -6.5 -50t-33 -40.5t-50 -29t-56.5 -15.5q-22 -3 -43 7t-37.5 28t-27 40.5t-11.5 44.5zM32 -131q19 24 28.5 29.5t14.5 0.5t9 -18t11.5 -25.5t21.5 -21.5t40 -7q18 4 32.5 13t14.5 18q0 23 -19 38.5t-41.5 29.5t-41 29t-18.5 38
q0 33 11.5 46t25 10t25 -18.5t11.5 -37.5q0 -24 20.5 -39.5t45 -29.5t45 -29.5t20.5 -39.5q0 -19 -16 -37.5t-41 -31t-54 -16.5t-54 5q-22 0 -40 9t-30.5 23t-18 30.5t-2.5 31.5z" />
    <glyph glyph-name="Scaron" unicode="&#x160;" horiz-adv-x="475" 
d="M36 212q0 20 3.5 38t12.5 31.5t24 21t39 7.5q0 -15 -3.5 -29t-7.5 -27.5t-7.5 -28t-3.5 -29.5q0 -29 13.5 -55t35.5 -43.5t49 -24.5t53 1q57 12 81.5 33.5t25.5 50.5t-17 64t-45 74t-58.5 81t-58 84t-44 83t-15.5 79q0 43 30.5 71t74 44t91 22.5t81.5 6.5q14 0 25.5 -6
t11.5 -23t-17.5 -23.5t-44.5 -9.5t-57.5 -6t-57.5 -12t-44.5 -27.5t-17.5 -53.5q0 -10 4 -24.5t24 -49.5t62 -98.5t118 -169.5q24 -46 25 -92.5t-19.5 -84t-60.5 -62t-97 -25.5q-45 -5 -84.5 13t-68 49.5t-43.5 71.5t-12 78zM259 886q17 23 31 42t31 39q10 3 21.5 5t21 -1.5
t16.5 -14.5t7 -34l-96 -122q-5 -8 -15 -10t-21 1t-20 9.5t-12 14.5l-79 102q-8 42 11 51.5t54 -12.5z" />
    <glyph glyph-name="scaron" unicode="&#x161;" horiz-adv-x="340" 
d="M6 119q12 36 20.5 45t15 2.5t14 -23.5t19 -33.5t28 -27.5t42.5 -5q17 8 29 22t10 27q-6 32 -28 61.5t-47 58.5t-47 58t-28 61q-5 23 -2 58.5t14.5 69.5t31 59.5t48.5 29.5q47 -2 81 -12t52 -23.5t19 -29.5t-18 -30q-39 7 -71 9t-53 -8t-29 -36.5t2 -77.5q7 -33 30.5 -62
t50.5 -57.5t50.5 -58t30.5 -62.5q5 -27 -6.5 -50t-33 -40.5t-50 -29t-56.5 -15.5q-22 -3 -43 7t-37.5 28t-27 40.5t-11.5 44.5zM144 722q17 23 31 42t31 39q10 3 21.5 5t21 -1.5t16.5 -14.5t7 -34l-96 -122q-5 -8 -15 -10t-21 1t-20 9.5t-12 14.5l-79 102q-8 42 11 51.5
t54 -12.5z" />
    <glyph glyph-name="Tcommaaccent" unicode="&#x162;" 
d="M170 26q3 83 8 163.5t8.5 161t5 162t-2.5 166.5q-5 1 -19.5 2.5t-33.5 3t-40 4t-38 7.5t-28.5 12t-11.5 18q0 23 17.5 36t37.5 13q51 0 100 -10.5t100 -10.5q50 0 86 1.5t68.5 3.5t67.5 3.5t83 1.5q0 -32 -11 -49t-33.5 -22t-54.5 -10q-15 -3 -41.5 -3t-56 0.5t-56.5 0.5
t-42 -2q-9 -34 -15.5 -83.5t-10.5 -107t-6.5 -120t-4 -122t-2.5 -112t-2 -91.5q3 -8 -2.5 -21.5t-16 -21t-25 -4t-28.5 29.5zM137 -225q20 28 22.5 61.5t3 64t5.5 54t30 30.5q20 0 32.5 -29t13 -67t-13 -74.5t-45.5 -52.5q-15 -5 -29 -1t-19 14z" />
    <glyph glyph-name="tcommaaccent" unicode="&#x163;" horiz-adv-x="547" 
d="M18 442q0 2 -1 9.5t-1 9.5q0 24 12.5 31.5t34.5 7.5t45.5 -6t42.5 -5.5t29.5 14t7.5 53.5q1 13 1 40v57v57t-1 41q3 9 11.5 14.5t18.5 7.5t20 2.5t16 0.5v-293q30 0 58.5 5.5t56.5 12.5t55.5 12.5t56.5 5.5q16 0 31.5 -4t15.5 -25q0 -19 -17 -32t-43 -22t-58 -14.5
t-62.5 -8.5t-56 -4t-37.5 -1l1 -389q-2 -11 -13.5 -15.5t-26 -2t-28 11.5t-17.5 25q0 108 1 179.5t1.5 115t0 61.5t-2.5 19q-8 3 -29.5 7t-46.5 8.5t-47 8.5t-29 5zM167 -235q20 28 22.5 61.5t3 64t5.5 54t30 30.5q20 0 32.5 -29t13 -67t-13 -74.5t-45.5 -52.5
q-15 -5 -29 -1t-19 14z" />
    <glyph glyph-name="Tcaron" unicode="&#x164;" 
d="M170 26q3 83 8 163.5t8.5 161t5 162t-2.5 166.5q-5 1 -19.5 2.5t-33.5 3t-40 4t-38 7.5t-28.5 12t-11.5 18q0 23 17.5 36t37.5 13q51 0 100 -10.5t100 -10.5q50 0 86 1.5t68.5 3.5t67.5 3.5t83 1.5q0 -32 -11 -49t-33.5 -22t-54.5 -10q-15 -3 -41.5 -3t-56 0.5t-56.5 0.5
t-42 -2q-9 -34 -15.5 -83.5t-10.5 -107t-6.5 -120t-4 -122t-2.5 -112t-2 -91.5q3 -8 -2.5 -21.5t-16 -21t-25 -4t-28.5 29.5zM266 905q17 23 31 42t31 39q10 3 21.5 5t21 -1.5t16.5 -14.5t7 -34l-96 -122q-5 -8 -15 -10t-21 1t-20 9.5t-12 14.5l-79 102q-8 42 11 51.5
t54 -12.5z" />
    <glyph glyph-name="tcaron" unicode="&#x165;" horiz-adv-x="535" 
d="M18 442q0 2 -1 9.5t-1 9.5q0 24 12.5 31.5t34.5 7.5t45.5 -6t42.5 -5.5t29.5 14t7.5 53.5q1 13 1 40v57v57t-1 41q3 9 11.5 14.5t18.5 7.5t20 2.5t16 0.5v-293q30 0 58.5 5.5t56.5 12.5t55.5 12.5t56.5 5.5q16 0 31.5 -4t15.5 -25q0 -19 -17 -32t-43 -22t-58 -14.5
t-62.5 -8.5t-56 -4t-37.5 -1l1 -389q-2 -11 -13.5 -15.5t-26 -2t-28 11.5t-17.5 25q0 108 1 179.5t1.5 115t0 61.5t-2.5 19q-8 3 -29.5 7t-46.5 8.5t-47 8.5t-29 5zM328 597q15 23 20.5 43t3 39.5t-13 40t-26.5 44.5q0 7 8 11.5t18 5t19.5 -2t14.5 -9.5q22 -28 31.5 -55
t8.5 -51.5t-10.5 -44.5t-26.5 -33q-24 -7 -35.5 -2t-11.5 14z" />
    <glyph glyph-name="Tbar" unicode="&#x166;" 
d="M170 26q3 83 8 163.5t8.5 161t5 162t-2.5 166.5q-5 1 -19.5 2.5t-33.5 3t-40 4t-38 7.5t-28.5 12t-11.5 18q0 23 17.5 36t37.5 13q51 0 100 -10.5t100 -10.5q50 0 86 1.5t68.5 3.5t67.5 3.5t83 1.5q0 -32 -11 -49t-33.5 -22t-54.5 -10q-15 -3 -41.5 -3t-56 0.5t-56.5 0.5
t-42 -2q-9 -34 -15.5 -83.5t-10.5 -107t-6.5 -120t-4 -122t-2.5 -112t-2 -91.5q3 -8 -2.5 -21.5t-16 -21t-25 -4t-28.5 29.5zM86 485q-15 7 -18 18.5t1.5 22.5t14.5 20.5t21 13.5q10 1 30.5 2.5t46.5 3t54.5 4t55 4t47 3t30.5 2.5h11q17 0 23 -12.5t6 -26.5q0 -12 -5.5 -19
t-14 -10.5t-19 -4.5t-20.5 -2t-30.5 -2.5t-47 -3t-55 -4t-54.5 -4t-46.5 -3t-30.5 -2.5z" />
    <glyph glyph-name="tbar" unicode="&#x167;" horiz-adv-x="375" 
d="M18 442q0 2 -1 9.5t-1 9.5q0 24 12.5 31.5t34.5 7.5t45.5 -6t42.5 -5.5t29.5 14t7.5 53.5q1 13 1 40v57v57t-1 41q3 9 11.5 14.5t18.5 7.5t20 2.5t16 0.5v-293q30 0 58.5 5.5t56.5 12.5t55.5 12.5t56.5 5.5q16 0 31.5 -4t15.5 -25q0 -19 -17 -32t-43 -22t-58 -14.5
t-62.5 -8.5t-56 -4t-37.5 -1l1 -389q-2 -11 -13.5 -15.5t-26 -2t-28 11.5t-17.5 25q0 108 1 179.5t1.5 115t0 61.5t-2.5 19q-8 3 -29.5 7t-46.5 8.5t-47 8.5t-29 5zM53 246q-15 7 -18 18.5t1.5 22.5t14.5 20.5t21 13.5q10 1 30.5 2.5t46.5 3t54.5 4t55 4t47 3t30.5 2.5h11
q17 0 23 -12.5t6 -26.5q0 -12 -5.5 -19t-14 -10.5t-19 -4.5t-20.5 -2t-30.5 -2.5t-47 -3t-55 -4t-54.5 -4t-46.5 -3t-30.5 -2.5z" />
    <glyph glyph-name="Utilde" unicode="&#x168;" horiz-adv-x="528" 
d="M396 94q-80 -68 -138.5 -87.5t-99 -3t-65 63t-38.5 111.5t-19 142.5t-6 155.5t0 151.5t0 129.5q3 10 10.5 11t17 -1.5t19.5 -6.5t18 -5q6 -42 6 -103.5t-1 -131t0 -141t9.5 -131.5t26.5 -103t51.5 -57t84 8.5t124.5 92.5q-4 65 -6.5 138t-0.5 149t12 151.5t31 144.5
q17 0 33 0.5t24 -19.5q-15 -62 -23 -103t-11.5 -76t-3.5 -73.5v-95.5q0 -52 3.5 -103t8 -102t8.5 -102t4 -103q-19 0 -36 7.5t-28.5 21t-16 31.5t1.5 39zM39 836q8 22 16 50.5t19 54t28 43.5t43 18q15 0 35 -2.5t45.5 -15t58 -38t72.5 -70.5q31 -15 44.5 -5t17 30t0.5 43
t-3 35q5 10 15 15t21 4t20 -9t13 -24q2 -35 -1.5 -66.5t-17 -54t-38.5 -34.5t-66 -7q-25 3 -44.5 15t-35.5 27.5t-30 33.5t-28.5 32.5t-30 24.5t-34.5 10q-27 -11 -36.5 -29t-11 -36.5t1 -34t-0.5 -21.5q-7 -13 -19 -18.5t-23.5 -3.5t-20 10.5t-9.5 22.5z" />
    <glyph glyph-name="utilde" unicode="&#x169;" 
d="M217 0q-49 3 -83.5 35t-57 81.5t-34 110t-14 120t2.5 112.5t16 88q2 0 9.5 1t9.5 1q12 0 22 -2.5t15 -18.5q-8 -102 0.5 -197.5t41.5 -190.5q21 -42 44 -52.5t45.5 2t43.5 43.5t39 72t31.5 87.5t21 89.5t8 79t-8.5 55q0 2 -3 10.5t-6 18t-6 18t-3 10.5q0 11 10 15t18 4
q30 -13 46 -44t19.5 -74.5t-3.5 -94.5t-22 -102.5t-37 -100t-48.5 -86.5t-56.5 -62.5t-60 -27.5zM8 641q8 22 16 50.5t19 54t28 43.5t43 18q15 0 35 -2.5t45.5 -15t58 -38t72.5 -70.5q31 -15 44.5 -5t17 30t0.5 43t-3 35q5 10 15 15t21 4t20 -9t13 -24q2 -35 -1.5 -66.5
t-17 -54t-38.5 -34.5t-66 -7q-25 3 -44.5 15t-35.5 27.5t-30 33.5t-28.5 32.5t-30 24.5t-34.5 10q-27 -11 -36.5 -29t-11 -36.5t1 -34t-0.5 -21.5q-7 -13 -19 -18.5t-23.5 -3.5t-20 10.5t-9.5 22.5z" />
    <glyph glyph-name="Umacron" unicode="&#x16a;" horiz-adv-x="509" 
d="M396 94q-80 -68 -138.5 -87.5t-99 -3t-65 63t-38.5 111.5t-19 142.5t-6 155.5t0 151.5t0 129.5q3 10 10.5 11t17 -1.5t19.5 -6.5t18 -5q6 -42 6 -103.5t-1 -131t0 -141t9.5 -131.5t26.5 -103t51.5 -57t84 8.5t124.5 92.5q-4 65 -6.5 138t-0.5 149t12 151.5t31 144.5
q17 0 33 0.5t24 -19.5q-15 -62 -23 -103t-11.5 -76t-3.5 -73.5v-95.5q0 -52 3.5 -103t8 -102t8.5 -102t4 -103q-19 0 -36 7.5t-28.5 21t-16 31.5t1.5 39zM128 790q-15 7 -18 18.5t1.5 22.5t14.5 20.5t21 13.5q10 1 30.5 2.5t46.5 3t54.5 4t55 4t47 3t30.5 2.5h11
q17 0 23 -12.5t6 -26.5q0 -12 -5.5 -19t-14 -10.5t-19 -4.5t-20.5 -2t-30.5 -2.5t-47 -3t-55 -4t-54.5 -4t-46.5 -3t-30.5 -2.5z" />
    <glyph glyph-name="umacron" unicode="&#x16b;" horiz-adv-x="470" 
d="M217 0q-49 3 -83.5 35t-57 81.5t-34 110t-14 120t2.5 112.5t16 88q2 0 9.5 1t9.5 1q12 0 22 -2.5t15 -18.5q-8 -102 0.5 -197.5t41.5 -190.5q21 -42 44 -52.5t45.5 2t43.5 43.5t39 72t31.5 87.5t21 89.5t8 79t-8.5 55q0 2 -3 10.5t-6 18t-6 18t-3 10.5q0 11 10 15t18 4
q30 -13 46 -44t19.5 -74.5t-3.5 -94.5t-22 -102.5t-37 -100t-48.5 -86.5t-56.5 -62.5t-60 -27.5zM66 612q-15 7 -18 18.5t1.5 22.5t14.5 20.5t21 13.5q10 1 30.5 2.5t46.5 3t54.5 4t55 4t47 3t30.5 2.5h11q17 0 23 -12.5t6 -26.5q0 -12 -5.5 -19t-14 -10.5t-19 -4.5
t-20.5 -2t-30.5 -2.5t-47 -3t-55 -4t-54.5 -4t-46.5 -3t-30.5 -2.5z" />
    <glyph glyph-name="Ubreve" unicode="&#x16c;" horiz-adv-x="528" 
d="M396 94q-80 -68 -138.5 -87.5t-99 -3t-65 63t-38.5 111.5t-19 142.5t-6 155.5t0 151.5t0 129.5q3 10 10.5 11t17 -1.5t19.5 -6.5t18 -5q6 -42 6 -103.5t-1 -131t0 -141t9.5 -131.5t26.5 -103t51.5 -57t84 8.5t124.5 92.5q-4 65 -6.5 138t-0.5 149t12 151.5t31 144.5
q17 0 33 0.5t24 -19.5q-15 -62 -23 -103t-11.5 -76t-3.5 -73.5v-95.5q0 -52 3.5 -103t8 -102t8.5 -102t4 -103q-19 0 -36 7.5t-28.5 21t-16 31.5t1.5 39zM71 913q3 23 20.5 22t35.5 -10q20 -37 43.5 -54t48 -21t48.5 2.5t44 16t34.5 19t20.5 12.5q9 5 22.5 7.5t25.5 0
t18.5 -11t2.5 -24.5q-49 -44 -94 -62.5t-84.5 -20t-72 11t-56.5 30.5t-38.5 37.5t-18.5 33.5q-1 3 -0.5 5.5t0.5 5.5z" />
    <glyph glyph-name="ubreve" unicode="&#x16d;" horiz-adv-x="467" 
d="M217 0q-49 3 -83.5 35t-57 81.5t-34 110t-14 120t2.5 112.5t16 88q2 0 9.5 1t9.5 1q12 0 22 -2.5t15 -18.5q-8 -102 0.5 -197.5t41.5 -190.5q21 -42 44 -52.5t45.5 2t43.5 43.5t39 72t31.5 87.5t21 89.5t8 79t-8.5 55q0 2 -3 10.5t-6 18t-6 18t-3 10.5q0 11 10 15t18 4
q30 -13 46 -44t19.5 -74.5t-3.5 -94.5t-22 -102.5t-37 -100t-48.5 -86.5t-56.5 -62.5t-60 -27.5zM24 762q3 23 20.5 22t35.5 -10q20 -37 43.5 -54t48 -21t48.5 2.5t44 16t34.5 19t20.5 12.5q9 5 22.5 7.5t25.5 0t18.5 -11t2.5 -24.5q-49 -44 -94 -62.5t-84.5 -20t-72 11
t-56.5 30.5t-38.5 37.5t-18.5 33.5q-1 3 -0.5 5.5t0.5 5.5z" />
    <glyph glyph-name="Uring" unicode="&#x16e;" horiz-adv-x="528" 
d="M396 94q-80 -68 -138.5 -87.5t-99 -3t-65 63t-38.5 111.5t-19 142.5t-6 155.5t0 151.5t0 129.5q3 10 10.5 11t17 -1.5t19.5 -6.5t18 -5q6 -42 6 -103.5t-1 -131t0 -141t9.5 -131.5t26.5 -103t51.5 -57t84 8.5t124.5 92.5q-4 65 -6.5 138t-0.5 149t12 151.5t31 144.5
q17 0 33 0.5t24 -19.5q-15 -62 -23 -103t-11.5 -76t-3.5 -73.5v-95.5q0 -52 3.5 -103t8 -102t8.5 -102t4 -103q-19 0 -36 7.5t-28.5 21t-16 31.5t1.5 39zM124 876q0 30 19.5 52t48.5 33q18 7 43.5 -1t49.5 -24t41.5 -35.5t17.5 -36.5q1 -27 -15 -46t-40.5 -29.5t-53.5 -11.5
t-53.5 9.5t-41 32.5t-16.5 57zM204 910q-17 -17 -19 -25.5t-7 -17.5q-5 -11 9 -19t33 -10t37 4t20 23q1 11 -5 19.5t-16.5 14t-24.5 8.5t-27 3z" />
    <glyph glyph-name="uring" unicode="&#x16f;" horiz-adv-x="470" 
d="M217 0q-49 3 -83.5 35t-57 81.5t-34 110t-14 120t2.5 112.5t16 88q2 0 9.5 1t9.5 1q12 0 22 -2.5t15 -18.5q-8 -102 0.5 -197.5t41.5 -190.5q21 -42 44 -52.5t45.5 2t43.5 43.5t39 72t31.5 87.5t21 89.5t8 79t-8.5 55q0 2 -3 10.5t-6 18t-6 18t-3 10.5q0 11 10 15t18 4
q30 -13 46 -44t19.5 -74.5t-3.5 -94.5t-22 -102.5t-37 -100t-48.5 -86.5t-56.5 -62.5t-60 -27.5zM117 681q0 30 19.5 52t48.5 33q18 7 43.5 -1t49.5 -24t41.5 -35.5t17.5 -36.5q1 -27 -15 -46t-40.5 -29.5t-53.5 -11.5t-53.5 9.5t-41 32.5t-16.5 57zM197 715
q-17 -17 -19 -25.5t-7 -17.5q-5 -11 9 -19t33 -10t37 4t20 23q1 11 -5 19.5t-16.5 14t-24.5 8.5t-27 3z" />
    <glyph glyph-name="Uhungarumlaut" unicode="&#x170;" horiz-adv-x="528" 
d="M396 94q-80 -68 -138.5 -87.5t-99 -3t-65 63t-38.5 111.5t-19 142.5t-6 155.5t0 151.5t0 129.5q3 10 10.5 11t17 -1.5t19.5 -6.5t18 -5q6 -42 6 -103.5t-1 -131t0 -141t9.5 -131.5t26.5 -103t51.5 -57t84 8.5t124.5 92.5q-4 65 -6.5 138t-0.5 149t12 151.5t31 144.5
q17 0 33 0.5t24 -19.5q-15 -62 -23 -103t-11.5 -76t-3.5 -73.5v-95.5q0 -52 3.5 -103t8 -102t8.5 -102t4 -103q-19 0 -36 7.5t-28.5 21t-16 31.5t1.5 39zM331 885q-15 -7 -34 -20.5t-39 -28.5t-39.5 -29.5t-36.5 -23.5q-23 -2 -34.5 14t-7.5 41l143 107q16 5 28 1t18.5 -13
t7 -22t-5.5 -26zM485 880q-15 -7 -34 -20.5t-39 -28.5t-39.5 -29.5t-36.5 -23.5q-23 -2 -34.5 14t-7.5 41l143 107q16 5 28 1t18.5 -13t7 -22t-5.5 -26z" />
    <glyph glyph-name="Uogonek" unicode="&#x172;" horiz-adv-x="528" 
d="M396 94q-80 -68 -138.5 -87.5t-99 -3t-65 63t-38.5 111.5t-19 142.5t-6 155.5t0 151.5t0 129.5q3 10 10.5 11t17 -1.5t19.5 -6.5t18 -5q6 -42 6 -103.5t-1 -131t0 -141t9.5 -131.5t26.5 -103t51.5 -57t84 8.5t124.5 92.5q-4 65 -6.5 138t-0.5 149t12 151.5t31 144.5
q17 0 33 0.5t24 -19.5q-15 -62 -23 -103t-11.5 -76t-3.5 -73.5v-95.5q0 -52 3.5 -103t8 -102t8.5 -102t4 -103q-19 0 -36 7.5t-28.5 21t-16 31.5t1.5 39zM549 -123q22 -24 19 -36.5t-19 -17t-39.5 -4.5h-42.5q-38 0 -60.5 15.5t-34.5 37.5t-16 47t-4 44q0 34 22 55.5
t55 34.5q10 5 16 0t8.5 -14t1.5 -19.5t-3 -18.5t-5 -10t-5 6q-25 -30 -29 -52t5 -37.5t27.5 -24t38.5 -12t38 -2t27 7.5z" />
    <glyph glyph-name="uogonek" unicode="&#x173;" horiz-adv-x="470" 
d="M217 0q-49 3 -83.5 35t-57 81.5t-34 110t-14 120t2.5 112.5t16 88q2 0 9.5 1t9.5 1q12 0 22 -2.5t15 -18.5q-8 -102 0.5 -197.5t41.5 -190.5q21 -42 44 -52.5t45.5 2t43.5 43.5t39 72t31.5 87.5t21 89.5t8 79t-8.5 55q0 2 -3 10.5t-6 18t-6 18t-3 10.5q0 11 10 15t18 4
q30 -13 46 -44t19.5 -74.5t-3.5 -94.5t-22 -102.5t-37 -100t-48.5 -86.5t-56.5 -62.5t-60 -27.5zM384 -79q22 -24 19 -36.5t-19 -17t-39.5 -4.5h-42.5q-38 0 -60.5 15.5t-34.5 37.5t-16 47t-4 44q0 34 22 55.5t55 34.5q10 5 16 0t8.5 -14t1.5 -19.5t-3 -18.5t-5 -10t-5 6
q-25 -30 -29 -52t5 -37.5t27.5 -24t38.5 -12t38 -2t27 7.5z" />
    <glyph glyph-name="Wcircumflex" unicode="&#x174;" horiz-adv-x="1031" 
d="M7 727q5 15 16 18t24 3q22 0 38.5 -38t30 -96t27 -128t29 -134t35.5 -114t47 -68l227 528q4 10 11 14t15 3t16 -6t14 -11q27 -61 60.5 -129.5t71 -137.5t77 -134t78.5 -120q23 12 35.5 56t24.5 117.5t28 176t45 231.5q2 12 9.5 15t16 1.5t17.5 -6.5t14 -10
q0 -73 -9.5 -148.5t-25 -152.5t-35.5 -154t-41 -152q-14 -26 -26.5 -46.5t-26 -28.5t-30 -0.5t-37.5 37.5l-277 468q-41 -120 -73 -207t-57 -147.5t-43.5 -98.5t-33 -60t-25.5 -32.5t-20 -16.5l-37 38q-19 37 -39 88.5t-40 110.5t-39 122.5t-36 125.5t-31.5 119.5
t-24.5 103.5zM393 818q-35 -22 -54 -12.5t-11 51.5l79 102q3 8 12 14.5t20 9.5t21 1t15 -10l96 -122q0 -23 -7 -34t-16.5 -14.5t-21 -1.5t-21.5 5q-17 20 -31 39t-31 42l-50 -70v0z" />
    <glyph glyph-name="wcircumflex" unicode="&#x175;" horiz-adv-x="793" 
d="M22 542q24 13 40.5 10t27.5 -14t17 -26.5t9 -25.5q4 -11 12 -37t18.5 -59.5t21.5 -70.5t20.5 -70.5t17.5 -60t11 -37.5q6 12 18 37t27 56.5t31.5 66.5t31.5 66.5t26.5 57t16.5 37.5q7 17 9 34t6.5 30.5t15.5 22t35 8.5q15 0 23.5 -11t13 -26t6.5 -31.5t4 -26.5
q2 -11 7.5 -35.5t12.5 -56t15 -66.5t15.5 -66.5t13.5 -56t8 -34.5q28 42 47 95.5t33 111.5t25.5 115t24.5 105q3 0 14 0.5t15 0.5q20 0 34.5 -2.5t31.5 -17.5l-206 -522q-6 -11 -11.5 -15t-16.5 -4q-21 0 -36 23.5t-26.5 59.5t-20 78t-17 79t-18 63.5t-21.5 30.5l-19 -18
l-150 -321q-2 -5 -9.5 -12t-9.5 -7q-14 0 -26.5 7t-20.5 18t-11 24.5t1 25.5zM328 648q-35 -22 -54 -12.5t-11 51.5l79 102q3 8 12 14.5t20 9.5t21 1t15 -10l96 -122q0 -23 -7 -34t-16.5 -14.5t-21 -1.5t-21.5 5q-17 20 -31 39t-31 42l-50 -70v0z" />
    <glyph glyph-name="Ycircumflex" unicode="&#x176;" horiz-adv-x="604" 
d="M280 -33q-23 0 -36.5 18.5t-11.5 40.5q1 9 8 30.5t16.5 49t20 58.5t19 58.5t14 48.5t4.5 29q-45 58 -84 109.5t-73 104t-64 109.5t-57 125q3 10 9.5 14.5t14 5.5t16.5 0.5t17 -1.5q24 -52 50.5 -105.5t58 -104.5t68.5 -97.5t82 -84.5q42 104 71 174.5t47 116t28 69
t14.5 34t5.5 12t2 1.5q42 0 42 -41q0 -3 -1 -10t-1 -8l-272 -754q0 -1 -3 -1.5t-5 -0.5zM209 824q-35 -22 -54 -12.5t-11 51.5l79 102q3 8 12 14.5t20 9.5t21 1t15 -10l96 -122q0 -23 -7 -34t-16.5 -14.5t-21 -1.5t-21.5 5q-17 20 -31 39t-31 42l-50 -70v0z" />
    <glyph glyph-name="ycircumflex" unicode="&#x177;" horiz-adv-x="525" 
d="M132 -254q18 69 47.5 146.5t58.5 150.5q-27 59 -51 107.5t-49 101t-53.5 115.5t-64.5 152q0 16 4 31.5t25 15.5q11 0 16.5 -4.5t11.5 -15.5l198 -380l169 396q5 11 12 15.5t17 4.5q13 -1 20 -9t9.5 -20t2 -24.5t-3.5 -22.5l-294 -760q-8 -14 -21 -20.5t-25 -6t-20.5 7.5
t-8.5 19zM177 603q-35 -22 -54 -12.5t-11 51.5l79 102q3 8 12 14.5t20 9.5t21 1t15 -10l96 -122q0 -23 -7 -34t-16.5 -14.5t-21 -1.5t-21.5 5q-17 20 -31 39t-31 42l-50 -70v0z" />
    <glyph glyph-name="Ydieresis" unicode="&#x178;" horiz-adv-x="604" 
d="M280 -33q-23 0 -36.5 18.5t-11.5 40.5q1 9 8 30.5t16.5 49t20 58.5t19 58.5t14 48.5t4.5 29q-45 58 -84 109.5t-73 104t-64 109.5t-57 125q3 10 9.5 14.5t14 5.5t16.5 0.5t17 -1.5q24 -52 50.5 -105.5t58 -104.5t68.5 -97.5t82 -84.5q42 104 71 174.5t47 116t28 69
t14.5 34t5.5 12t2 1.5q42 0 42 -41q0 -3 -1 -10t-1 -8l-272 -754q0 -1 -3 -1.5t-5 -0.5zM149 789q7 0 21 0.5t28 -2.5t24.5 -10.5t10.5 -22.5q0 -7 -1.5 -15.5t-4.5 -16t-8.5 -12.5t-14.5 -5q-15 0 -25 9t-17 22t-10 27.5t-3 25.5zM291 789q7 0 21 0.5t28 -2.5t24.5 -10.5
t10.5 -22.5q0 -7 -1.5 -15.5t-4.5 -16t-8.5 -12.5t-14.5 -5q-15 0 -25 9t-17 22t-10 27.5t-3 25.5z" />
    <glyph glyph-name="Zacute" unicode="&#x179;" horiz-adv-x="587" 
d="M38 41q8 10 27 37t40 57t39.5 56.5t25.5 37.5q11 18 33 56.5t48.5 86.5t54 100.5t49.5 99t35 82t11 50.5l-335 -14q-5 1 -11.5 9t-12.5 18t-10 18.5t-4 10.5q0 8 4 12t10 6t12 2h11h92.5h112.5h112t91 1q14 3 33 0.5t32 -10t14.5 -20.5t-19.5 -33q-47 -55 -94.5 -132.5
t-94.5 -163t-91 -172t-83 -158.5h245q6 12 12 16t17 4q13 0 28 -6.5t28 -17.5t21.5 -24.5t8.5 -27.5q0 -2 -0.5 -9.5t-1.5 -9.5q-16 -1 -50 -2.5t-76.5 -3t-90 -4t-90 -4t-77 -3t-50.5 -2.5h-11q-9 0 -16 6.5t-13 16t-10 19t-6 15.5zM359 903q-15 -7 -34 -20.5t-39 -28.5
t-39.5 -29.5t-36.5 -23.5q-23 -2 -34.5 14t-7.5 41l143 107q16 5 28 1t18.5 -13t7 -22t-5.5 -26z" />
    <glyph glyph-name="zacute" unicode="&#x17a;" horiz-adv-x="515" 
d="M75 -1q-26 0 -40.5 16t-6.5 42l350 448h-226q-23 0 -32 11.5t-9.5 25.5t6.5 25.5t16 12.5h321q31 -5 38 -22t-0.5 -37t-24 -40.5t-32.5 -32.5q-46 -41 -86 -86t-77 -93t-72 -98t-71 -102q30 0 69 4.5t80 10t81 10.5t72 5h24.5t20.5 -3.5t14 -11.5t5 -24q0 -10 -5 -20
t-13.5 -18t-19 -13t-21.5 -5q-44 11 -91 9.5t-93.5 -7t-91.5 -9.5t-85 2zM358 730q-15 -7 -34 -20.5t-39 -28.5t-39.5 -29.5t-36.5 -23.5q-23 -2 -34.5 14t-7.5 41l143 107q16 5 28 1t18.5 -13t7 -22t-5.5 -26z" />
    <glyph glyph-name="Zdotaccent" unicode="&#x17b;" horiz-adv-x="587" 
d="M38 41q8 10 27 37t40 57t39.5 56.5t25.5 37.5q11 18 33 56.5t48.5 86.5t54 100.5t49.5 99t35 82t11 50.5l-335 -14q-5 1 -11.5 9t-12.5 18t-10 18.5t-4 10.5q0 8 4 12t10 6t12 2h11h92.5h112.5h112t91 1q14 3 33 0.5t32 -10t14.5 -20.5t-19.5 -33q-47 -55 -94.5 -132.5
t-94.5 -163t-91 -172t-83 -158.5h245q6 12 12 16t17 4q13 0 28 -6.5t28 -17.5t21.5 -24.5t8.5 -27.5q0 -2 -0.5 -9.5t-1.5 -9.5q-16 -1 -50 -2.5t-76.5 -3t-90 -4t-90 -4t-77 -3t-50.5 -2.5h-11q-9 0 -16 6.5t-13 16t-10 19t-6 15.5zM241 887q7 0 21 0.5t28 -2.5t24.5 -10.5
t10.5 -22.5q0 -7 -1.5 -15.5t-4.5 -16t-8.5 -12.5t-14.5 -5q-15 0 -25 9t-17 22t-10 27.5t-3 25.5z" />
    <glyph glyph-name="zdotaccent" unicode="&#x17c;" horiz-adv-x="515" 
d="M75 -1q-26 0 -40.5 16t-6.5 42l350 448h-226q-23 0 -32 11.5t-9.5 25.5t6.5 25.5t16 12.5h321q31 -5 38 -22t-0.5 -37t-24 -40.5t-32.5 -32.5q-46 -41 -86 -86t-77 -93t-72 -98t-71 -102q30 0 69 4.5t80 10t81 10.5t72 5h24.5t20.5 -3.5t14 -11.5t5 -24q0 -10 -5 -20
t-13.5 -18t-19 -13t-21.5 -5q-44 11 -91 9.5t-93.5 -7t-91.5 -9.5t-85 2zM220 700q7 0 21 0.5t28 -2.5t24.5 -10.5t10.5 -22.5q0 -7 -1.5 -15.5t-4.5 -16t-8.5 -12.5t-14.5 -5q-15 0 -25 9t-17 22t-10 27.5t-3 25.5z" />
    <glyph glyph-name="Zcaron" unicode="&#x17d;" horiz-adv-x="587" 
d="M38 41q8 10 27 37t40 57t39.5 56.5t25.5 37.5q11 18 33 56.5t48.5 86.5t54 100.5t49.5 99t35 82t11 50.5l-335 -14q-5 1 -11.5 9t-12.5 18t-10 18.5t-4 10.5q0 8 4 12t10 6t12 2h11h92.5h112.5h112t91 1q14 3 33 0.5t32 -10t14.5 -20.5t-19.5 -33q-47 -55 -94.5 -132.5
t-94.5 -163t-91 -172t-83 -158.5h245q6 12 12 16t17 4q13 0 28 -6.5t28 -17.5t21.5 -24.5t8.5 -27.5q0 -2 -0.5 -9.5t-1.5 -9.5q-16 -1 -50 -2.5t-76.5 -3t-90 -4t-90 -4t-77 -3t-50.5 -2.5h-11q-9 0 -16 6.5t-13 16t-10 19t-6 15.5zM277 895q17 23 31 42t31 39q10 3 21.5 5
t21 -1.5t16.5 -14.5t7 -34l-96 -122q-5 -8 -15 -10t-21 1t-20 9.5t-12 14.5l-79 102q-8 42 11 51.5t54 -12.5z" />
    <glyph glyph-name="zcaron" unicode="&#x17e;" horiz-adv-x="538" 
d="M75 -1q-26 0 -40.5 16t-6.5 42l350 448h-226q-23 0 -32 11.5t-9.5 25.5t6.5 25.5t16 12.5h321q31 -5 38 -22t-0.5 -37t-24 -40.5t-32.5 -32.5q-46 -41 -86 -86t-77 -93t-72 -98t-71 -102q30 0 69 4.5t80 10t81 10.5t72 5h24.5t20.5 -3.5t14 -11.5t5 -24q0 -10 -5 -20
t-13.5 -18t-19 -13t-21.5 -5q-44 11 -91 9.5t-93.5 -7t-91.5 -9.5t-85 2zM267 708q17 23 31 42t31 39q10 3 21.5 5t21 -1.5t16.5 -14.5t7 -34l-96 -122q-5 -8 -15 -10t-21 1t-20 9.5t-12 14.5l-79 102q-8 42 11 51.5t54 -12.5z" />
    <glyph glyph-name="florin" unicode="&#x192;" horiz-adv-x="431" 
d="M155 367q-2 0 -23.5 -4.5t-47 -8t-46.5 -2t-21 14.5q0 3 2.5 12.5t6 19.5t7 18t5.5 8l113 9q4 134 30.5 218t86.5 119q35 9 57 -6t34 -39t15.5 -49t2.5 -35q0 -12 -10 -16t-18 -4q-11 1 -18.5 11.5t-14.5 22.5t-15 21.5t-21 6.5q-9 -27 -17.5 -58.5t-13.5 -64.5t-4.5 -65
t8.5 -60q58 0 114.5 10.5t115.5 10.5q0 -21 -14.5 -35t-37.5 -22.5t-51 -13.5t-54.5 -8t-49 -5t-34.5 -6q-3 -27 -4 -70.5t-0.5 -95t2 -107t3 -106.5t2.5 -94.5t1 -70.5q-5 -40 -23 -54.5t-41.5 -13t-50 14t-49 27.5t-37.5 27.5t-16 13.5q-13 15 -11.5 27.5t10.5 19.5
t21 7.5t20 -8.5q9 -11 27.5 -25.5t37.5 -22.5t33 -6t14 25v80.5t-1.5 98t-4 103.5t-5.5 97.5t-7 80.5t-8 52z" />
    <glyph glyph-name="AEacute" unicode="&#x1fc;" horiz-adv-x="889" 
d="M366 342q-8 1 -27 1h-40.5t-40.5 -0.5t-26 -1.5q-2 0 -7 -6.5t-20 -38t-43.5 -96t-76.5 -181.5l-75 11q7 16 17.5 41t22 55t23.5 62t23.5 61t21.5 52t17 35q-2 6 -7.5 8.5t-12 5.5t-11.5 8.5t-5 18.5q2 16 10 25t20 14t25.5 6.5t27.5 1.5q15 37 27.5 65t23.5 50.5t22 43
t22 43.5t22.5 50.5t25.5 64.5q5 6 18 18t28.5 21.5t30.5 12.5t24 -8l1 -53q27 6 66 11t82 9.5t87 8t81 5.5t64.5 3.5t37.5 1.5t22 -1t21.5 -4.5t16 -11t6.5 -20.5q0 -20 -19 -30.5t-51 -15t-72.5 -4.5t-83.5 0.5t-85 0.5t-76.5 -4.5t-57.5 -14t-28 -28.5q3 -12 2 -28
t-3 -34.5t-3 -39.5t3 -45q27 -2 62.5 -1.5t73.5 1.5t75.5 2.5t67.5 2.5q0 -31 -9.5 -48t-47.5 -28q-14 -3 -45 -4t-66 -1t-66 -0.5t-45 -1.5q2 -60 2 -126t-3 -119q1 -37 0 -73q23 1 53 0.5t63.5 -1.5t68 -2t66 1t57.5 6.5t44 13.5q20 0 29 -7t9.5 -18.5t-5 -24.5t-14.5 -25
l-376 -38q-27 -15 -41.5 -2t-21 43.5t-7.5 72.5t1 84.5t3.5 81t0.5 62.5zM363 664q-39 -91 -60.5 -141t-31 -74t-11.5 -29.5l-2 -5.5l115 3v3q0 2 0.5 3t0.5 2q0 19 -1.5 51t-3.5 67t-4 68t-2 53zM669 888q-15 -7 -34 -20.5t-39 -28.5t-39.5 -29.5t-36.5 -23.5
q-23 -2 -34.5 14t-7.5 41l143 107q16 5 28 1t18.5 -13t7 -22t-5.5 -26z" />
    <glyph glyph-name="aeacute" unicode="&#x1fd;" horiz-adv-x="738" 
d="M44 272q-2 20 3 54.5t16 74t28 80.5t40 74.5t50.5 54t60.5 20.5q61 5 100 -22.5t65 -76.5q23 36 59.5 55.5t102.5 19.5q46 0 77.5 -21t31.5 -71q0 -55 -21.5 -93t-57 -64.5t-79.5 -43.5t-89 -30q0 -5 -0.5 -19t-0.5 -19q2 -35 9 -61.5t18 -46.5q9 -26 22.5 -42.5t40 -23
t70 -3t112.5 17.5q14 3 11 -10t-22 -30t-54 -31.5t-85 -15.5q-47 0 -78.5 7.5t-53 26t-35.5 48.5t-26 75q-12 -22 -29.5 -48t-40 -48t-48 -37t-53.5 -15q-47 0 -75.5 28.5t-43.5 69.5t-20 86.5t-5 79.5zM117 264q0 -17 3 -47t11.5 -60t24 -52t41.5 -22q29 -3 49 15.5
t36 54.5t31 87t33 114q17 82 7.5 129t-34 63.5t-58.5 4t-65 -50t-54 -97.5t-25 -139zM430 386q0 -8 3.5 -18t15.5 -10q24 0 51 11.5t49.5 29.5t37.5 41.5t15 47.5q0 25 -5 42.5t-33 17.5q-35 0 -60 -13t-41.5 -35.5t-24.5 -52t-8 -61.5zM494 779q-15 -7 -34 -20.5t-39 -28.5
t-39.5 -29.5t-36.5 -23.5q-23 -2 -34.5 14t-7.5 41l143 107q16 5 28 1t18.5 -13t7 -22t-5.5 -26z" />
    <glyph glyph-name="Oslashacute" unicode="&#x1fe;" horiz-adv-x="538" 
d="M26 241q0 33 7 84.5t21 109.5t36 116.5t52.5 105t69 76t86.5 29.5q41 0 72 -20t53.5 -53t37.5 -75t24 -85.5t13 -85t4 -72.5q0 -66 -23 -132.5t-65.5 -119.5t-102.5 -86.5t-133 -33.5q-44 0 -73 25.5t-46.5 63t-25 79t-7.5 74.5zM102 240q0 -31 3.5 -61t15 -53
t32.5 -37.5t56 -14.5q47 1 87 23t69.5 61t45.5 92.5t15 117.5q0 29 -1 64t-6 70t-15 68t-28 58.5t-45.5 41t-66.5 15.5q-22 0 -42.5 -27.5t-38.5 -70t-33 -94.5t-25.5 -101.5t-16.5 -90.5t-6 -61zM36 26q0 2 0.5 5.5t0.5 4.5l424 732q15 -8 29 -19.5t12 -30.5l-408 -720
q0 -1 -6.5 -2t-9.5 -1q-15 0 -28.5 7t-13.5 24zM383 889q-15 -7 -34 -20.5t-39 -28.5t-39.5 -29.5t-36.5 -23.5q-23 -2 -34.5 14t-7.5 41l143 107q16 5 28 1t18.5 -13t7 -22t-5.5 -26z" />
    <glyph glyph-name="oslashacute" unicode="&#x1ff;" horiz-adv-x="432" 
d="M17 179q-5 25 -3.5 67t9 89.5t22.5 95.5t38 85.5t55 58.5t73 15q61 0 99 -17.5t59.5 -49t31 -74.5t12.5 -94q5 -33 2 -73.5t-14 -81.5t-30 -78.5t-45.5 -66t-61 -44.5t-76.5 -12q-41 0 -73 13.5t-53.5 37.5t-33 57t-11.5 72zM87 213q0 -26 3.5 -50.5t14 -44.5t29 -32
t48.5 -12q40 0 70.5 32t51.5 77t31.5 92t10.5 77q0 49 -11.5 83t-28.5 55t-37.5 30.5t-38.5 11.5q-23 0 -43 -18t-36.5 -46.5t-29 -64t-20.5 -71t-11.5 -67t-2.5 -52.5zM6.58398 18.4219q0 1.60156 0.411133 4.4043q0.412109 2.80273 0.412109 3.60352l348.951 586.172
q12.3447 -6.40625 23.8662 -15.6152q11.5225 -9.20898 9.87695 -24.4238l-335.783 -576.562q0 -0.800781 -5.34961 -1.60156t-7.81836 -0.800781q-12.3457 0 -23.4561 5.60547t-11.1104 19.2188zM246 704q-15 -7 -34 -20.5t-39 -28.5t-39.5 -29.5t-36.5 -23.5
q-23 -2 -34.5 14t-7.5 41l143 107q16 5 28 1t18.5 -13t7 -22t-5.5 -26z" />
    <glyph glyph-name="Scommaaccent" unicode="&#x218;" horiz-adv-x="475" 
d="M36 212q0 20 3.5 38t12.5 31.5t24 21t39 7.5q0 -15 -3.5 -29t-7.5 -27.5t-7.5 -28t-3.5 -29.5q0 -29 13.5 -55t35.5 -43.5t49 -24.5t53 1q57 12 81.5 33.5t25.5 50.5t-17 64t-45 74t-58.5 81t-58 84t-44 83t-15.5 79q0 43 30.5 71t74 44t91 22.5t81.5 6.5q14 0 25.5 -6
t11.5 -23t-17.5 -23.5t-44.5 -9.5t-57.5 -6t-57.5 -12t-44.5 -27.5t-17.5 -53.5q0 -10 4 -24.5t24 -49.5t62 -98.5t118 -169.5q24 -46 25 -92.5t-19.5 -84t-60.5 -62t-97 -25.5q-45 -5 -84.5 13t-68 49.5t-43.5 71.5t-12 78zM202 -221q20 28 22.5 61.5t3 64t5.5 54t30 30.5
q20 0 32.5 -29t13 -67t-13 -74.5t-45.5 -52.5q-15 -5 -29 -1t-19 14z" />
    <glyph glyph-name="scommaaccent" unicode="&#x219;" horiz-adv-x="309" 
d="M6 119q12 36 20.5 45t15 2.5t14 -23.5t19 -33.5t28 -27.5t42.5 -5q17 8 29 22t10 27q-6 32 -28 61.5t-47 58.5t-47 58t-28 61q-5 23 -2 58.5t14.5 69.5t31 59.5t48.5 29.5q47 -2 81 -12t52 -23.5t19 -29.5t-18 -30q-39 7 -71 9t-53 -8t-29 -36.5t2 -77.5q7 -33 30.5 -62
t50.5 -57.5t50.5 -58t30.5 -62.5q5 -27 -6.5 -50t-33 -40.5t-50 -29t-56.5 -15.5q-22 -3 -43 7t-37.5 28t-27 40.5t-11.5 44.5zM61 -214q20 28 22.5 61.5t3 64t5.5 54t30 30.5q20 0 32.5 -29t13 -67t-13 -74.5t-45.5 -52.5q-15 -5 -29 -1t-19 14z" />
    <glyph glyph-name="circumflex" unicode="&#x2c6;" horiz-adv-x="292" 
d="M99 603q-35 -22 -54 -12.5t-11 51.5l79 102q3 8 12 14.5t20 9.5t21 1t15 -10l96 -122q0 -23 -7 -34t-16.5 -14.5t-21 -1.5t-21.5 5q-17 20 -31 39t-31 42l-50 -70v0z" />
    <glyph glyph-name="caron" unicode="&#x2c7;" horiz-adv-x="297" 
d="M149 682q17 23 31 42t31 39q10 3 21.5 5t21 -1.5t16.5 -14.5t7 -34l-96 -122q-5 -8 -15 -10t-21 1t-20 9.5t-12 14.5l-79 102q-8 42 11 51.5t54 -12.5z" />
    <glyph glyph-name="breve" unicode="&#x2d8;" horiz-adv-x="418" 
d="M24 739q3 23 20.5 22t35.5 -10q20 -37 43.5 -54t48 -21t48.5 2.5t44 16t34.5 19t20.5 12.5q9 5 22.5 7.5t25.5 0t18.5 -11t2.5 -24.5q-49 -44 -94 -62.5t-84.5 -20t-72 11t-56.5 30.5t-38.5 37.5t-18.5 33.5q-1 3 -0.5 5.5t0.5 5.5z" />
    <glyph glyph-name="dotaccent" unicode="&#x2d9;" horiz-adv-x="142" 
d="M28 700q7 0 21 0.5t28 -2.5t24.5 -10.5t10.5 -22.5q0 -7 -1.5 -15.5t-4.5 -16t-8.5 -12.5t-14.5 -5q-15 0 -25 9t-17 22t-10 27.5t-3 25.5z" />
    <glyph glyph-name="ring" unicode="&#x2da;" horiz-adv-x="268" 
d="M31 681q0 30 19.5 52t48.5 33q18 7 43.5 -1t49.5 -24t41.5 -35.5t17.5 -36.5q1 -27 -15 -46t-40.5 -29.5t-53.5 -11.5t-53.5 9.5t-41 32.5t-16.5 57zM111 715q-17 -17 -19 -25.5t-7 -17.5q-5 -11 9 -19t33 -10t37 4t20 23q1 11 -5 19.5t-16.5 14t-24.5 8.5t-27 3z" />
    <glyph glyph-name="ogonek" unicode="&#x2db;" horiz-adv-x="283" 
d="M228 -89q22 -24 19 -36.5t-19 -17t-39.5 -4.5h-42.5q-38 0 -60.5 15.5t-34.5 37.5t-16 47t-4 44q0 34 22 55.5t55 34.5q10 5 16 0t8.5 -14t1.5 -19.5t-3 -18.5t-5 -10t-5 6q-25 -30 -29 -52t5 -37.5t27.5 -24t38.5 -12t38 -2t27 7.5z" />
    <glyph glyph-name="tilde" unicode="&#x2dc;" horiz-adv-x="492" 
d="M19 615q8 22 16 50.5t19 54t28 43.5t43 18q15 0 35 -2.5t45.5 -15t58 -38t72.5 -70.5q31 -15 44.5 -5t17 30t0.5 43t-3 35q5 10 15 15t21 4t20 -9t13 -24q2 -35 -1.5 -66.5t-17 -54t-38.5 -34.5t-66 -7q-25 3 -44.5 15t-35.5 27.5t-30 33.5t-28.5 32.5t-30 24.5t-34.5 10
q-27 -11 -36.5 -29t-11 -36.5t1 -34t-0.5 -21.5q-7 -13 -19 -18.5t-23.5 -3.5t-20 10.5t-9.5 22.5z" />
    <glyph glyph-name="hungarumlaut" unicode="&#x2dd;" horiz-adv-x="389" 
d="M206 704q-15 -7 -34 -20.5t-39 -28.5t-39.5 -29.5t-36.5 -23.5q-23 -2 -34.5 14t-7.5 41l143 107q16 5 28 1t18.5 -13t7 -22t-5.5 -26zM360 699q-15 -7 -34 -20.5t-39 -28.5t-39.5 -29.5t-36.5 -23.5q-23 -2 -34.5 14t-7.5 41l143 107q16 5 28 1t18.5 -13t7 -22t-5.5 -26
z" />
    <glyph glyph-name="Wgrave" unicode="&#x1e80;" horiz-adv-x="1031" 
d="M7 727q5 15 16 18t24 3q22 0 38.5 -38t30 -96t27 -128t29 -134t35.5 -114t47 -68l227 528q4 10 11 14t15 3t16 -6t14 -11q27 -61 60.5 -129.5t71 -137.5t77 -134t78.5 -120q23 12 35.5 56t24.5 117.5t28 176t45 231.5q2 12 9.5 15t16 1.5t17.5 -6.5t14 -10
q0 -73 -9.5 -148.5t-25 -152.5t-35.5 -154t-41 -152q-14 -26 -26.5 -46.5t-26 -28.5t-30 -0.5t-37.5 37.5l-277 468q-41 -120 -73 -207t-57 -147.5t-43.5 -98.5t-33 -60t-25.5 -32.5t-20 -16.5l-37 38q-19 37 -39 88.5t-40 110.5t-39 122.5t-36 125.5t-31.5 119.5
t-24.5 103.5zM372 892q-6 13 -5.5 26t7 22t18 13t28.5 -1l143 -107q4 -25 -7.5 -41t-34.5 -14q-17 9 -36.5 23.5t-39.5 29.5t-39 28.5t-34 20.5z" />
    <glyph glyph-name="wgrave" unicode="&#x1e81;" horiz-adv-x="793" 
d="M22 542q24 13 40.5 10t27.5 -14t17 -26.5t9 -25.5q4 -11 12 -37t18.5 -59.5t21.5 -70.5t20.5 -70.5t17.5 -60t11 -37.5q6 12 18 37t27 56.5t31.5 66.5t31.5 66.5t26.5 57t16.5 37.5q7 17 9 34t6.5 30.5t15.5 22t35 8.5q15 0 23.5 -11t13 -26t6.5 -31.5t4 -26.5
q2 -11 7.5 -35.5t12.5 -56t15 -66.5t15.5 -66.5t13.5 -56t8 -34.5q28 42 47 95.5t33 111.5t25.5 115t24.5 105q3 0 14 0.5t15 0.5q20 0 34.5 -2.5t31.5 -17.5l-206 -522q-6 -11 -11.5 -15t-16.5 -4q-21 0 -36 23.5t-26.5 59.5t-20 78t-17 79t-18 63.5t-21.5 30.5l-19 -18
l-150 -321q-2 -5 -9.5 -12t-9.5 -7q-14 0 -26.5 7t-20.5 18t-11 24.5t1 25.5zM291 724q-6 13 -5.5 26t7 22t18 13t28.5 -1l143 -107q4 -25 -7.5 -41t-34.5 -14q-17 9 -36.5 23.5t-39.5 29.5t-39 28.5t-34 20.5z" />
    <glyph glyph-name="Wacute" unicode="&#x1e82;" horiz-adv-x="1041" 
d="M7 727q5 15 16 18t24 3q22 0 38.5 -38t30 -96t27 -128t29 -134t35.5 -114t47 -68l227 528q4 10 11 14t15 3t16 -6t14 -11q27 -61 60.5 -129.5t71 -137.5t77 -134t78.5 -120q23 12 35.5 56t24.5 117.5t28 176t45 231.5q2 12 9.5 15t16 1.5t17.5 -6.5t14 -10
q0 -73 -9.5 -148.5t-25 -152.5t-35.5 -154t-41 -152q-14 -26 -26.5 -46.5t-26 -28.5t-30 -0.5t-37.5 37.5l-277 468q-41 -120 -73 -207t-57 -147.5t-43.5 -98.5t-33 -60t-25.5 -32.5t-20 -16.5l-37 38q-19 37 -39 88.5t-40 110.5t-39 122.5t-36 125.5t-31.5 119.5
t-24.5 103.5zM602 886q-15 -7 -34 -20.5t-39 -28.5t-39.5 -29.5t-36.5 -23.5q-23 -2 -34.5 14t-7.5 41l143 107q16 5 28 1t18.5 -13t7 -22t-5.5 -26z" />
    <glyph glyph-name="wacute" unicode="&#x1e83;" horiz-adv-x="793" 
d="M22 542q24 13 40.5 10t27.5 -14t17 -26.5t9 -25.5q4 -11 12 -37t18.5 -59.5t21.5 -70.5t20.5 -70.5t17.5 -60t11 -37.5q6 12 18 37t27 56.5t31.5 66.5t31.5 66.5t26.5 57t16.5 37.5q7 17 9 34t6.5 30.5t15.5 22t35 8.5q15 0 23.5 -11t13 -26t6.5 -31.5t4 -26.5
q2 -11 7.5 -35.5t12.5 -56t15 -66.5t15.5 -66.5t13.5 -56t8 -34.5q28 42 47 95.5t33 111.5t25.5 115t24.5 105q3 0 14 0.5t15 0.5q20 0 34.5 -2.5t31.5 -17.5l-206 -522q-6 -11 -11.5 -15t-16.5 -4q-21 0 -36 23.5t-26.5 59.5t-20 78t-17 79t-18 63.5t-21.5 30.5l-19 -18
l-150 -321q-2 -5 -9.5 -12t-9.5 -7q-14 0 -26.5 7t-20.5 18t-11 24.5t1 25.5zM444 723q-15 -7 -34 -20.5t-39 -28.5t-39.5 -29.5t-36.5 -23.5q-23 -2 -34.5 14t-7.5 41l143 107q16 5 28 1t18.5 -13t7 -22t-5.5 -26z" />
    <glyph glyph-name="Wdieresis" unicode="&#x1e84;" horiz-adv-x="1041" 
d="M7 727q5 15 16 18t24 3q22 0 38.5 -38t30 -96t27 -128t29 -134t35.5 -114t47 -68l227 528q4 10 11 14t15 3t16 -6t14 -11q27 -61 60.5 -129.5t71 -137.5t77 -134t78.5 -120q23 12 35.5 56t24.5 117.5t28 176t45 231.5q2 12 9.5 15t16 1.5t17.5 -6.5t14 -10
q0 -73 -9.5 -148.5t-25 -152.5t-35.5 -154t-41 -152q-14 -26 -26.5 -46.5t-26 -28.5t-30 -0.5t-37.5 37.5l-277 468q-41 -120 -73 -207t-57 -147.5t-43.5 -98.5t-33 -60t-25.5 -32.5t-20 -16.5l-37 38q-19 37 -39 88.5t-40 110.5t-39 122.5t-36 125.5t-31.5 119.5
t-24.5 103.5zM395 887q7 0 21 0.5t28 -2.5t24.5 -10.5t10.5 -22.5q0 -7 -1.5 -15.5t-4.5 -16t-8.5 -12.5t-14.5 -5q-15 0 -25 9t-17 22t-10 27.5t-3 25.5zM537 887q7 0 21 0.5t28 -2.5t24.5 -10.5t10.5 -22.5q0 -7 -1.5 -15.5t-4.5 -16t-8.5 -12.5t-14.5 -5q-15 0 -25 9
t-17 22t-10 27.5t-3 25.5z" />
    <glyph glyph-name="wdieresis" unicode="&#x1e85;" horiz-adv-x="796" 
d="M22 542q24 13 40.5 10t27.5 -14t17 -26.5t9 -25.5q4 -11 12 -37t18.5 -59.5t21.5 -70.5t20.5 -70.5t17.5 -60t11 -37.5q6 12 18 37t27 56.5t31.5 66.5t31.5 66.5t26.5 57t16.5 37.5q7 17 9 34t6.5 30.5t15.5 22t35 8.5q15 0 23.5 -11t13 -26t6.5 -31.5t4 -26.5
q2 -11 7.5 -35.5t12.5 -56t15 -66.5t15.5 -66.5t13.5 -56t8 -34.5q28 42 47 95.5t33 111.5t25.5 115t24.5 105q3 0 14 0.5t15 0.5q20 0 34.5 -2.5t31.5 -17.5l-206 -522q-6 -11 -11.5 -15t-16.5 -4q-21 0 -36 23.5t-26.5 59.5t-20 78t-17 79t-18 63.5t-21.5 30.5l-19 -18
l-150 -321q-2 -5 -9.5 -12t-9.5 -7q-14 0 -26.5 7t-20.5 18t-11 24.5t1 25.5zM265 712q7 0 21 0.5t28 -2.5t24.5 -10.5t10.5 -22.5q0 -7 -1.5 -15.5t-4.5 -16t-8.5 -12.5t-14.5 -5q-15 0 -25 9t-17 22t-10 27.5t-3 25.5zM407 712q7 0 21 0.5t28 -2.5t24.5 -10.5t10.5 -22.5
q0 -7 -1.5 -15.5t-4.5 -16t-8.5 -12.5t-14.5 -5q-15 0 -25 9t-17 22t-10 27.5t-3 25.5z" />
    <glyph glyph-name="Ygrave" unicode="&#x1ef2;" horiz-adv-x="604" 
d="M280 -33q-23 0 -36.5 18.5t-11.5 40.5q1 9 8 30.5t16.5 49t20 58.5t19 58.5t14 48.5t4.5 29q-45 58 -84 109.5t-73 104t-64 109.5t-57 125q3 10 9.5 14.5t14 5.5t16.5 0.5t17 -1.5q24 -52 50.5 -105.5t58 -104.5t68.5 -97.5t82 -84.5q42 104 71 174.5t47 116t28 69
t14.5 34t5.5 12t2 1.5q42 0 42 -41q0 -3 -1 -10t-1 -8l-272 -754q0 -1 -3 -1.5t-5 -0.5zM143 868q-6 13 -5.5 26t7 22t18 13t28.5 -1l143 -107q4 -25 -7.5 -41t-34.5 -14q-17 9 -36.5 23.5t-39.5 29.5t-39 28.5t-34 20.5z" />
    <glyph glyph-name="ygrave" unicode="&#x1ef3;" horiz-adv-x="528" 
d="M137 -239q18 69 47.5 146.5t58.5 150.5q-27 59 -51 107.5t-49 101t-53.5 115.5t-64.5 152q0 16 4 31.5t25 15.5q11 0 16.5 -4.5t11.5 -15.5l198 -380l169 396q5 11 12 15.5t17 4.5q13 -1 20 -9t9.5 -20t2 -24.5t-3.5 -22.5l-294 -760q-8 -14 -21 -20.5t-25 -6t-20.5 7.5
t-8.5 19zM151 704q-6 13 -5.5 26t7 22t18 13t28.5 -1l143 -107q4 -25 -7.5 -41t-34.5 -14q-17 9 -36.5 23.5t-39.5 29.5t-39 28.5t-34 20.5z" />
    <glyph glyph-name="endash" unicode="&#x2013;" horiz-adv-x="384" 
d="M47 364q-2 1 -1 9t3 17t4.5 17t2.5 11q64 1 95 1.5t45 0.5t18 -1t13 -1.5t30.5 -1.5t70.5 -1q16 -3 24.5 -6.5t12.5 -10.5t5 -19t1 -30q-51 6 -79.5 8.5t-46.5 3t-30.5 -0.5t-31.5 -1t-50.5 0.5t-85.5 4.5z" />
    <glyph glyph-name="emdash" unicode="&#x2014;" horiz-adv-x="712" 
d="M47 364q-2 1 -5.5 6.5t-6.5 11.5t-5 11.5t-2 8.5q0 9 5.5 13t13 5.5t14.5 1.5h11q67 -8 114.5 -9t85 0.5t69.5 4t67.5 2.5t80 -4t106.5 -15q16 -3 29 -6t23 -9t15.5 -17t5.5 -29q-77 9 -152.5 12t-152.5 3.5t-155.5 1.5t-160.5 7z" />
    <glyph glyph-name="quoteleft" unicode="&#x2018;" horiz-adv-x="160" 
d="M125 486q0 -10 -12 -15t-37 2q-18 14 -28.5 35t-11.5 46.5t9 54t33 57.5q5 7 15.5 10t21 2.5t19 -5t8.5 -12.5q-18 -25 -28.5 -46.5t-13.5 -42t3 -41.5t22 -45z" />
    <glyph glyph-name="quoteright" unicode="&#x2019;" horiz-adv-x="160" 
d="M64 485q15 23 20.5 43t3 39.5t-13 40t-26.5 44.5q0 7 8 11.5t18 5t19.5 -2t14.5 -9.5q22 -28 31.5 -55t8.5 -51.5t-10.5 -44.5t-26.5 -33q-24 -7 -35.5 -2t-11.5 14z" />
    <glyph glyph-name="quotesinglbase" unicode="&#x201a;" horiz-adv-x="160" 
d="M47 -12q15 23 21 43t3 39.5t-13.5 40t-27.5 44.5q0 7 8 11.5t18.5 5t20.5 -2t15 -9.5q22 -28 32 -55t9 -51.5t-11 -44.5t-27 -33q-25 -7 -36.5 -2t-11.5 14z" />
    <glyph glyph-name="quotedblleft" unicode="&#x201c;" horiz-adv-x="237" 
d="M19 689q0 10 5.5 17.5t13.5 10.5t17 -0.5t16 -13.5l51 -182q-7 -18 -16.5 -23.5t-25.5 10.5zM140 712q3 24 13.5 27.5t21 -2t16 -13t-1.5 -4.5l2 -15.5t5 -38t7 -48.5t7 -49t5 -38.5l2 -15.5q0 -5 -1 -8.5t-5 -4.5t-12.5 0t-24.5 5z" />
    <glyph glyph-name="quotedblright" unicode="&#x201d;" horiz-adv-x="237" 
d="M168 525q-17 -16 -27 -10.5t-17 23.5l53 181q7 10 16.5 13t17.5 0.5t13.5 -10t5.5 -17.5zM71 524q-32 -8 -38 -5.5t-6 13.5l2 15.5t5.5 38t7 48.5t7 48.5t5.5 37.5l2 15q-8 -3 -2 4.5t16.5 13t21.5 2t13 -27.5z" />
    <glyph glyph-name="quotedblbase" unicode="&#x201e;" horiz-adv-x="237" 
d="M32 144q0 10 5.5 17t13.5 9.5t17 0t17 -12.5l53 -180q-8 -18 -17.5 -23.5t-26.5 10.5zM156 165q3 24 13.5 27.5t21 -2t16.5 -13t-2 -4.5l2 -15t5.5 -37t7 -48t7 -48t5.5 -37.5l2 -15.5q0 -11 -6 -13.5t-38 5.5z" />
    <glyph glyph-name="dagger" unicode="&#x2020;" horiz-adv-x="512" 
d="M12 482q-2 1 -5.5 6.5t-6.5 11.5t-5 11.5t-2 8.5q0 9 5.5 13t13 5.5t14.5 1.5h11q41 -5 72 -8t55 -4.5t42.5 -2t33.5 -0.5q-3 40 -4 59t-1 28t0.5 13t0 13.5t-2 30t-4.5 63.5v12q0 17 13 22.5t27 5.5q24 0 28 -12.5t7 -46.5q4 -39 6 -57.5t3 -26.5t1.5 -10.5t1 -11t2 -27
t5.5 -58.5q26 -3 62 -8t93 -16q16 -3 29 -6t23 -9t15.5 -17t5.5 -29q-64 8 -118 13t-105 10q5 -58 9 -100t7.5 -75.5t6 -63t4 -62.5t2.5 -74.5t1 -98.5q-6 -12 -16.5 -20t-22 -7.5t-22 11t-14.5 35.5q-5 61 -8.5 104t-6.5 76.5t-5.5 61.5t-5.5 59t-6 69t-7 91
q-52 4 -108 7.5t-124 8.5z" />
    <glyph glyph-name="daggerdbl" unicode="&#x2021;" horiz-adv-x="413" 
d="M360 472q15 -5 18 -16t3 -23q0 -10 -10.5 -17.5t-28.5 -12.5t-41.5 -8t-49.5 -4l22 -387h-18.5t-25.5 2t-24 6.5t-14 14.5q-4 53 -6.5 87.5t-4 59t-2.5 43.5t-2.5 41.5t-3.5 53t-5 77.5q-39 0 -70 1t-42 1q-12 21 -8 34.5t20 22t40.5 12t54.5 5.5l-4 54t-4 53
q-35 -2 -64 -4t-41 -3q-15 7 -18 18.5t1.5 22.5t14.5 20.5t21 13.5q10 1 32 2.5t48 3.5l-5 103v12q0 17 13 22.5t27 5.5q24 0 28 -12.5t7 -46.5l10 -79q35 2 63 4.5t41 3.5h11q17 0 23 -12.5t6 -26.5q0 -12 -5.5 -19t-14 -10.5t-19 -4.5t-20.5 -2t-31 -2.5t-47 -3.5
q3 -28 5.5 -55.5t4.5 -55.5q32 0 62 0.5t53 4.5z" />
    <glyph glyph-name="bullet" unicode="&#x2022;" horiz-adv-x="220" 
d="M45 333q7 17 25.5 25.5t37 5.5t33 -17.5t14.5 -44.5q0 -7 -3 -19.5t-8 -24.5t-12 -20.5t-16 -8.5q-22 1 -37.5 13t-24.5 28.5t-11.5 34t2.5 28.5z" />
    <glyph glyph-name="ellipsis" unicode="&#x2026;" horiz-adv-x="426" 
d="M30 82q7 0 21 0.5t28 -2.5t24.5 -10.5t10.5 -22.5q0 -7 -1.5 -15.5t-4.5 -16t-8.5 -12.5t-14.5 -5q-15 0 -25 9t-17 22t-10 27.5t-3 25.5zM172 82q7 0 21 0.5t28 -2.5t24.5 -10.5t10.5 -22.5q0 -7 -1.5 -15.5t-4.5 -16t-8.5 -12.5t-14.5 -5q-15 0 -25 9t-17 22t-10 27.5
t-3 25.5zM314 82q7 0 21 0.5t28 -2.5t24.5 -10.5t10.5 -22.5q0 -7 -1.5 -15.5t-4.5 -16t-8.5 -12.5t-14.5 -5q-15 0 -25 9t-17 22t-10 27.5t-3 25.5z" />
    <glyph glyph-name="guilsinglleft" unicode="&#x2039;" horiz-adv-x="547" 
d="M462 155q-19 6 -57 7t-85 0.5t-97.5 -0.5t-93.5 4.5t-74 15t-38 30.5l4.5 4.5l10.5 10.5l12.5 12.5t10.5 9.5q12 10 37 31t56.5 47t66.5 55t66.5 55t56.5 46t37 30q20 16 41.5 20t45.5 4q0 -25 -18.5 -51.5t-47.5 -54t-65 -54.5t-71 -53t-64.5 -50t-46.5 -44h302
q2 2 7 5.5t11 6.5t11.5 5t8.5 2q9 0 13 -6.5t5.5 -14.5t1.5 -16v-12q0 -23 -10 -34t-37 -11z" />
    <glyph glyph-name="guilsinglright" unicode="&#x203a;" horiz-adv-x="528" 
d="M96 114v14.5t2 5.5t6 5t12 12q15 20 41.5 43t56.5 47t60.5 47.5t55.5 44t40.5 37t15.5 26.5l-339 113q-20 7 -20 29q0 21 16 25.5t33 4.5q21 0 41 -6t39.5 -15t39.5 -19.5t40 -18.5q9 -3 28 -9t43 -13.5t51 -15.5t51 -15.5t43.5 -13.5t28.5 -8q27 -20 19.5 -45.5
t-36.5 -54t-72.5 -60.5t-89.5 -65.5t-87.5 -67.5t-66.5 -68q-23 0 -37.5 7.5t-14.5 33.5z" />
    <glyph glyph-name="fraction" unicode="&#x2044;" horiz-adv-x="536" 
d="M8 28q0 2 0.5 5.5t0.5 4.5l461 749q12 -6 27 -18t15 -22q0 -2 -0.5 -5.5t-0.5 -4.5l-445 -737q0 -1 -6.5 -2t-9.5 -1q-15 0 -28.5 7t-13.5 24z" />
    <glyph glyph-name="Euro" unicode="&#x20ac;" horiz-adv-x="670" 
d="M164 186q-8 1 -24 -4.5t-34.5 -12t-36.5 -10t-28.5 1t-11.5 20.5t14 49l108 26l8 105q-5 0 -20 -3.5t-31.5 -8t-31.5 -7.5t-20 -1q-15 4 -21.5 13t-6.5 19t6 19t17 14l120 21q6 38 13 79t19 81t30.5 76.5t46.5 64t68 43.5t95 16q27 0 47.5 -14.5t36 -37.5t26 -52.5
t16.5 -58.5t9 -56t3 -46q-33 0 -50 14t-26 35t-12.5 45.5t-8 45.5t-14 35t-29.5 14q-50 0 -85 -27t-58.5 -66t-35.5 -83.5t-16 -79.5q24 -6 47 -1t45 14t44 17.5t45 8.5q12 0 20 -9t8 -21q0 -14 -15.5 -25.5t-38.5 -21t-50.5 -17.5t-50.5 -14.5t-38.5 -12.5t-15.5 -12
l-2 -90q12 0 40 10t57 18t51.5 7t23.5 -22q0 -10 -4.5 -16.5t-15.5 -11.5q-8 -3 -29 -11.5t-45 -17.5t-46 -17t-31 -11q0 -33 3.5 -61t16.5 -48t39.5 -32.5t72.5 -15.5q42 0 76 20t61 51t47.5 68t35.5 70q1 0 4 0.5t5 0.5q12 0 21 -8t9 -20q0 -47 -25.5 -90t-64.5 -76
t-86 -52.5t-90 -19.5q-62 0 -99.5 15t-59 41.5t-31 63t-16.5 80.5z" />
    <glyph glyph-name="trademark" unicode="&#x2122;" horiz-adv-x="1191" 
d="M170 26q3 83 8 163.5t8.5 161t5 162t-2.5 166.5q-5 1 -19.5 2.5t-33.5 3t-40 4t-38 7.5t-28.5 12t-11.5 18q0 23 17.5 36t37.5 13q51 0 100 -10.5t100 -10.5q50 0 86 1.5t68.5 3.5t67.5 3.5t83 1.5q0 -26 -6.5 -40.5t-19.5 -22t-31 -11t-42 -7.5q-15 -3 -41.5 -3t-56 0.5
t-56.5 0.5t-42 -2q-9 -34 -16 -85.5t-11.5 -113t-7.5 -127.5t-5 -129t-3.5 -118t-2.5 -94q-1 -9 -11 -15.5t-21.5 -6.5t-22 8t-12.5 28zM1057 65q8 68 14 130.5t10.5 124t6 125t0.5 134.5q-34 -68 -87 -110t-130 -42q-33 0 -70.5 6.5t-71 22t-59 41t-35.5 63.5l-48 -513
q-2 -26 -10 -32.5t-25 -6.5q-14 0 -27 5.5t-13 22.5v11q1 23 5 73.5t9 114.5t10 134.5t10 134.5t8.5 114t5.5 74q-3 15 1 23t11.5 11.5t17 4.5t17.5 1q4 0 14.5 -0.5t13.5 -1.5q21 -46 39.5 -90.5t44.5 -79t63.5 -55.5t97.5 -21q38 0 64.5 21.5t46.5 54.5t35 70.5t30.5 70.5
t34 54.5t44.5 21.5q12 0 22 -2.5t15 -18.5q-14 -63 -18 -131.5t-3.5 -137.5t3 -136.5t2 -127.5t-6.5 -110.5t-23 -86.5q-15 -16 -28 -20.5t-22.5 1t-14.5 20.5t-4 38z" />
    <glyph glyph-name="fl" unicode="&#xfb02;" horiz-adv-x="561" 
d="M20 359q-6 6 -8 16.5t-0.5 20t6.5 15.5t13 3l124 11q0 55 5.5 112t18.5 106t34.5 85t54.5 48q32 8 52 -6.5t32 -38.5t17.5 -49.5t7.5 -39.5q0 -12 -10 -16t-18 -4q-11 1 -18.5 15t-14.5 30.5t-15 29t-21 9.5q-14 -4 -26 -32.5t-19.5 -69t-8 -87.5t10.5 -87q29 0 60 4
t62.5 9.5t63 9.5t60.5 4q3 -21 -8 -34t-31 -21.5t-47 -13t-56 -7.5l-58 -6t-53 -8q-5 -55 -2.5 -104.5t7.5 -93.5t9.5 -82.5t4.5 -72.5q-2 -15 -9.5 -23.5t-18 -10t-21.5 5t-19 21.5q-8 37 -10 78.5t-2.5 85.5t-1.5 92t-5 99zM471 14q2 69 0 159t-5 187l-6 194t-3 181
q-2 11 7 21.5t20.5 15t22.5 0t13 -22.5q5 -158 8.5 -274.5t6 -199t4.5 -134.5t3.5 -82t2.5 -42t3 -13q-12 -10 -25.5 -13.5t-25 -2t-19 8t-7.5 17.5z" />
    <glyph glyph-name="commaaccent" horiz-adv-x="264" 
d="M84 -220q20 28 22.5 61.5t3 64t5.5 54t30 30.5q20 0 32.5 -29t13 -67t-13 -74.5t-45.5 -52.5q-15 -5 -29 -1t-19 14z" />
    </font>
</defs>
</svg>
